<?xml version="1.0" standalone="no"?>
<!DOCTYPE svg PUBLIC "-//W3C//DTD SVG 20010904//EN"
 "http://www.w3.org/TR/2001/REC-SVG-20010904/DTD/svg10.dtd">
<svg version="1.0" xmlns="http://www.w3.org/2000/svg" viewBox="0 0 512.000000 512.000000"
 preserveAspectRatio="xMidYMid meet">
<metadata>
Created by potrace 1.16, written by Peter Selinger 2001-2019
</metadata>
<g transform="translate(0,512) scale(0.1,-0.1)" fill="white" stroke="none">
<path d="M198 5113 c7 -3 16 -2 19 1 4 3 -2 6 -13 5 -11 0 -14 -3 -6 -6z"/>
<path d="M280 5100 c6 -11 44 -45 86 -75 41 -31 89 -76 106 -100 21 -30 41
-46 62 -51 17 -3 37 -11 44 -16 48 -40 -40 92 -131 194 l-60 68 -59 0 c-55 0
-58 -1 -48 -20z"/>
<path d="M511 5063 c18 -32 40 -69 49 -83 48 -69 112 -229 124 -308 9 -61 -11
-51 -33 16 -33 95 -100 144 -184 134 -32 -4 -44 0 -69 24 -30 28 -29 27 5 -18
60 -80 69 -186 21 -239 -32 -35 -42 -24 -29 29 40 152 -83 292 -257 292 -37 0
-68 -3 -68 -7 0 -5 -7 -17 -15 -27 -12 -16 -17 -17 -30 -6 -22 18 -19 66 6 88
57 54 202 37 335 -39 28 -16 62 -29 75 -29 22 1 20 4 -20 40 -97 88 -208 130
-343 130 l-78 0 0 -115 0 -115 88 0 c101 0 169 -25 214 -78 48 -57 45 -139 -7
-182 -21 -17 -32 -4 -17 20 31 50 -8 129 -82 167 l-31 16 21 -24 c39 -43 54
-86 54 -150 0 -58 -2 -63 -39 -100 -45 -45 -86 -51 -138 -19 -41 25 -55 52
-51 102 4 54 44 88 83 70 37 -17 53 -58 32 -79 -13 -14 -19 -14 -32 -3 -22 18
-44 -2 -25 -25 17 -21 42 -19 74 6 22 17 26 29 26 68 0 67 -31 111 -92 131
-25 8 -53 21 -62 29 -15 12 -16 -7 -16 -243 0 -169 3 -255 10 -251 5 3 10 13
10 22 0 12 3 13 14 4 18 -15 9 -49 -15 -56 -15 -5 -19 -16 -19 -51 0 -24 4
-44 10 -44 5 0 25 -14 44 -30 98 -86 84 -280 -24 -343 -24 -15 -30 -25 -30
-52 0 -27 9 -41 47 -74 56 -50 151 -98 219 -110 126 -24 234 50 234 160 0 33
-6 47 -34 75 -58 58 -130 38 -143 -38 -6 -40 5 -49 27 -23 37 45 91 -31 68
-96 -14 -40 -55 -59 -129 -59 -61 0 -64 1 -104 43 -51 54 -69 112 -63 205 8
106 48 171 120 190 56 15 107 0 149 -45 35 -38 36 -38 115 -39 95 0 163 -24
244 -86 30 -23 48 -33 41 -24 -29 35 -139 106 -212 137 -100 42 -122 58 -206
147 -68 72 -73 76 -100 66 -27 -9 -28 -13 -26 -67 2 -63 -11 -73 -47 -37 -14
14 -20 33 -20 66 0 41 5 51 39 85 21 22 42 46 45 54 8 21 43 19 62 -3 9 -11
26 -45 39 -77 26 -63 50 -93 109 -136 46 -34 56 -36 56 -10 0 27 45 78 74 83
14 3 40 0 60 -7 l35 -12 -31 38 c-24 30 -32 51 -37 102 -5 48 -14 74 -35 101
-27 37 -118 96 -146 96 -8 0 3 -9 25 -19 51 -24 93 -68 101 -107 4 -24 0 -37
-20 -61 -42 -50 -97 -51 -133 -4 -25 33 -13 91 20 91 20 0 20 0 1 -14 -26 -20
-7 -51 31 -51 67 0 57 76 -15 113 -56 28 -158 30 -210 4 -37 -18 -53 -52 -26
-52 9 0 16 -8 16 -20 0 -30 -38 -26 -52 6 -10 22 -9 32 11 70 32 60 68 94 100
94 21 0 23 -2 11 -11 -12 -9 -11 -9 5 -4 108 39 265 -14 331 -112 l21 -31 31
20 31 19 -20 34 c-11 19 -21 48 -21 64 -1 30 -2 30 -15 11 -21 -30 -86 -27
-118 5 -60 59 2 164 81 138 40 -13 65 -52 68 -105 4 -47 41 -128 63 -135 9 -3
8 9 -4 42 -30 90 2 170 82 200 79 31 155 -6 155 -74 0 -35 -26 -71 -51 -71
-20 0 -23 8 -19 50 2 21 0 23 -15 10 -14 -12 -21 -11 -52 5 l-35 19 -19 -23
c-11 -13 -19 -33 -19 -45 0 -41 31 -114 65 -153 32 -36 34 -37 35 -14 0 33 30
77 94 139 68 67 99 127 99 196 0 105 -79 186 -181 186 -41 0 -82 -23 -82 -46
0 -13 3 -13 22 0 29 20 74 21 82 1 8 -21 -14 -55 -40 -61 -30 -8 -83 22 -90
50 -12 49 56 126 111 126 16 0 14 4 -12 20 -17 10 -37 28 -43 40 -13 24 -9
115 5 115 6 0 18 5 28 11 15 9 11 11 -25 10 l-43 -1 4 -91 c3 -77 0 -99 -19
-140 -14 -31 -25 -82 -29 -137 -5 -48 -11 -90 -14 -94 -15 -14 -21 11 -25 97
-3 50 -9 90 -14 90 -6 0 -8 -18 -6 -40 2 -22 2 -40 1 -40 -2 0 -17 21 -33 47
-32 51 -39 106 -17 132 11 13 11 29 -2 96 l-16 80 -83 3 -84 3 33 -58z m-194
-929 c8 -22 -18 -37 -36 -20 -7 8 -10 19 -7 25 10 16 36 13 43 -5z"/>
<path d="M694 5083 c3 -21 6 -57 6 -80 0 -32 4 -43 18 -47 11 -4 25 -18 33
-32 l14 -26 7 33 c7 32 -6 161 -18 180 -3 5 -19 9 -36 9 -30 0 -30 -1 -24 -37z"/>
<path d="M1081 5075 c15 -34 21 -76 25 -168 3 -67 12 -142 20 -166 8 -25 14
-58 14 -75 l0 -31 38 40 c20 22 57 57 81 77 l45 36 -36 0 c-102 0 -175 118
-134 217 22 52 43 74 91 96 l40 19 -102 0 -102 0 20 -45z"/>
<path d="M1358 5099 c90 -45 117 -147 69 -253 l-26 -56 25 -6 c40 -10 74 -59
74 -109 0 -54 -54 -164 -90 -182 -29 -15 -12 -17 24 -3 44 16 103 78 126 132
18 41 21 66 18 123 -3 65 -9 85 -61 186 -32 63 -60 131 -64 152 l-6 37 -66 0
-66 0 43 -21z"/>
<path d="M1520 5091 c0 -16 7 -52 17 -80 16 -51 16 -51 35 -31 25 26 50 25 75
-2 29 -32 32 -40 43 -97 19 -103 -32 -246 -120 -331 l-51 -50 50 0 c116 0 214
44 241 109 7 17 18 31 25 31 8 0 21 24 31 53 23 71 41 107 73 141 19 21 12 18
-28 -13 -30 -24 -76 -53 -102 -67 -26 -13 -57 -38 -70 -56 -28 -42 -111 -128
-122 -128 -5 0 10 21 34 48 57 64 108 174 121 260 8 58 7 80 -7 128 -9 32 -26
71 -37 86 -19 27 -22 28 -114 28 l-94 0 0 -29z"/>
<path d="M1765 5084 c31 -46 39 -89 32 -175 -7 -82 6 -83 29 -2 18 62 13 136
-12 185 -11 21 -22 28 -44 28 l-29 0 24 -36z"/>
<path d="M1902 5089 c10 -30 7 -125 -6 -164 -3 -11 5 4 20 33 14 29 28 77 31
107 l6 55 -31 0 c-30 0 -31 -1 -20 -31z"/>
<path d="M1976 5069 c-4 -28 -16 -74 -26 -102 -11 -28 -18 -52 -17 -54 2 -1
23 7 46 19 128 63 271 -9 271 -136 0 -54 -16 -89 -59 -130 -41 -39 -30 -49 25
-26 91 40 190 14 268 -69 32 -34 46 -39 46 -17 0 21 49 76 79 88 25 10 25 11
-24 27 l-50 16 -1 50 c0 28 -8 67 -17 88 -15 36 -19 38 -47 32 -35 -8 -60 7
-60 36 0 20 28 39 48 32 26 -10 10 20 -41 72 -48 49 -57 55 -95 55 -30 0 -47
-6 -62 -22 -11 -12 -20 -25 -20 -29 0 -15 22 -21 33 -10 16 16 44 14 51 -5 11
-29 -12 -54 -50 -54 -46 0 -80 24 -95 67 -10 31 -9 39 8 62 43 57 101 65 180
26 65 -33 118 -101 177 -227 34 -75 52 -100 75 -112 57 -30 110 -17 136 34 31
61 9 140 -40 140 -29 0 -41 -16 -25 -35 6 -8 10 -24 8 -37 -2 -18 -9 -23 -33
-23 -68 0 -87 139 -33 244 26 49 26 65 0 39 -9 -9 -15 -9 -24 0 -24 24 -37 14
-22 -17 13 -26 13 -34 0 -65 -20 -48 -58 -63 -95 -39 l-26 17 37 14 c45 18 52
33 30 72 l-17 30 -222 0 -221 0 -22 -44 c-11 -24 -28 -50 -36 -56 -12 -11 -14
-4 -14 44 0 70 -15 73 -24 5z"/>
<path d="M2712 5098 c-36 -22 -49 -58 -36 -96 7 -20 17 -25 48 -27 31 -2 47
-10 73 -39 18 -20 35 -36 37 -36 2 0 7 15 10 33 9 49 59 122 107 157 42 30 42
30 14 30 -16 0 -39 -10 -52 -22 l-23 -21 -23 21 c-31 29 -108 29 -155 0z"/>
<path d="M3296 5078 l-26 -40 21 -17 c29 -23 42 -98 28 -163 -15 -68 -69 -126
-151 -163 -81 -37 -155 -37 -263 0 -85 29 -113 29 -191 -1 -50 -19 -57 -34
-15 -34 38 0 81 -35 81 -66 0 -43 -18 -64 -54 -64 -42 0 -50 9 -30 32 14 14
14 20 4 33 -16 19 -33 19 -70 0 -39 -20 -53 -66 -40 -134 19 -101 12 -209 -21
-342 -37 -148 -35 -187 16 -288 19 -39 36 -71 38 -71 1 0 3 40 4 89 2 140 57
306 144 440 37 56 122 122 191 147 63 24 170 21 282 -6 86 -21 104 -23 161
-13 163 28 229 108 175 212 -26 51 -80 84 -138 84 -38 0 -50 -5 -73 -31 -25
-28 -28 -36 -22 -82 9 -76 -24 -120 -91 -120 -39 0 -49 23 -25 54 22 28 20 56
-6 56 -10 0 -15 -10 -15 -31 0 -17 -5 -39 -10 -49 -7 -13 -7 -21 0 -25 5 -3
10 -13 10 -21 0 -12 -4 -12 -20 -4 -25 13 -70 90 -70 119 0 74 75 118 152 88
43 -17 60 -15 40 5 -19 19 -14 66 8 88 29 29 63 40 121 40 144 0 249 -154 194
-286 l-14 -35 46 33 c84 60 143 162 143 248 0 27 5 52 11 56 6 3 17 22 25 41
19 44 5 99 -33 135 -38 35 -65 42 -106 25 -45 -19 -64 -64 -45 -104 15 -32 68
-47 68 -19 0 23 20 30 37 13 19 -19 11 -59 -17 -87 -27 -27 -98 -27 -133 0
-14 11 -37 40 -51 64 -32 55 -68 71 -141 61 -50 -6 -57 -4 -80 19 -32 32 -32
53 -1 68 21 9 37 6 93 -18 37 -15 87 -41 110 -56 l41 -28 7 31 c4 17 21 46 37
65 137 156 327 0 249 -205 -22 -59 -20 -75 10 -66 40 13 89 -15 125 -70 18
-30 39 -57 45 -60 6 -4 43 -11 82 -16 152 -19 227 -49 227 -91 0 -31 -27 -32
-62 -2 -46 38 -89 54 -149 54 -68 0 -113 23 -150 76 -16 24 -34 44 -39 44 -4
0 -13 -13 -18 -29 -16 -45 -110 -108 -245 -165 -67 -28 -157 -71 -200 -95 -71
-39 -84 -43 -125 -38 l-47 6 36 -19 c78 -41 138 -108 185 -207 47 -98 66 -118
39 -43 -20 56 -19 73 5 119 17 35 68 71 100 71 7 0 9 8 5 21 -14 44 -7 91 22
137 40 65 119 105 216 110 72 5 211 -14 203 -27 -3 -4 13 -8 35 -8 108 -5 186
-124 128 -197 -34 -44 -107 -28 -97 21 2 10 10 18 18 18 46 1 53 43 14 74 -35
28 -114 29 -158 2 -26 -16 -76 -71 -76 -83 0 -2 12 -4 28 -3 21 0 28 -5 30
-23 4 -27 -23 -40 -49 -23 -31 19 -24 -25 21 -132 22 -53 42 -115 45 -139 4
-24 9 -54 11 -68 6 -25 6 -24 20 8 40 97 149 172 247 172 60 0 105 -25 95 -52
-4 -8 -35 -23 -70 -33 -150 -42 -236 -94 -274 -166 -22 -44 -36 -132 -25 -160
8 -20 10 -14 10 32 2 143 126 259 277 259 112 0 182 -45 320 -203 35 -41 45
-47 80 -47 73 0 114 57 59 82 -21 10 -28 8 -40 -8 -13 -16 -16 -17 -25 -4 -14
21 -13 27 11 51 15 15 28 19 47 14 37 -9 49 -21 62 -59 27 -82 -53 -141 -152
-113 -27 7 -28 6 -28 -31 0 -105 -71 -196 -189 -240 -80 -31 -115 -61 -138
-120 -23 -60 -24 -211 -1 -261 l16 -34 -5 69 c-3 53 0 77 14 104 23 44 61 64
97 50 22 -8 26 -16 26 -50 0 -33 -7 -48 -35 -77 -57 -59 -69 -148 -29 -224 16
-31 34 -31 34 1 0 28 55 77 94 84 107 20 185 -103 123 -195 -27 -41 -78 -68
-144 -76 -58 -6 -90 7 -103 43 -12 30 -50 32 -76 3 -14 -15 -20 -40 -22 -92
-3 -62 1 -84 28 -157 101 -269 119 -354 120 -547 0 -39 4 -74 9 -77 29 -18 19
296 -14 469 -16 87 -20 165 -7 149 9 -9 36 -96 69 -214 12 -46 17 -103 18
-195 0 -125 -2 -135 -44 -275 -24 -80 -47 -149 -51 -154 -5 -4 -8 61 -7 145 0
95 -3 164 -10 179 l-12 25 0 -29 c-2 -94 -54 -189 -133 -246 l-38 -28 45 -27
c47 -27 113 -102 145 -166 41 -80 47 -268 11 -362 -14 -36 -68 -69 -101 -61
-60 14 -90 83 -57 128 17 23 66 24 83 1 11 -15 14 -13 23 22 44 156 -79 412
-170 354 -28 -17 -49 -13 -49 9 0 15 7 20 24 20 47 0 39 29 -12 44 -54 17
-118 -106 -128 -242 -5 -76 -5 -77 10 -38 44 116 164 139 211 40 29 -62 7
-118 -57 -143 -22 -8 -31 -23 -47 -77 -12 -36 -21 -83 -22 -103 0 -29 -2 -32
-9 -16 -5 11 -9 38 -9 60 -1 30 -4 36 -11 25 -7 -11 -10 -6 -10 20 0 48 17
104 39 131 18 22 21 22 46 9 25 -13 28 -13 41 5 20 27 17 52 -8 69 -34 24 -57
19 -93 -17 -41 -41 -55 -89 -55 -188 0 -90 19 -158 71 -259 68 -132 164 -228
389 -392 l45 -33 -22 30 c-27 38 -118 122 -172 158 -78 52 -126 164 -102 243
12 42 -1 64 -29 47 -26 -17 -27 -17 -45 11 -19 28 -7 69 25 86 25 14 84 -12
107 -46 17 -27 20 -91 4 -107 -17 -17 -13 -51 9 -65 11 -7 20 -18 20 -25 0
-17 44 -108 64 -132 15 -19 15 -17 0 20 -18 45 -22 151 -7 181 6 10 13 58 17
106 12 168 68 252 190 286 83 23 126 66 126 128 0 34 -6 51 -25 69 -49 50
-140 20 -133 -43 3 -25 7 -27 46 -27 51 0 70 -21 51 -57 -16 -31 -28 -38 -70
-38 -40 0 -83 37 -94 81 -17 69 41 159 116 179 l40 11 -21 33 c-26 42 -27 122
-2 152 38 48 99 56 168 25 l41 -18 11 41 c15 55 62 109 117 136 l45 22 0 77 0
78 -54 52 c-51 47 -58 51 -105 51 -53 0 -75 -14 -40 -25 29 -9 59 -63 59 -105
0 -71 -62 -114 -117 -80 -38 23 -51 16 -107 -65 l-46 -66 37 26 c37 25 93 34
93 15 0 -5 -19 -18 -42 -28 -120 -53 -196 -196 -249 -467 -10 -51 -13 -56 -20
-35 -4 14 -7 62 -8 107 -1 73 4 98 46 220 l46 138 3 294 c2 161 6 296 9 299
20 20 60 -95 76 -219 l13 -94 24 77 24 78 -21 70 c-38 125 -133 200 -201 158
-17 -11 -22 -10 -30 2 -11 18 8 43 27 36 8 -3 11 -1 8 4 -11 19 -56 10 -81
-15 -29 -29 -27 -53 11 -145 23 -55 17 -80 -11 -44 -18 24 -54 138 -54 173 0
32 32 86 60 101 28 15 95 1 154 -34 53 -31 103 -90 141 -165 l27 -55 13 30
c19 46 33 122 40 214 7 94 37 174 83 224 34 36 117 76 160 76 l32 0 0 90 0 89
-47 28 c-35 20 -60 27 -101 28 -47 0 -57 -4 -78 -28 -36 -42 -33 -90 10 -133
27 -27 42 -34 74 -34 47 0 62 14 32 30 -26 14 -26 36 1 50 48 26 109 -23 90
-73 -14 -36 -135 -81 -198 -74 -49 5 -93 39 -113 88 -11 26 -17 29 -57 29 -54
0 -94 20 -126 62 -71 96 -59 219 29 317 59 65 94 84 160 83 72 -1 199 -66 272
-140 l52 -53 0 61 0 60 -31 0 c-200 0 -281 238 -119 348 29 20 44 23 93 20 31
-2 57 -3 57 -2 0 1 -13 16 -30 34 -54 58 -55 173 -1 240 23 29 31 49 31 78 0
36 -3 40 -29 45 -16 4 -32 14 -35 24 -3 10 -16 23 -28 28 -35 15 -36 68 -3
101 22 22 33 25 61 21 l34 -6 0 86 c0 74 -2 84 -15 73 -18 -15 -45 -6 -45 14
0 9 14 31 30 49 l30 35 0 195 0 194 -47 7 c-64 8 -160 -7 -210 -32 -60 -31
-140 -130 -85 -107 9 4 29 9 43 10 15 2 41 13 58 26 67 50 202 32 217 -28 14
-53 -35 -84 -58 -36 -28 58 -118 31 -118 -35 0 -68 95 -84 118 -21 8 20 8 20
34 0 47 -38 43 -56 -27 -106 -49 -35 -70 -57 -91 -100 -26 -54 -27 -61 -21
-168 3 -66 18 -171 37 -257 38 -179 47 -274 31 -323 -7 -20 -16 -37 -21 -37
-10 0 -20 26 -20 55 0 33 -42 79 -105 115 -51 29 -115 90 -115 110 0 4 -3 15
-6 24 -4 11 -1 16 10 16 27 0 213 -197 231 -244 14 -40 15 -40 9 -6 -11 61
-64 197 -102 259 -48 79 -130 163 -185 190 -78 38 -179 20 -193 -35 -10 -40 7
-63 71 -97 71 -39 96 -70 102 -131 9 -73 -43 -125 -97 -96 -26 14 -25 24 4 38
32 14 41 46 25 84 -10 24 -28 38 -76 59 -79 36 -97 62 -91 132 5 64 36 110 90
135 20 9 38 20 38 23 0 9 -104 51 -255 104 -156 55 -190 75 -215 126 -41 79
-17 169 53 202 42 20 64 21 97 2 14 -8 28 -14 33 -15 4 0 7 30 7 68 1 37 7 85
15 107 8 22 15 41 15 43 0 1 -67 2 -150 2 -144 0 -150 -1 -161 -22 -22 -41
-13 -104 26 -186 l36 -77 -31 30 c-52 50 -108 142 -121 200 -12 55 -38 77 -40
33 l0 -23 -11 23 c-10 21 -17 22 -109 22 -94 0 -99 -1 -115 -25 -52 -80 -218
-86 -290 -10 l-31 34 -27 -41z m-338 -500 c3 -23 -1 -28 -17 -28 -12 0 -21 -6
-21 -13 0 -38 65 -50 95 -17 10 11 18 33 19 50 1 27 2 28 14 13 26 -37 5 -94
-43 -118 -41 -19 -58 -19 -95 0 -75 39 -64 151 14 143 25 -2 32 -8 34 -30z
m476 -70 c-30 -32 -69 -48 -116 -47 l-43 1 46 8 c59 10 85 24 106 57 10 15 19
21 21 14 2 -7 -4 -21 -14 -33z m-695 -108 c25 -10 35 -9 60 3 42 21 53 1 16
-31 -32 -27 -72 -25 -115 7 -48 35 -87 131 -63 155 4 4 22 -22 40 -57 23 -47
40 -67 62 -77z m1406 -56 c3 -12 25 -49 50 -82 31 -41 45 -70 45 -91 0 -17 -4
-31 -10 -31 -5 0 -10 10 -10 23 -1 16 -8 8 -25 -28 -52 -106 -93 -126 -49 -25
30 70 30 99 -1 160 -14 27 -25 64 -25 83 0 37 13 60 18 30 1 -10 5 -28 7 -39z
m490 -14 c0 -18 -6 -26 -21 -28 -26 -4 -40 24 -23 45 18 21 44 11 44 -17z"/>
<path d="M3463 5113 c9 -2 23 -2 30 0 6 3 -1 5 -18 5 -16 0 -22 -2 -12 -5z"/>
<path d="M4386 5088 c-60 -81 -60 -219 1 -357 35 -80 83 -133 170 -186 94 -58
174 -115 228 -164 l40 -36 -42 45 c-24 25 -93 83 -155 130 -169 129 -233 238
-233 400 0 76 13 122 47 173 l19 27 -25 0 c-17 0 -33 -11 -50 -32z"/>
<path d="M4456 5049 c-31 -61 -36 -82 -36 -139 0 -127 48 -226 152 -310 86
-70 148 -112 148 -102 0 5 -36 50 -80 98 -103 114 -151 205 -158 302 -5 76 16
160 45 184 15 11 16 11 8 -7 -4 -11 -9 -54 -11 -95 -3 -75 -3 -75 5 -17 5 32
11 60 14 63 10 11 27 -7 28 -29 1 -13 5 -5 10 17 5 22 21 55 35 73 l25 33 -75
0 -75 0 -35 -71z"/>
<path d="M4757 5093 c4 -16 8 -42 8 -60 l0 -32 35 34 c19 18 55 45 80 59 l45
26 -88 0 -87 0 7 -27z"/>
<path d="M3055 5092 c-67 -29 -104 -55 -131 -94 -84 -121 -26 -268 106 -268
56 0 86 20 107 71 17 44 45 51 88 23 22 -14 24 -14 33 3 32 58 17 141 -30 176
l-27 20 -69 -27 c-79 -30 -114 -63 -114 -102 0 -31 28 -58 52 -48 29 11 35 9
38 -15 7 -46 -63 -57 -103 -16 -19 18 -25 35 -25 69 0 58 41 107 108 132 59
22 57 21 42 39 -7 8 -10 24 -7 35 6 25 -12 25 -68 2z"/>
<path d="M932 5069 c-63 -41 -52 -100 27 -145 25 -15 61 -41 80 -58 l34 -31
-6 80 c-6 90 -28 148 -64 164 -31 14 -32 14 -71 -10z"/>
<path d="M4638 5073 c-66 -76 -44 -240 51 -386 59 -90 82 -109 46 -36 -35 69
-42 145 -21 237 19 84 21 173 4 190 -18 18 -63 15 -80 -5z"/>
<path d="M1239 5001 c-34 -35 -37 -68 -8 -105 21 -27 34 -29 82 -10 25 9 41
-31 28 -69 l-11 -32 29 32 c38 41 50 107 27 151 -35 67 -98 81 -147 33z m79
-45 c-4 -25 -43 -34 -51 -12 -8 20 19 47 39 39 8 -3 14 -15 12 -27z"/>
<path d="M1590 4915 c0 -3 9 -24 21 -47 17 -33 20 -55 17 -114 -4 -82 7 -77
20 11 13 83 -7 155 -44 155 -8 0 -14 -2 -14 -5z"/>
<path d="M4531 4874 c0 -11 3 -14 6 -6 3 7 2 16 -1 19 -3 4 -6 -2 -5 -13z"/>
<path d="M2030 4855 c-54 -25 -89 -64 -126 -140 -29 -59 -32 -71 -19 -78 20
-11 19 -31 -2 -48 -21 -18 -69 -125 -88 -199 -37 -143 -4 -332 75 -430 13 -16
7 4 -17 54 -44 96 -56 205 -29 270 22 53 29 41 17 -30 -24 -151 51 -276 236
-394 72 -45 91 -54 72 -33 -49 53 -59 76 -59 131 0 86 37 132 108 132 15 0 37
3 49 6 21 6 20 7 -13 40 -27 28 -34 43 -34 74 0 51 26 67 79 51 90 -27 150
-115 182 -266 11 -54 29 -117 39 -141 33 -77 169 -264 143 -198 -4 10 -23 39
-42 64 -62 81 -91 159 -112 298 -15 100 -26 142 -54 198 -28 57 -34 79 -28
105 6 31 5 33 -10 20 -25 -20 -47 3 -47 50 0 47 -28 68 -66 50 -18 -8 -24 -19
-24 -44 0 -40 -15 -57 -50 -57 -36 0 -60 29 -60 73 0 26 6 40 22 51 32 23 38
20 39 -16 l1 -33 9 32 c11 38 52 73 86 73 64 0 130 -64 120 -116 -4 -20 -1
-23 14 -19 62 20 95 -51 86 -188 -6 -85 -5 -89 8 -57 7 19 14 64 14 100 1 55
-5 77 -33 137 -49 101 -105 159 -173 179 -62 18 -158 6 -123 -16 17 -10 4 -47
-19 -53 -27 -7 -41 11 -41 50 0 28 -10 44 -55 88 -56 56 -69 82 -63 130 4 34
27 50 60 42 46 -12 47 -62 2 -73 -31 -8 -30 -19 0 -39 45 -30 86 11 86 84 0
80 -79 122 -160 86z m27 -320 c42 -29 38 -133 -5 -150 -26 -10 -39 13 -17 29
27 19 10 67 -28 80 -22 8 -31 6 -50 -12 -30 -28 -37 -28 -37 3 0 55 86 86 137
50z m-7 -204 c40 -21 80 -83 80 -124 0 -30 -25 -97 -36 -97 -4 0 -4 18 0 40
14 91 -49 149 -123 113 -32 -16 -36 -22 -36 -58 0 -34 4 -41 28 -49 19 -7 33
-7 44 0 30 19 26 32 -9 31 -28 -2 -34 2 -36 22 -4 27 12 41 47 41 59 0 80 -67
37 -117 -19 -22 -32 -28 -65 -28 -59 0 -102 45 -108 112 -5 43 -2 53 23 82 45
54 94 64 154 32z m-60 -318 c5 -21 26 -58 45 -82 51 -63 45 -65 -27 -8 -41 33
-63 76 -53 106 10 32 23 25 35 -16z"/>
<path d="M4785 4846 c-75 -23 -80 -80 -21 -218 28 -62 114 -194 122 -185 1 1
-2 25 -7 52 -11 56 -5 127 16 189 14 40 14 41 -16 66 -22 18 -32 37 -36 68 -3
23 -8 42 -12 41 -3 -1 -24 -7 -46 -13z"/>
<path d="M4220 4841 c-37 -5 -46 -10 -54 -34 -18 -51 18 -83 152 -131 l91 -33
-41 46 c-42 47 -77 113 -78 144 0 9 -6 16 -12 15 -7 0 -33 -4 -58 -7z"/>
<path d="M1275 4691 c-49 -28 -86 -71 -158 -182 -20 -30 -58 -71 -84 -89 -76
-55 -123 -101 -123 -121 0 -11 16 -29 40 -44 49 -31 60 -51 61 -112 0 -26 4
-68 8 -93 7 -45 7 -45 13 28 10 103 43 170 124 248 l66 64 -74 0 -73 1 32 28
c36 33 124 56 184 48 35 -5 39 -3 48 25 6 17 8 47 5 68 -5 32 -3 40 17 54 21
14 25 14 38 1 9 -9 16 -33 16 -56 l0 -41 12 28 c7 16 12 51 13 77 0 94 -70
123 -165 68z m-50 -185 c-22 -7 -60 -23 -85 -36 -37 -19 -42 -20 -30 -5 21 25
89 55 125 54 28 0 28 -1 -10 -13z m-169 -230 c3 -8 0 -25 -7 -37 -11 -22 -12
-22 -25 -4 -9 12 -10 23 -3 36 12 23 28 25 35 5z"/>
<path d="M3866 4657 c-9 -35 -7 -40 9 -27 17 14 20 36 6 44 -5 3 -11 -4 -15
-17z"/>
<path d="M4641 4640 c14 -19 42 -58 62 -86 20 -29 37 -57 37 -64 0 -7 19 -36
43 -65 23 -28 69 -97 102 -153 33 -55 61 -99 63 -97 8 8 -57 146 -100 210 -25
39 -82 115 -128 170 -91 110 -117 139 -79 85z"/>
<path d="M574 4545 c-4 -9 -2 -21 4 -27 15 -15 44 -1 40 19 -4 23 -36 29 -44
8z"/>
<path d="M1790 4523 c-72 -57 -121 -73 -250 -82 -116 -9 -180 -26 -248 -68
l-34 -21 31 -7 c32 -7 81 -56 81 -81 0 -22 -41 -74 -71 -90 -23 -12 -29 -11
-39 1 -16 20 -112 20 -149 1 -36 -19 -52 -56 -59 -134 -3 -42 -8 -59 -14 -50
-5 8 -6 -11 -1 -47 10 -73 10 -122 1 -290 l-6 -130 18 94 c47 232 155 481 209
481 10 0 35 7 55 15 20 9 41 13 46 10 14 -9 12 -49 -2 -63 -17 -17 -7 -15 52
8 44 17 55 19 78 8 46 -23 32 -40 -73 -92 -121 -59 -201 -134 -258 -243 -44
-84 -77 -204 -77 -279 0 -28 -7 -86 -16 -128 -8 -42 -13 -86 -11 -98 3 -17 5
-15 6 9 2 55 49 186 86 241 36 53 85 92 116 92 18 0 49 -30 49 -48 0 -6 -22
-23 -49 -37 -27 -13 -59 -39 -72 -56 -25 -36 -111 -228 -107 -241 2 -5 53 46
115 113 101 109 115 129 143 202 37 97 37 161 0 187 -72 49 -86 84 -50 120 28
28 71 26 101 -6 22 -24 24 -34 24 -122 -1 -84 -4 -105 -28 -157 -24 -53 -24
-57 -5 -30 75 101 177 185 253 208 22 6 49 22 60 35 22 25 85 39 129 28 14 -3
49 -27 77 -52 50 -45 54 -46 103 -41 28 2 73 15 101 27 l50 23 -55 24 c-35 15
-61 34 -71 51 -26 45 -122 77 -234 77 -80 0 -97 -3 -156 -31 -78 -37 -127 -92
-181 -203 l-37 -76 5 60 c16 188 37 247 109 313 94 86 198 97 273 28 18 -16
16 -8 -13 39 -44 74 -65 142 -65 214 0 68 -14 98 -59 128 -50 34 -111 31 -153
-6 -28 -25 -33 -36 -33 -74 0 -54 22 -82 77 -99 48 -14 85 0 94 38 14 57 -43
88 -63 34 -9 -24 -17 -30 -42 -30 -56 0 -69 64 -22 111 69 69 181 12 181 -93
0 -68 -70 -138 -139 -138 -43 0 -103 34 -124 70 -21 35 -22 121 -3 158 16 31
61 74 93 91 51 26 137 7 191 -42 18 -17 22 -18 22 -5 0 9 19 55 43 102 24 47
43 86 43 85 -1 0 -21 -16 -46 -36z m190 -734 c96 -36 54 -39 -48 -3 -42 14
-88 24 -104 22 -34 -5 -36 -1 -5 12 28 11 63 5 157 -31z m-312 9 c3 -16 -95
-98 -118 -98 -23 0 -3 48 39 93 29 31 74 34 79 5z"/>
<path d="M3971 4499 c-54 -10 -78 -31 -102 -87 -15 -35 -23 -43 -41 -40 -31 4
-34 32 -7 69 l22 31 -30 -16 c-41 -21 -83 -72 -83 -101 0 -25 33 -55 61 -55
34 0 109 -40 155 -82 30 -27 45 -36 39 -23 -56 138 -37 222 62 285 l47 30 -40
-1 c-21 -1 -59 -5 -83 -10z"/>
<path d="M408 4443 c7 -3 16 -2 19 1 4 3 -2 6 -13 5 -11 0 -14 -3 -6 -6z"/>
<path d="M3019 4399 c-105 -16 -196 -97 -259 -232 -57 -124 -57 -131 -4 -79
122 116 280 123 374 16 23 -26 30 -44 30 -75 0 -134 -144 -182 -234 -76 -20
23 -43 50 -51 60 -9 10 -29 20 -46 24 -37 7 -33 23 12 39 53 19 110 17 149 -7
54 -33 69 -66 25 -55 -30 8 -32 -7 -5 -34 26 -26 51 -25 84 1 22 17 26 28 24
57 -7 84 -157 118 -268 61 -51 -26 -124 -102 -151 -157 -33 -66 -33 -228 0
-317 56 -153 171 -292 296 -357 93 -48 264 -90 380 -93 49 -1 144 -5 210 -8
66 -3 95 -2 65 1 -30 4 -66 14 -80 22 -23 13 -23 15 -6 18 11 2 48 2 83 0 75
-5 80 6 27 50 -116 96 -209 112 -374 64 -58 -17 -118 -34 -135 -38 l-30 -7 45
-14 c44 -14 137 -13 203 3 33 8 37 -14 8 -40 -72 -65 -362 17 -502 142 -32 30
-70 77 -90 114 -31 57 -34 71 -34 143 0 92 21 141 79 193 78 68 166 65 237 -8
46 -46 47 -47 100 -42 49 4 59 1 88 -24 43 -36 61 -79 61 -146 0 -71 -30 -129
-110 -211 -39 -40 -57 -64 -45 -61 95 30 207 146 236 246 11 39 -14 106 -58
157 -55 65 -25 99 38 43 20 -18 34 -42 39 -68 l8 -39 1 48 c2 74 -20 114 -74
137 -36 15 -45 24 -45 44 0 28 -14 41 -32 29 -7 -4 -23 -6 -36 -4 -33 4 -52
-16 -52 -55 0 -38 -9 -43 -32 -16 -37 43 -28 90 24 123 26 16 45 19 92 16 54
-3 62 -7 92 -41 l33 -38 6 25 c10 40 -27 111 -73 142 -22 15 -45 39 -52 55
-10 25 -8 33 15 68 33 50 53 59 79 33 17 -18 18 -24 8 -60 -14 -46 -6 -76 38
-132 55 -69 81 -139 81 -222 1 -91 -12 -138 -62 -242 -23 -45 -31 -69 -20 -55
28 33 95 165 111 215 20 64 47 110 86 151 53 55 51 73 -2 25 -24 -23 -51 -41
-59 -41 -29 0 -28 29 4 65 17 20 31 39 31 43 0 5 -11 23 -25 42 -14 19 -25 46
-25 61 0 58 -67 167 -121 194 -42 22 -79 8 -137 -54 -26 -27 -59 -53 -74 -56
-69 -17 -117 31 -86 85 16 28 16 29 -4 32 -26 4 -43 30 -35 52 12 30 137 17
137 -15 0 -5 -12 -20 -27 -33 -24 -20 -25 -26 -14 -40 22 -27 49 -18 102 31
l50 47 -43 23 c-81 42 -196 64 -279 52z"/>
<path d="M5043 4373 c-16 -6 -17 -35 -1 -51 17 -17 26 -15 38 9 9 15 8 24 -1
35 -12 15 -16 16 -36 7z"/>
<path d="M721 4323 c-29 -24 -36 -80 -21 -156 13 -57 19 -67 88 -136 113 -112
159 -229 177 -446 12 -140 -26 -287 -101 -392 -19 -26 -34 -51 -34 -55 0 -3
20 -18 44 -32 58 -34 131 -117 149 -169 l14 -42 8 80 c6 59 4 92 -6 125 -10
32 -14 113 -15 290 -2 334 -29 540 -79 597 l-22 27 -7 -22 c-10 -32 -33 -27
-41 9 -12 53 36 85 87 58 20 -11 21 -10 15 42 -5 41 -13 60 -32 77 -33 28 -37
28 -74 -4 -26 -21 -34 -24 -46 -14 -22 18 -18 37 10 66 14 14 25 27 25 29 0 7
-101 85 -110 85 -4 0 -17 -8 -29 -17z m66 -185 c39 -41 95 -56 128 -34 14 9
25 13 25 8 0 -19 -27 -32 -70 -32 -70 0 -120 42 -139 117 -18 68 -11 83 10 23
10 -30 31 -67 46 -82z"/>
<path d="M5111 4314 c0 -11 3 -14 6 -6 3 7 2 16 -1 19 -3 4 -6 -2 -5 -13z"/>
<path d="M1180 4271 c-19 -11 -46 -31 -60 -46 -22 -24 -19 -23 27 8 50 33 108
55 119 44 3 -3 -11 -10 -31 -17 -44 -14 -40 -36 6 -33 33 1 59 24 59 50 0 20
-79 16 -120 -6z"/>
<path d="M3670 4211 c-53 -53 -48 -116 12 -147 37 -19 62 -18 82 5 23 25 17
57 -9 53 -55 -9 -60 -7 -63 20 -3 23 3 30 31 44 30 14 38 15 63 3 34 -17 50
-55 40 -95 -5 -17 -35 -55 -74 -92 -63 -59 -65 -61 -30 -47 116 47 206 -9 288
-179 40 -83 59 -110 44 -63 -4 12 -8 81 -8 152 -1 117 -4 135 -27 185 -52 110
-162 190 -264 190 -49 0 -60 -4 -85 -29z"/>
<path d="M2270 4190 c0 -5 19 -19 43 -30 l42 -21 -35 31 c-35 31 -50 37 -50
20z"/>
<path d="M2315 4065 c8 -19 15 -48 15 -64 0 -19 9 -40 25 -55 25 -25 36 -86
15 -86 -5 0 -10 3 -10 8 -1 4 -9 17 -20 30 -18 22 -21 22 -49 8 -65 -34 -134
-6 -147 60 -7 38 7 64 36 64 31 0 43 -25 26 -53 -9 -13 -13 -27 -9 -30 13 -14
70 -7 86 11 63 69 -72 144 -138 77 -20 -19 -25 -34 -25 -76 0 -98 53 -148 271
-253 91 -43 166 -88 228 -136 51 -40 90 -74 87 -77 -3 -3 -20 5 -38 18 -18 13
-28 17 -21 9 20 -26 71 -51 78 -40 4 6 -38 57 -93 113 -122 124 -162 188 -207
332 -34 110 -52 138 -102 164 -22 11 -22 11 -8 -24z"/>
<path d="M3655 4054 c5 -11 10 -37 13 -59 4 -32 6 -36 13 -20 15 39 10 74 -13
86 -19 10 -20 9 -13 -7z"/>
<path d="M1267 4020 c-49 -53 -81 -106 -112 -181 -34 -86 -31 -86 15 -2 21 40
62 106 90 148 28 41 49 75 46 75 -2 0 -20 -18 -39 -40z"/>
<path d="M0 3970 c0 -73 2 -82 14 -70 24 25 25 105 1 136 -13 17 -14 11 -15
-66z"/>
<path d="M5104 4014 c-4 -14 -2 -35 4 -47 9 -19 11 -15 11 26 1 52 -5 61 -15
21z"/>
<path d="M631 4001 c-11 -7 -7 -14 20 -29 140 -83 222 -196 255 -350 15 -76
18 -152 5 -152 -4 0 -11 20 -14 45 -9 81 -59 165 -147 248 -108 102 -170 132
-274 132 -76 0 -80 1 -111 33 -28 27 -40 32 -83 32 -85 0 -131 -61 -118 -157
18 -130 150 -243 200 -171 21 30 20 41 -4 33 -15 -5 -22 -1 -28 16 -6 15 -11
18 -16 11 -24 -39 -76 27 -76 95 0 30 7 50 26 72 31 37 47 39 68 9 16 -22 16
-22 30 -3 13 18 15 19 21 3 6 -14 10 -15 26 -5 15 10 25 9 46 -3 49 -28 68
-65 68 -134 0 -53 -4 -69 -30 -106 -35 -50 -117 -108 -172 -121 -62 -14 -151
7 -239 57 -43 24 -79 44 -81 44 -2 0 -3 -7 -3 -15 0 -8 14 -24 30 -37 88 -64
92 -219 9 -279 -35 -25 -31 -34 18 -42 21 -4 59 -20 85 -36 l46 -29 -9 31
c-23 81 1 158 70 220 49 44 78 57 129 57 46 -1 78 -18 103 -56 39 -60 11 -131
-63 -157 -24 -9 -35 -16 -26 -16 23 -1 48 -51 48 -95 0 -27 -8 -44 -35 -71
-20 -19 -41 -35 -47 -35 -7 0 5 17 25 38 20 21 37 47 37 59 0 30 -30 60 -68
67 -28 5 -34 2 -44 -19 -8 -18 -8 -32 2 -55 14 -35 25 -38 33 -10 6 22 27 28
27 8 -1 -20 -26 -48 -43 -48 -34 0 -52 49 -52 140 1 95 14 130 48 129 12 0 16
-3 10 -6 -14 -5 -18 -49 -5 -56 4 -3 21 -8 39 -11 27 -6 34 -3 47 17 29 44 -1
93 -69 111 -32 9 -106 -34 -127 -74 -23 -44 -23 -114 1 -165 30 -67 32 -91 15
-136 -26 -62 -89 -99 -171 -99 l-63 0 0 -52 0 -53 56 3 c69 5 130 -11 190 -50
26 -16 47 -28 48 -26 2 2 8 32 14 66 14 80 41 137 93 196 54 61 116 96 214
121 79 20 80 21 83 54 3 29 1 33 -15 26 -44 -19 -62 -17 -87 8 -34 34 -35 85
-2 120 50 54 119 47 149 -15 17 -34 17 -42 4 -93 -8 -30 -12 -55 -11 -55 2 0
15 23 29 51 53 103 41 199 -30 240 -53 32 -59 84 -12 113 25 16 68 -11 90 -57
10 -20 22 -67 27 -105 4 -37 8 -57 9 -44 2 43 23 112 32 106 14 -8 10 -111 -5
-149 -21 -49 -12 -44 21 13 25 42 28 59 31 152 6 187 -34 311 -136 422 -70 75
-125 102 -161 79z m57 -283 c15 -15 15 -61 0 -76 -17 -17 -44 -15 -62 4 -21
21 -20 40 4 64 23 23 41 25 58 8z m-180 -231 c2 -19 9 -27 23 -27 10 0 19 7
19 15 0 8 9 15 20 15 15 0 20 -7 20 -25 0 -26 -25 -45 -59 -45 -26 0 -61 37
-61 65 0 44 33 45 38 2z m66 -293 c22 -8 20 -34 -2 -34 -19 0 -42 18 -42 32 0
9 22 10 44 2z"/>
<path d="M650 3675 c0 -9 5 -15 11 -13 6 2 11 8 11 13 0 5 -5 11 -11 13 -6 2
-11 -4 -11 -13z"/>
<path d="M1655 3958 c-50 -17 -94 -56 -125 -111 -32 -55 -41 -88 -13 -47 61
93 145 143 241 144 59 1 61 2 35 13 -34 15 -97 15 -138 1z"/>
<path d="M4335 3965 c-5 -2 -22 -6 -37 -9 -41 -9 -98 -65 -124 -121 -18 -38
-24 -67 -24 -125 0 -41 3 -85 6 -97 6 -21 6 -21 25 -2 10 10 28 19 40 19 17 0
20 -4 15 -24 -3 -14 3 -43 15 -72 12 -26 29 -86 39 -133 10 -47 19 -75 20 -61
1 30 34 107 58 134 13 14 14 20 4 23 -24 9 -73 55 -87 84 -32 61 -7 140 57
179 71 43 161 11 186 -68 12 -37 12 -46 -5 -79 -27 -55 -41 -53 -35 6 4 43 1
53 -21 75 -15 14 -35 26 -46 26 -27 0 -81 -47 -81 -71 0 -22 4 -23 31 -8 11 5
29 7 40 4 26 -9 22 -53 -6 -69 -11 -6 -22 -12 -25 -14 -3 -2 4 -10 14 -18 29
-20 93 -17 144 7 144 70 130 287 -24 371 l-50 27 4 -30 c6 -38 -21 -69 -59
-69 -26 0 -59 22 -59 40 0 11 26 20 56 20 27 0 30 8 12 33 -13 16 -63 30 -83
22z"/>
<path d="M3721 3889 c-61 -24 -84 -53 -142 -176 -70 -149 -128 -232 -222 -319
-40 -37 -58 -57 -41 -46 17 12 35 18 39 14 5 -4 5 -2 1 5 -8 15 119 115 196
154 59 30 133 40 126 17 -3 -7 -21 -16 -41 -19 -52 -8 -58 -19 -11 -19 51 0
103 -27 131 -68 20 -30 22 -31 28 -12 4 11 0 29 -9 42 -14 20 -14 24 0 39 19
21 12 49 -18 68 -25 15 -96 16 -148 2 l-35 -10 35 30 c19 16 52 32 73 36 36 5
37 6 17 20 -47 33 -64 117 -35 173 25 48 96 75 123 48 23 -23 13 -38 -23 -38
-26 0 -39 -6 -52 -26 -15 -24 -15 -29 -2 -53 36 -63 129 -46 149 28 23 88 -49
146 -139 110z m66 -94 c-7 -16 -37 -21 -37 -5 0 10 32 31 39 25 2 -2 1 -11 -2
-20z"/>
<path d="M3910 3844 c6 -14 10 -45 10 -68 0 -60 -32 -105 -99 -137 -46 -23
-51 -28 -33 -33 30 -10 62 -58 62 -94 0 -40 -16 -81 -43 -110 l-21 -23 45 17
c52 19 133 13 160 -12 15 -14 21 -14 34 -4 12 10 18 10 30 0 20 -16 19 -59 -1
-67 -11 -4 -14 -13 -9 -32 4 -14 10 -28 14 -31 4 -3 18 -30 30 -60 13 -30 41
-80 62 -111 61 -90 94 -151 118 -213 24 -65 21 -88 -5 -33 l-17 35 -23 -21
c-16 -14 -24 -31 -24 -54 0 -76 -141 -95 -180 -24 -22 42 -8 110 29 138 41 31
106 -1 99 -49 -3 -17 0 -27 6 -25 6 2 12 18 14 35 3 25 -5 40 -38 76 -70 76
-158 105 -208 70 -21 -14 -31 -53 -14 -55 66 -7 87 -49 23 -49 -80 0 -78 128
2 131 18 1 17 2 -8 10 -41 12 -128 -5 -181 -36 -24 -14 -69 -55 -101 -91 -98
-109 -150 -129 -204 -75 -36 36 -38 75 -6 122 46 69 142 112 284 127 l68 7
-80 5 c-142 9 -219 -4 -315 -51 -85 -43 -190 -132 -220 -189 -7 -14 8 -2 33
26 42 46 105 89 116 79 2 -2 -17 -27 -42 -55 -53 -58 -81 -127 -92 -219 -6
-53 -13 -70 -42 -102 -33 -37 -34 -40 -23 -75 7 -22 11 -68 8 -113 -6 -101
-37 -168 -119 -255 l-64 -68 50 31 c82 52 143 63 201 35 33 -16 36 -16 48 1
11 15 9 21 -10 40 -35 35 -66 146 -71 261 -5 94 -3 108 22 175 34 89 55 121
98 148 95 58 210 25 237 -69 8 -27 2 -54 -32 -159 -48 -147 -49 -151 -59 -125
-18 45 -9 115 23 181 36 74 32 109 -14 131 -34 16 -68 2 -92 -39 -23 -39 -15
-60 22 -57 34 2 52 -8 52 -31 0 -47 -75 -57 -117 -15 -22 22 -25 32 -20 70 4
43 4 44 -13 29 -51 -47 -33 -97 74 -200 68 -66 86 -90 101 -134 43 -130 -25
-251 -141 -251 l-38 0 39 -40 c41 -42 62 -50 71 -26 7 18 31 10 44 -14 7 -14
6 -23 -6 -34 -19 -19 -29 -20 -46 -3 -28 28 -120 86 -155 98 -49 16 -161 6
-210 -19 -21 -11 -56 -37 -78 -57 l-40 -36 45 29 c63 41 110 64 110 54 0 -5
-15 -15 -33 -24 -53 -25 -285 -223 -466 -397 -72 -69 -70 -69 36 0 101 66 210
109 293 116 l67 6 -10 34 c-10 31 -8 37 8 49 25 18 50 18 69 -2 23 -22 20 -59
-6 -77 l-23 -15 33 -18 c66 -37 163 -116 192 -156 36 -50 41 -111 11 -128 -27
-14 -37 -13 -55 6 -12 12 -14 20 -5 36 8 15 7 24 -7 39 -13 15 -31 19 -83 19
-84 0 -181 23 -198 47 -12 16 -11 20 8 36 24 19 111 24 153 7 15 -5 26 -6 26
-1 0 5 -21 18 -47 28 -63 24 -188 22 -262 -4 l-54 -19 69 -23 c74 -24 114 -45
114 -61 0 -6 -44 -7 -118 -3 -98 5 -127 3 -171 -12 -114 -38 -169 -134 -178
-316 -9 -172 30 -286 137 -398 70 -73 92 -76 32 -4 -82 99 -143 212 -156 289
-9 54 16 88 64 86 59 -1 75 -29 76 -130 1 -54 8 -110 19 -145 20 -64 35 -82
35 -43 0 62 90 243 143 287 20 16 20 18 4 19 -10 0 -29 -12 -43 -27 -25 -27
-26 -27 -40 -8 -20 26 -18 48 8 80 19 24 26 27 63 22 44 -4 90 -31 100 -57 3
-8 -4 -22 -17 -33 l-23 -19 30 7 c38 8 115 38 115 45 0 4 -16 12 -35 18 -18 7
-45 26 -58 41 -13 16 -39 33 -59 40 -71 23 -117 107 -88 161 9 18 9 24 0 30
-28 17 4 29 75 27 57 -2 80 -7 102 -23 38 -29 39 -68 1 -72 -23 -3 -28 1 -28
18 0 16 -5 21 -22 18 -18 -2 -23 -10 -23 -33 0 -62 99 -52 138 14 23 39 77 64
111 51 14 -5 26 -16 26 -25 0 -12 -8 -14 -39 -9 -37 6 -40 4 -56 -27 -22 -43
-94 -119 -115 -119 -13 -1 -12 -3 2 -14 10 -7 15 -16 12 -19 -15 -15 63 -47
114 -47 60 0 65 9 19 30 -26 12 -33 22 -35 51 -4 43 24 72 70 72 56 0 86 -63
53 -110 -14 -21 -11 -20 50 8 38 18 89 33 123 36 l58 5 -24 49 c-18 36 -25 66
-25 111 0 76 21 129 71 182 94 98 218 102 308 9 l44 -45 0 35 c0 70 28 108 68
92 15 -6 14 -9 -10 -27 -29 -20 -39 -70 -18 -83 18 -11 10 -35 -15 -45 -22 -9
-25 -15 -25 -63 0 -61 5 -70 31 -56 20 11 81 -9 94 -31 5 -7 7 -38 6 -68 -3
-108 66 -288 161 -417 52 -70 160 -170 292 -270 219 -165 265 -202 330 -269
67 -68 123 -142 115 -151 -2 -2 -38 36 -80 84 -42 48 -97 104 -121 124 l-45
37 -52 -34 c-75 -51 -177 -59 -294 -24 -35 11 -41 9 -81 -20 -25 -16 -47 -28
-50 -25 -14 14 -4 35 25 52 26 16 45 18 137 14 97 -5 113 -3 172 20 l65 26
-40 1 c-52 1 -116 30 -143 65 -28 35 -28 43 2 56 19 9 33 6 77 -15 29 -14 55
-24 56 -22 2 2 -41 29 -94 61 -54 32 -138 87 -187 121 -89 65 -123 76 -146 49
-19 -23 -4 -45 31 -45 30 0 31 -2 26 -30 -6 -27 -4 -30 19 -30 80 0 145 -82
124 -159 -12 -44 -31 -64 -83 -86 -80 -33 -157 -8 -194 65 -29 56 -29 94 0
150 16 34 31 48 57 56 32 11 33 12 11 19 -28 9 -46 46 -37 79 7 29 59 60 87
53 11 -3 19 -3 19 -1 0 2 -22 34 -49 71 -53 72 -131 221 -150 288 -34 113 -68
149 -62 66 2 -27 -1 -41 -7 -37 -15 9 -42 94 -42 131 0 45 -27 128 -51 160
-17 20 -28 26 -48 22 -19 -4 -33 2 -53 20 -22 21 -38 26 -74 26 -40 0 -51 -4
-75 -31 -15 -17 -33 -50 -40 -72 -11 -37 -11 -43 8 -62 14 -14 27 -18 42 -13
29 9 27 35 -3 35 -33 0 -44 20 -21 36 26 19 56 -2 71 -47 19 -55 -6 -89 -63
-89 -40 0 -42 -16 -12 -69 15 -27 37 -44 89 -68 64 -31 136 -81 127 -89 -2 -3
-33 9 -68 25 -89 41 -128 49 -51 11 61 -31 112 -73 163 -136 14 -17 36 -37 49
-44 22 -12 19 -14 -62 -41 -155 -50 -228 -98 -228 -150 0 -26 15 -39 46 -39
25 0 28 30 5 47 -18 12 -20 18 -10 29 16 20 53 14 57 -9 6 -29 -17 -73 -44
-86 -40 -18 -73 -13 -101 15 -26 26 -26 31 -7 116 5 22 0 34 -24 58 -34 33
-72 39 -96 14 -23 -23 -20 -33 10 -31 34 3 41 -16 15 -42 -42 -42 -111 -15
-111 43 0 41 28 72 79 87 35 10 45 9 85 -11 27 -13 53 -34 62 -51 8 -16 16
-29 17 -29 1 0 33 13 71 29 l69 29 -54 11 c-94 20 -123 56 -78 97 15 13 24 16
36 8 25 -16 27 -34 4 -34 -12 0 -21 -4 -21 -10 0 -11 52 -40 72 -40 7 0 25 -6
39 -14 16 -8 32 -10 40 -5 11 7 11 9 -2 9 -8 0 -26 11 -39 25 -21 23 -23 29
-13 55 10 28 9 32 -23 58 -81 67 -229 87 -312 44 -23 -13 -42 -28 -40 -35 1
-7 -12 -34 -29 -60 -17 -26 -34 -63 -37 -82 -16 -83 49 -187 127 -202 33 -7
43 -13 45 -31 4 -28 -14 -52 -39 -52 -29 0 -22 -28 11 -45 61 -32 181 -13 262
40 44 29 108 149 89 168 -6 6 -11 15 -11 19 0 23 185 88 254 88 40 1 40 1 16
14 -13 8 -38 12 -55 9 -35 -6 -59 15 -49 41 10 27 54 19 96 -20 22 -20 53 -40
69 -46 16 -5 29 -14 29 -18 0 -5 -35 -16 -77 -25 -177 -38 -211 -56 -249 -138
-37 -79 -85 -132 -148 -165 -43 -23 -64 -27 -136 -27 -72 0 -94 4 -142 27 -32
15 -58 23 -58 19 0 -32 110 -141 175 -174 46 -23 115 -39 141 -33 l24 6 -33
30 c-40 36 -30 50 44 55 49 3 54 6 54 27 0 35 46 37 73 3 20 -26 22 -26 52
-10 18 10 30 22 27 29 -6 15 11 36 29 36 17 0 44 -28 44 -46 0 -8 -7 -14 -16
-14 -12 0 -10 -6 9 -30 28 -33 26 -64 -5 -81 -20 -11 -20 -11 0 -32 61 -66 37
-190 -43 -218 -34 -13 -47 -29 -22 -29 26 0 137 -60 177 -96 23 -21 50 -55 61
-77 16 -31 23 -36 34 -27 8 6 23 9 35 5 18 -6 20 -2 20 43 0 140 83 249 229
297 71 23 237 17 331 -13 75 -25 154 -71 170 -102 11 -20 10 -21 -9 -11 -11 6
-42 11 -69 11 -63 0 -109 -30 -139 -90 -27 -51 -29 -87 -9 -135 14 -32 19 -35
56 -35 l41 0 -21 22 c-55 59 -47 156 15 185 31 15 36 15 60 -1 34 -22 27 -42
-13 -39 -35 3 -57 -24 -47 -57 18 -58 88 -68 136 -21 30 31 36 61 19 105 -5
14 -8 26 -5 26 10 0 55 -89 55 -109 0 -34 -27 -79 -58 -95 -25 -14 -20 -15 80
-16 l106 0 -38 58 c-21 31 -51 93 -66 137 -25 71 -28 94 -29 205 0 126 0 126
38 202 46 94 138 183 239 231 70 34 85 57 48 77 -12 6 -20 21 -20 36 0 17 7
28 20 31 11 3 20 11 20 19 0 7 -9 18 -20 24 -12 6 -20 21 -20 36 0 17 7 28 20
31 16 4 20 14 20 52 0 41 -4 49 -29 64 -39 23 -44 22 -37 -7 4 -18 1 -29 -15
-39 -62 -44 -106 57 -48 109 21 19 81 24 112 10 14 -7 17 -3 17 17 0 29 -16
37 -77 37 -60 0 -111 -26 -130 -66 -22 -45 -10 -79 48 -135 55 -53 64 -94 29
-129 -50 -50 -161 0 -114 51 9 10 26 19 37 19 17 0 15 4 -12 35 -36 42 -54
102 -45 153 9 51 77 118 128 127 21 4 48 18 61 31 30 30 69 33 60 5 -3 -11 -1
-22 5 -26 6 -4 10 11 10 41 0 37 -3 45 -12 36 -49 -49 -173 57 -154 133 13 53
81 56 136 5 l30 -28 0 28 c0 24 -5 30 -31 35 -28 6 -57 32 -136 119 -60 65
-147 71 -174 12 -10 -20 -8 -31 8 -58 16 -27 25 -33 54 -33 43 0 50 -25 15
-53 -23 -18 -24 -21 -10 -33 8 -7 24 -30 35 -50 54 -107 -15 -236 -136 -254
-88 -14 -139 -72 -171 -195 -20 -79 -16 -121 24 -230 17 -47 42 -123 56 -170
14 -47 37 -122 50 -166 21 -70 25 -124 9 -124 -3 0 -37 34 -76 76 -49 53 -110
102 -201 162 -72 47 -156 111 -187 141 -68 69 -128 184 -154 297 l-18 82 -25
-29 c-30 -37 -68 -39 -83 -5 -17 37 -4 72 32 85 l31 11 -21 26 c-12 15 -21 36
-21 48 0 11 -20 61 -45 111 -57 114 -78 196 -79 315 -1 86 1 99 26 141 15 26
50 63 78 83 27 20 50 34 50 32 0 -2 -13 -36 -30 -75 -16 -39 -25 -69 -21 -66
5 2 21 35 36 72 28 70 52 106 65 98 5 -3 13 8 18 24 9 26 8 29 -6 24 -9 -4
-29 -15 -44 -25 -32 -22 -42 -23 -59 -2 -9 12 -10 23 -3 43 7 18 7 32 1 43
-18 27 -1 50 35 46 29 -3 33 1 46 34 28 74 -16 121 -78 84 -37 -21 -40 -20
-40 7 0 24 32 60 60 69 32 10 -246 119 -321 125 -52 5 -60 3 -83 -20 -14 -14
-26 -33 -26 -41 0 -18 27 -46 45 -46 22 0 29 22 12 35 -23 17 -21 35 3 35 29
0 54 -43 40 -69 -37 -70 -144 -43 -156 39 -13 88 89 144 204 111 l33 -10 -39
39 c-81 81 -81 193 0 277 107 110 277 25 278 -139 0 -26 -4 -58 -10 -72 -11
-31 -12 -30 29 -10 25 12 38 13 65 4 63 -21 96 -74 96 -155 0 -52 3 -60 34
-89 19 -17 65 -53 104 -80 39 -28 86 -73 108 -103 37 -51 39 -53 42 -28 6 45
-27 182 -67 284 -56 140 -71 197 -71 271 0 76 21 118 77 156 l32 21 -64 92
c-71 104 -110 190 -124 282 -12 74 -56 208 -76 235 -14 17 -14 17 -5 -10 6
-16 9 -30 7 -32 -6 -7 -154 231 -171 276 -21 53 -62 116 -81 124 -11 4 -12 0
-5 -20z m86 -181 c29 -29 45 -83 45 -147 0 -71 -16 -116 -42 -116 -17 0 -17 3
-3 35 22 53 18 120 -8 145 -12 11 -26 20 -31 20 -5 0 -6 11 -3 24 5 19 1 26
-14 31 -11 4 -18 11 -15 16 10 15 52 10 71 -8z m-117 -1374 c32 -57 35 -72 35
-136 -1 -64 -6 -82 -46 -165 -46 -96 -119 -188 -168 -213 -50 -26 -110 -34
-169 -24 -66 12 -105 36 -188 118 -35 34 -67 61 -73 61 -6 0 -26 -7 -46 -15
-69 -29 -82 -125 -24 -180 45 -44 130 -35 130 12 0 12 -8 13 -39 8 -34 -6 -40
-4 -46 15 -16 50 49 64 88 18 39 -46 6 -108 -58 -108 -100 0 -188 117 -155
205 16 42 57 83 97 96 45 15 93 5 177 -37 58 -28 81 -34 135 -34 36 0 82 5
102 10 55 15 140 80 172 131 51 83 46 216 -8 241 -34 15 -40 40 -15 60 32 26
60 9 99 -63z m-169 9 c120 -82 73 -270 -71 -285 -113 -11 -198 114 -145 215
16 30 63 77 86 85 37 13 98 6 130 -15z m-622 -304 c32 -22 30 -78 -3 -100 -60
-39 -127 44 -78 98 20 22 51 23 81 2z m561 -546 c7 -12 17 -55 22 -96 5 -43
17 -88 29 -109 11 -19 20 -37 20 -39 0 -3 -23 15 -51 40 -28 25 -73 54 -100
63 -53 19 -62 31 -53 69 9 37 33 29 86 -28 l48 -53 -21 50 c-11 28 -27 57 -35
66 -8 8 -14 25 -14 37 0 31 50 31 69 0z m-1029 -138 c0 -36 -33 -53 -58 -28
-16 16 -15 23 4 42 12 12 20 13 35 6 10 -6 19 -15 19 -20z m2122 -75 c14 -32
-5 -59 -38 -51 -21 6 -23 2 -29 -62 -7 -79 -32 -191 -46 -212 -13 -18 -3 193
12 260 18 79 77 117 101 65z m-1408 -16 c14 -11 26 -29 26 -40 0 -16 -7 -19
-52 -18 -61 1 -100 10 -105 25 -2 5 6 20 17 32 27 28 78 29 114 1z m1426 -95
c11 -12 10 -18 -3 -32 -16 -15 -18 -15 -33 0 -19 18 -12 48 9 48 8 0 20 -7 27
-16z m-686 -70 c8 -21 -11 -44 -36 -44 -21 0 -33 22 -24 45 7 20 52 19 60 -1z
m756 1 c9 -11 7 -30 -11 -92 -31 -107 -49 -140 -108 -196 -43 -41 -52 -46 -58
-32 -7 19 -7 19 54 94 54 66 85 148 77 201 -6 35 -4 40 13 40 12 0 26 -7 33
-15z m-1070 -124 c0 -12 -9 -22 -22 -27 -13 -3 -31 -13 -40 -22 -23 -19 -24
-2 -3 38 19 36 65 43 65 11z m1184 -13 c7 -13 17 -45 20 -73 5 -42 4 -47 -7
-30 -6 11 -29 35 -49 55 -30 28 -35 38 -27 53 14 24 46 21 63 -5z m-1281 -15
c-20 -72 6 -133 57 -133 26 0 70 38 63 55 -6 17 -44 20 -60 4 -15 -15 -26 5
-18 31 7 23 37 34 71 26 45 -12 70 -100 40 -141 -12 -17 -60 -26 -144 -27 -30
0 -59 27 -67 62 -7 33 8 95 30 128 22 31 37 28 28 -5z m1088 -169 c11 -14 10
-18 -6 -30 -20 -15 -55 -19 -55 -6 0 12 30 52 39 52 5 0 15 -7 22 -16z m-810
-317 c48 -36 51 -104 9 -167 -16 -25 -33 -60 -36 -78 -9 -45 -24 -50 -24 -8 0
20 -3 36 -7 36 -5 0 -32 22 -60 49 -43 39 -53 54 -53 80 0 36 23 86 42 94 25
10 113 6 129 -6z"/>
<path d="M3717 1935 c-42 -53 -122 -95 -182 -96 -43 0 -47 -2 -27 -11 37 -18
127 7 174 50 32 29 77 92 66 92 -2 0 -16 -16 -31 -35z"/>
<path d="M3590 2210 c-50 -50 4 -128 68 -98 38 18 44 79 10 102 -30 21 -54 20
-78 -4z"/>
<path d="M3007 1954 c-10 -11 3 -24 24 -24 10 0 19 7 19 15 0 15 -31 21 -43 9z"/>
<path d="M3832 364 c-28 -19 -28 -47 -1 -90 25 -41 39 -43 39 -6 0 15 7 38 16
50 16 24 13 37 -15 51 -13 7 -24 6 -39 -5z"/>
<path d="M1324 3775 c-7 -18 3 -35 21 -35 8 0 19 -8 24 -17 10 -17 10 -16 11
2 0 23 -26 65 -41 65 -5 0 -12 -7 -15 -15z"/>
<path d="M2909 3747 c-43 -28 -79 -98 -79 -153 0 -56 51 -155 100 -194 21 -17
60 -40 86 -51 62 -28 105 -16 169 46 115 112 120 275 9 321 -55 23 -64 19 -64
-29 0 -49 -24 -83 -66 -93 -32 -8 -28 -34 8 -52 38 -18 75 -1 95 45 9 21 18
32 20 26 14 -40 -73 -137 -132 -149 -49 -9 -85 26 -85 82 0 32 -4 44 -15 44
-8 0 -22 11 -31 25 -14 21 -15 31 -6 51 17 35 39 40 67 14 19 -18 27 -20 44
-11 33 18 27 58 -11 81 -43 26 -67 25 -109 -3z"/>
<path d="M5021 3746 c-70 -39 -56 -128 26 -162 68 -29 73 -24 73 70 0 79 -1
85 -22 91 -48 14 -54 14 -77 1z m77 -69 c4 -20 -25 -34 -40 -19 -15 15 -1 44
19 40 10 -2 19 -11 21 -21z"/>
<path d="M2120 3679 c-69 -21 -150 -27 -187 -15 -21 7 -22 5 -16 -43 5 -44 1
-60 -26 -115 -31 -64 -63 -96 -142 -140 l-39 -23 39 -18 c55 -24 82 -56 88
-103 5 -37 2 -44 -43 -93 -34 -36 -71 -62 -120 -85 -105 -48 -125 -82 -108
-184 5 -29 19 -45 74 -87 69 -53 194 -125 240 -138 14 -4 -3 10 -38 32 -150
92 -208 170 -200 269 5 58 35 104 69 104 63 0 67 -60 4 -71 -28 -6 -41 -59
-26 -108 16 -54 108 -137 210 -190 68 -36 451 -177 451 -166 0 2 -40 33 -90
70 -138 103 -165 144 -136 207 8 18 17 62 18 98 3 54 6 65 22 68 43 9 50 -80
11 -143 -14 -22 -25 -48 -25 -57 0 -35 18 -26 45 23 35 66 32 138 -8 197 -63
90 -202 116 -265 50 -45 -49 -43 -157 5 -193 57 -44 153 20 98 65 -17 15 -35
5 -35 -20 0 -25 -23 -32 -49 -14 -42 30 -21 96 35 110 52 13 117 -28 130 -83
15 -56 -37 -127 -101 -139 -115 -21 -227 148 -180 271 29 77 101 119 185 108
35 -5 39 -3 34 11 -10 25 5 85 27 107 40 40 123 12 117 -39 -3 -25 -6 -27 -40
-24 -35 3 -38 1 -38 -21 0 -35 52 -77 96 -77 32 0 36 -4 68 -68 31 -61 101
-141 113 -129 2 3 -10 25 -28 50 -56 79 -51 183 11 227 37 26 42 25 34 -6 -6
-25 -6 -26 17 -14 13 7 64 15 114 17 73 4 96 1 125 -14 76 -40 102 -132 59
-214 l-20 -40 20 11 c32 16 63 -4 59 -38 -2 -19 -10 -28 -26 -30 -17 -3 -21
-8 -17 -22 7 -23 -19 -50 -50 -50 -30 0 -39 14 -26 38 15 28 7 30 -48 14 l-50
-16 40 -44 c21 -25 44 -62 51 -83 14 -47 22 -49 38 -9 14 33 55 60 90 60 30 0
60 -18 60 -36 0 -13 -2 -13 -22 0 -34 24 -66 19 -100 -14 -27 -28 -30 -36 -26
-79 3 -27 15 -66 28 -87 23 -37 24 -37 31 -13 4 13 10 36 13 52 8 36 70 103
117 127 20 11 39 26 43 35 12 32 6 82 -11 97 -83 75 -83 75 -83 121 0 49 25
91 60 100 32 8 35 -12 6 -42 -43 -44 -28 -121 22 -121 24 0 62 28 62 45 0 21
-19 28 -35 15 -12 -10 -16 -9 -21 4 -18 47 42 73 82 35 13 -12 24 -29 24 -36
0 -30 -31 -71 -62 -83 -18 -8 -34 -15 -36 -16 -2 -1 4 -14 13 -28 20 -29 22
-84 6 -115 -7 -11 -33 -32 -59 -45 -65 -33 -84 -57 -90 -115 -7 -75 4 -99 73
-168 51 -49 67 -72 76 -109 l12 -47 29 34 c15 19 40 58 55 88 48 96 31 231
-32 247 -57 14 -95 -18 -80 -67 5 -16 14 -20 38 -17 32 3 32 2 29 -37 -5 -62
-43 -81 -103 -49 -30 15 -38 52 -9 46 8 -2 28 -6 44 -8 l31 -6 -25 14 c-33 18
-53 61 -45 98 7 30 47 70 70 70 9 0 14 25 16 83 4 75 9 93 47 170 55 111 140
200 238 248 l69 34 -70 7 c-83 8 -226 48 -302 84 -30 14 -101 61 -158 104
-114 85 -145 100 -216 100 -66 0 -109 -36 -109 -90 0 -32 6 -43 33 -63 46 -35
191 -90 215 -83 14 5 25 0 37 -16 l16 -23 16 23 c20 29 33 28 33 -4 0 -17 -6
-28 -20 -31 -11 -3 -20 -9 -20 -14 0 -10 40 -21 66 -19 32 4 37 1 24 -15 -20
-24 -56 -18 -133 25 -40 21 -115 55 -166 74 -102 38 -156 79 -170 131 -17 64
28 132 100 154 47 14 43 29 -11 37 -49 8 -79 37 -60 59 17 21 82 19 111 -3 13
-10 38 -26 54 -35 l30 -18 -30 26 c-52 45 -185 105 -245 112 -59 6 -130 -15
-130 -38 0 -7 3 -9 6 -6 13 12 44 -14 44 -37 0 -37 -24 -51 -60 -36 -32 13
-39 27 -17 36 8 3 12 16 9 33 -4 32 19 61 49 61 11 0 17 5 14 10 -10 16 -84
10 -155 -11z m54 -140 c26 -49 15 -83 -44 -141 -76 -73 -171 -94 -278 -63 -59
18 -61 40 -4 29 35 -7 36 -6 19 10 -22 23 -22 49 2 70 26 24 54 17 66 -18 8
-24 6 -31 -13 -46 -27 -22 -28 -30 -2 -30 45 0 118 22 145 45 25 20 26 23 8
19 -28 -8 -63 28 -63 65 0 82 53 132 115 107 17 -7 39 -28 49 -47z m160 -128
c9 -15 -4 -40 -25 -46 -26 -9 -59 3 -59 21 0 12 4 12 20 4 16 -8 22 -7 32 10
14 22 24 25 32 11z m246 -51 c0 -25 -15 -40 -39 -40 -22 1 -24 2 -8 11 21 12
22 29 2 29 -18 0 -20 17 -2 23 14 5 47 -10 47 -23z m170 -90 c0 -18 -45 -50
-70 -50 -11 0 25 59 44 72 14 10 26 0 26 -22z"/>
<path d="M2054 3495 c-20 -31 -8 -55 13 -25 13 19 17 20 32 6 13 -12 19 -12
34 -2 16 13 16 15 -7 30 -35 22 -53 20 -72 -9z"/>
<path d="M1810 3660 c26 -26 40 -63 39 -98 0 -23 -3 -21 -16 16 -20 57 -52 77
-123 77 -116 0 -235 -85 -380 -269 -44 -55 -96 -121 -117 -145 l-38 -44 40 26
c90 58 235 73 293 30 20 -15 29 -32 34 -68 9 -63 43 -99 94 -99 28 0 42 7 62
29 17 20 21 30 12 33 -7 3 -16 -1 -20 -9 -7 -10 -11 -10 -24 0 -40 34 4 99 59
88 36 -6 27 14 -16 35 -21 11 -83 22 -154 30 -118 11 -181 5 -280 -27 -11 -4
-2 5 20 19 57 37 149 64 249 72 95 7 139 28 158 71 7 16 25 40 41 56 16 15 27
33 24 40 -6 19 -37 20 -58 1 -26 -23 -46 -6 -30 25 26 48 87 51 116 7 15 -22
15 -28 0 -62 -9 -21 -24 -48 -34 -59 -31 -35 -36 -49 -13 -36 28 15 71 68 78
98 5 17 9 21 15 12 11 -18 23 54 15 93 -6 31 -41 78 -58 78 -4 0 1 -9 12 -20z
m-185 -79 c-10 -45 -42 -81 -73 -81 -33 0 -108 -34 -142 -63 -14 -12 2 7 35
42 66 69 133 123 145 116 4 -3 13 2 20 10 18 21 23 12 15 -24z"/>
<path d="M2500 3570 c0 -5 10 -10 23 -10 18 0 19 2 7 10 -19 13 -30 13 -30 0z"/>
<path d="M4198 3535 c5 -11 12 -27 15 -35 5 -13 6 -13 6 1 1 8 -6 24 -15 35
-15 19 -15 19 -6 -1z"/>
<path d="M4221 3474 c-1 -17 42 -139 46 -129 1 6 -8 39 -22 75 -13 36 -24 60
-24 54z"/>
<path d="M1 3380 c0 -85 1 -93 14 -76 26 34 28 80 7 127 l-20 44 -1 -95z"/>
<path d="M3508 3456 c-39 -14 -141 -76 -135 -82 2 -2 21 1 42 7 56 16 108 6
205 -39 88 -41 128 -74 131 -107 5 -45 -2 -66 -23 -74 -16 -6 -5 -10 48 -19
59 -10 141 -33 239 -67 12 -5 4 6 -18 25 -86 73 -91 179 -9 180 23 1 18 6 -30
31 -64 32 -108 37 -228 25 -72 -7 -74 -6 -47 9 31 18 34 40 11 74 -33 47 -113
63 -186 37z m183 -53 c13 -16 12 -17 -3 -4 -17 13 -22 21 -14 21 2 0 10 -8 17
-17z"/>
<path d="M4713 3431 c-70 -33 -105 -113 -81 -187 8 -23 24 -44 40 -53 24 -14
28 -14 48 4 13 12 20 29 18 50 -1 17 2 36 6 43 12 19 53 14 69 -8 14 -20 15
-20 20 10 7 32 40 43 50 16 6 -15 -31 -56 -50 -56 -6 0 -27 -23 -47 -50 -30
-42 -34 -52 -21 -56 9 -4 17 -5 19 -3 1 2 13 19 26 38 48 69 161 98 264 67
l48 -15 -19 21 c-27 31 -112 68 -158 68 -49 1 -112 48 -101 76 11 27 109 15
187 -24 l64 -33 -35 31 c-62 55 -116 74 -215 77 -73 3 -98 0 -132 -16z"/>
<path d="M2750 3436 c0 -2 8 -10 18 -17 15 -13 16 -12 3 4 -13 16 -21 21 -21
13z"/>
<path d="M831 3334 c0 -11 3 -14 6 -6 3 7 2 16 -1 19 -3 4 -6 -2 -5 -13z"/>
<path d="M618 3274 c-12 -11 4 -34 24 -34 13 0 18 6 16 17 -3 18 -29 29 -40
17z"/>
<path d="M4441 3194 c-11 -15 -21 -38 -21 -53 l1 -26 15 28 c8 15 26 32 40 38
14 5 24 15 21 22 -7 22 -35 18 -56 -9z"/>
<path d="M1245 3186 c-65 -30 -110 -68 -139 -120 -38 -66 -43 -98 -6 -44 75
112 193 173 263 137 66 -34 96 -99 77 -169 -12 -46 -42 -70 -87 -70 -41 0 -73
30 -73 68 0 47 49 79 78 50 22 -22 14 -48 -13 -48 -28 0 -34 -15 -10 -24 16
-6 55 26 55 45 0 15 -21 53 -34 61 -34 23 -107 -2 -164 -56 -39 -36 -97 -129
-108 -170 -6 -26 -5 -28 12 -21 39 16 75 17 92 2 15 -13 20 -14 36 -2 10 8 52
22 93 31 70 15 107 15 189 -2 l31 -6 -5 51 c-3 38 0 60 16 89 l20 40 -22 10
c-23 10 -56 67 -56 97 0 31 -20 54 -58 65 -62 17 -132 12 -187 -14z"/>
<path d="M3992 3188 c-20 -20 -14 -43 23 -78 19 -18 32 -37 30 -41 -3 -4 15
-19 39 -33 24 -14 67 -51 97 -83 61 -67 59 -63 -37 77 -39 58 -79 120 -88 138
-17 33 -43 41 -64 20z"/>
<path d="M53 3140 c-27 -11 -28 -18 -8 -40 20 -23 9 -50 -21 -50 -20 0 -24 -5
-24 -30 0 -29 2 -30 45 -30 57 0 103 23 116 57 12 33 4 57 -28 83 -28 22 -45
24 -80 10z"/>
<path d="M2543 3128 c-48 -13 -101 -47 -108 -69 -9 -28 4 -38 19 -16 17 22 29
22 49 -1 26 -29 22 -77 -9 -101 -15 -12 -33 -21 -40 -21 -18 0 -18 -10 2 -38
39 -56 183 0 230 90 18 35 18 72 -1 107 -21 42 -86 64 -142 49z"/>
<path d="M3313 3064 c-121 -60 -273 -268 -273 -374 0 -44 21 -90 41 -90 5 0 9
21 10 48 0 26 4 70 8 98 13 96 117 236 225 306 68 44 63 49 -11 12z"/>
<path d="M2361 3055 c0 -11 8 -45 18 -75 l18 -55 13 28 c13 27 20 31 53 28 9
-1 17 3 17 8 0 11 -15 15 -34 12 -5 -1 -26 15 -48 36 -31 30 -38 34 -37 18z"/>
<path d="M535 3031 c-76 -35 -146 -137 -160 -231 -15 -101 32 -255 96 -319 39
-38 167 -131 181 -131 6 0 -18 27 -52 61 -41 40 -72 83 -92 125 -27 58 -30 73
-27 142 3 63 10 90 36 143 31 62 99 138 163 181 22 15 23 17 6 17 -61 2 -181
-101 -226 -193 -12 -25 -24 -71 -27 -102 -5 -43 -8 -52 -16 -39 -14 25 -2 116
22 170 26 59 60 100 125 148 28 22 53 41 55 43 13 12 -50 1 -84 -15z"/>
<path d="M3585 3033 c-27 -8 -62 -23 -76 -34 -52 -37 -38 -109 22 -109 26 0
29 3 29 35 0 40 39 77 112 106 l43 18 -40 0 c-22 0 -62 -7 -90 -16z"/>
<path d="M734 2980 c-84 -47 -187 -183 -170 -223 2 -7 5 -4 5 6 1 22 86 114
123 133 79 41 223 -1 285 -83 53 -71 67 -208 28 -283 -18 -34 -64 -77 -98 -89
-74 -28 -187 2 -230 60 -67 93 -20 224 86 236 41 5 49 2 77 -25 49 -50 31
-122 -32 -122 -29 0 -30 1 -24 35 5 27 4 35 -8 35 -25 0 -46 -30 -46 -63 1
-57 40 -87 115 -87 128 0 143 153 28 280 -43 49 -86 70 -139 70 -31 0 -45 -8
-80 -45 -77 -80 -85 -196 -21 -327 49 -104 86 -149 148 -183 45 -24 68 -30
139 -33 60 -3 98 1 130 12 l45 15 -85 -82 c-146 -140 -228 -327 -243 -552 -5
-69 -4 -78 8 -61 15 20 35 14 35 -12 0 -35 -40 -81 -114 -132 -42 -29 -76 -54
-76 -56 0 -2 19 4 43 12 115 41 237 25 316 -42 65 -56 48 -28 -34 57 -52 53
-85 97 -107 144 -35 75 -31 100 16 100 20 -1 25 3 19 15 -15 33 -15 205 1 273
32 138 102 237 168 237 73 0 104 -117 47 -178 -37 -40 -93 -16 -87 37 2 21 9
27 36 29 34 3 42 21 18 41 -24 20 -77 9 -98 -19 -25 -34 -48 -178 -47 -297 0
-102 7 -117 59 -128 16 -4 32 -11 35 -16 15 -23 24 -6 10 21 -21 40 -19 57 10
86 21 21 28 23 46 14 26 -15 22 -52 -8 -65 -29 -13 -29 -18 5 -74 42 -69 52
-105 52 -198 0 -46 5 -104 11 -129 15 -57 2 -75 -34 -51 -24 15 -25 15 -30 -4
-8 -32 -38 -19 -70 29 -37 54 -91 82 -177 89 -99 8 -184 -20 -275 -91 -107
-85 -181 -140 -200 -151 -15 -9 -13 -14 19 -48 57 -61 61 -146 9 -208 -68 -80
-203 -78 -203 2 0 24 4 30 18 27 9 -2 18 -13 20 -26 5 -36 48 -29 93 17 33 33
39 45 39 81 0 55 -42 100 -93 100 -48 0 -116 -39 -155 -89 -40 -53 -43 -26 -3
32 15 23 38 61 49 83 18 34 31 45 79 64 109 44 178 82 270 152 249 189 292
311 162 453 -49 53 -86 75 -127 75 -34 0 -52 -16 -52 -46 0 -17 8 -24 30 -29
77 -17 127 -103 117 -203 -6 -73 -32 -123 -98 -196 l-51 -56 -37 22 c-20 12
-53 35 -74 51 l-37 29 10 -26 c6 -16 6 -27 0 -31 -6 -4 -15 6 -21 22 -35 92
-44 102 -134 153 -71 39 -108 108 -108 199 0 42 6 78 16 96 l16 30 1 -27 c0
-58 72 -209 105 -221 10 -4 11 17 7 104 -5 103 -4 111 17 133 l23 24 -64 30
c-57 28 -103 37 -165 33 -20 -1 -23 -6 -23 -46 0 -44 1 -45 33 -45 l32 -1 -33
-27 c-29 -24 -32 -33 -32 -78 0 -43 3 -53 20 -57 27 -7 27 -53 0 -69 -14 -9
-20 -24 -20 -50 0 -36 1 -37 20 -26 25 16 54 1 58 -30 5 -32 40 -52 90 -52 30
0 44 -5 49 -17 8 -20 -39 -63 -69 -63 -29 0 -79 26 -116 60 l-32 29 0 -60 c0
-32 4 -59 9 -59 16 0 51 -66 51 -96 0 -34 -25 -74 -46 -74 -8 0 -14 -10 -14
-25 0 -22 3 -24 33 -18 17 3 54 17 80 30 44 22 48 22 45 6 -4 -20 -66 -58
-120 -73 -44 -12 -47 -21 -16 -35 31 -13 36 -51 9 -60 -29 -9 -27 -15 21 -70
89 -101 161 -142 282 -159 36 -5 43 -2 77 34 45 47 66 108 74 215 12 161 40
237 105 284 77 56 186 64 257 20 75 -47 96 -159 44 -241 -16 -25 -34 -49 -40
-52 -6 -4 -8 -19 -5 -34 6 -28 5 -28 -46 -29 -55 -1 -66 -5 -55 -22 4 -8 12
-8 26 -1 31 17 23 -5 -17 -50 -37 -41 -72 -59 -83 -43 -3 6 -14 2 -25 -8 -18
-18 -18 -19 10 -30 16 -7 67 -15 112 -18 77 -6 86 -9 112 -37 38 -43 57 -143
40 -214 -7 -27 -15 -52 -19 -54 -3 -2 -6 28 -6 68 0 88 -22 134 -56 115 -27
-14 -51 5 -43 36 5 19 -1 25 -35 38 -22 9 -67 21 -100 26 -134 22 -153 55 -58
100 35 17 76 43 91 57 24 24 25 29 11 44 -19 21 -19 47 0 80 21 36 19 84 -5
105 -27 24 -25 35 4 35 38 0 66 -43 66 -101 0 -53 4 -57 38 -33 69 48 68 148
-3 214 -22 21 -36 25 -88 25 -78 0 -116 -26 -154 -103 -22 -45 -27 -70 -29
-155 l-3 -102 14 55 c17 66 55 106 86 90 21 -12 25 -40 8 -73 -6 -12 -59 -71
-117 -130 -85 -87 -103 -110 -92 -118 27 -18 129 -69 138 -69 5 0 7 10 5 23
-3 14 2 29 12 37 14 11 20 10 43 -7 45 -33 91 -101 108 -161 20 -68 8 -136
-32 -189 l-26 -34 39 16 c60 25 232 123 298 170 119 84 188 181 189 267 1 50
-18 85 -67 122 -53 39 -160 19 -206 -40 -27 -34 -27 -75 0 -140 13 -31 19 -59
15 -71 -6 -15 -10 -13 -22 16 -8 18 -28 49 -44 68 -25 28 -30 42 -30 84 0 63
18 105 66 159 53 59 112 97 180 116 75 20 128 8 184 -42 72 -65 89 -173 45
-291 l-25 -68 46 52 c40 46 114 93 146 93 14 0 -1 -130 -18 -157 -48 -76 -173
-162 -419 -289 -215 -111 -244 -137 -266 -237 -8 -34 -14 -93 -14 -132 0 -57
3 -70 17 -73 10 -2 19 5 23 18 8 25 54 50 93 50 29 0 82 -39 82 -60 0 -6 34
-10 91 -10 85 0 92 2 111 25 58 74 178 74 236 0 19 -24 62 -35 62 -16 0 4 -15
28 -33 52 -71 93 -138 192 -147 215 -14 35 9 31 46 -7 37 -40 68 -55 179 -91
106 -34 181 -82 215 -137 l25 -40 68 -1 68 0 -18 31 c-18 31 -74 85 -107 104
-21 12 -12 45 12 45 27 0 120 -79 148 -125 28 -48 32 -50 37 -19 7 50 12 50
128 -5 47 -22 81 -31 117 -31 45 0 56 4 90 37 29 28 42 49 47 80 14 86 -50
245 -143 353 -62 73 -187 187 -213 195 -31 10 -59 -21 -59 -65 0 -45 16 -63
42 -49 25 13 68 -13 68 -41 0 -32 -37 -63 -68 -56 -34 8 -88 68 -95 105 -8 38
9 97 35 123 40 40 121 8 238 -96 36 -32 33 -28 -12 20 -54 56 -70 84 -49 84
23 0 43 -15 57 -41 8 -16 50 -75 95 -131 131 -168 194 -321 187 -454 l-3 -64
155 1 155 0 -57 18 c-151 49 -226 149 -167 225 35 44 89 30 89 -24 0 -30 -17
-50 -42 -50 -25 0 -23 -9 9 -42 32 -33 43 -36 36 -8 -4 15 0 20 15 20 46 0 73
-33 37 -46 -27 -11 -16 -21 50 -49 36 -16 65 -32 65 -37 0 -4 61 -8 136 -8
114 0 135 2 131 14 -9 24 13 89 41 120 29 31 79 56 113 56 41 0 88 -30 99 -64
6 -18 22 -42 35 -54 13 -12 27 -33 31 -47 5 -20 12 -25 37 -25 29 0 30 0 12
20 -13 14 -16 30 -12 59 4 33 2 40 -14 44 -11 3 -19 14 -19 26 0 16 6 21 29
21 17 0 31 6 35 15 8 21 83 54 121 55 l30 0 -33 20 c-33 21 -62 71 -62 110 0
12 18 40 40 62 22 23 40 45 40 49 0 20 35 39 70 39 48 0 70 28 44 54 -8 9 -22
16 -29 16 -20 0 -80 -55 -106 -96 -27 -45 -66 -64 -127 -64 -63 0 -122 21
-181 64 l-47 33 -23 -56 c-13 -31 -42 -83 -66 -116 -120 -169 -325 -149 -325
30 0 35 6 52 25 70 33 34 79 33 101 0 20 -30 47 -32 74 -5 27 27 25 73 -3 106
-47 54 -161 40 -224 -28 -61 -65 -83 -193 -49 -287 33 -90 132 -190 175 -176
28 8 27 28 -1 40 -48 21 -12 67 39 49 38 -13 52 -54 29 -89 -50 -77 -181 -44
-254 64 -42 61 -62 121 -69 204 -4 48 -9 65 -16 58 -18 -18 -45 -12 -66 15
-27 34 -27 64 0 98 16 21 28 26 53 24 25 -2 31 -7 31 -27 0 -17 -9 -29 -32
-40 -18 -9 -33 -22 -33 -28 0 -19 17 -16 29 4 7 14 12 15 23 5 12 -10 17 -5
28 28 18 55 73 116 137 152 51 29 53 31 37 49 -9 10 -26 21 -38 25 -25 8 -36
23 -29 41 10 25 33 13 65 -37 31 -47 35 -50 78 -50 88 0 150 -59 150 -143 0
-77 -54 -137 -123 -137 -24 0 -48 7 -59 17 -28 26 -43 4 -28 -41 13 -41 35
-56 80 -56 70 0 149 68 203 175 41 84 41 89 4 142 -19 26 -52 82 -72 123 -21
41 -49 89 -62 107 -36 47 -63 126 -63 186 0 53 19 97 63 144 51 56 -53 -8
-129 -79 -17 -16 -47 -31 -69 -35 l-38 -6 5 32 c6 41 -9 36 -44 -15 -59 -83
-87 -249 -54 -312 8 -15 30 -43 50 -61 46 -45 47 -61 2 -51 -41 9 -58 19 -51
30 7 12 -63 -6 -81 -21 -10 -8 -18 -9 -25 -2 -15 15 0 42 27 49 13 3 24 7 24
9 0 2 -33 35 -73 73 -127 124 -184 246 -196 422 l-7 105 -8 -78 c-5 -43 -7
-117 -4 -166 3 -72 9 -95 31 -134 15 -25 41 -54 57 -64 20 -11 30 -25 30 -41
0 -21 -4 -23 -37 -20 -35 3 -40 7 -65 58 -31 63 -58 201 -58 300 0 101 18 170
66 257 116 204 140 280 115 356 -17 51 -34 62 -71 47 -62 -26 -110 17 -110 98
0 52 32 82 87 82 81 0 128 -70 140 -206 3 -41 9 -74 12 -74 11 0 118 114 124
132 9 27 -12 87 -36 102 -12 8 -40 17 -62 21 -45 8 -55 18 -55 58 0 62 84 99
138 61 30 -21 28 -38 -3 -30 -17 4 -31 0 -45 -14 -25 -25 -25 -37 1 -45 42
-14 89 -66 95 -106 4 -21 10 -39 13 -39 12 0 49 73 56 111 18 97 -62 207 -114
157 -10 -11 -12 -9 -9 7 2 10 15 26 30 34 89 50 162 -110 113 -248 -17 -50
-10 -55 11 -6 10 24 14 72 14 157 0 137 -13 180 -68 231 -51 49 -164 62 -239
28 -49 -23 -67 -51 -60 -95 21 -133 -95 -248 -252 -248 -58 0 -84 6 -150 35
-74 32 -79 33 -69 13 6 -11 36 -48 67 -80 44 -46 76 -69 148 -102 143 -68 193
-121 193 -206 0 -110 -119 -169 -190 -93 -21 23 -22 28 -12 79 14 68 3 110
-41 161 -29 34 -39 39 -88 43 -73 6 -110 -14 -138 -71 -22 -46 -28 -118 -12
-160 5 -13 23 -29 39 -36 64 -27 172 34 172 96 0 61 -59 96 -97 58 -12 -12
-18 -13 -29 -4 -36 30 1 79 59 79 71 0 128 -83 113 -165 -9 -44 -57 -99 -131
-151 -30 -20 -53 -39 -51 -41 1 -2 32 4 67 13 42 11 87 15 134 11 69 -4 155
-31 155 -48 0 -4 -53 -5 -117 -2 -132 6 -212 -8 -291 -52 -24 -14 -62 -30 -85
-36 -30 -8 -37 -13 -26 -20 12 -8 11 -11 -5 -20 -26 -16 -97 -81 -93 -85 6 -6
107 30 155 55 78 40 172 22 210 -39 31 -51 -34 -69 -135 -36 -35 11 -28 -9 11
-33 56 -35 134 -21 194 34 31 29 35 37 26 52 -11 17 -22 20 -53 12 -22 -6 -25
30 -5 52 25 28 58 24 89 -13 51 -60 17 -145 -77 -192 -96 -48 -182 -31 -242
49 -22 29 -34 35 -63 35 -60 0 -119 -35 -137 -81 -28 -70 -23 -81 49 -117 l65
-32 0 30 c0 31 22 50 57 50 17 -1 17 -2 -1 -15 -26 -20 -15 -28 18 -15 37 14
46 13 46 -5 0 -9 -12 -20 -27 -25 -70 -26 -72 -22 48 -90 110 -63 116 -65 184
-65 96 0 145 24 165 83 19 54 30 54 30 -2 0 -54 -31 -102 -85 -130 -36 -19
-54 -21 -172 -18 -151 3 -183 -6 -202 -59 -9 -28 -7 -40 14 -87 28 -61 26 -75
-6 -46 -32 29 -49 69 -49 114 0 33 -3 40 -17 38 -15 -3 -18 5 -18 46 0 35 5
52 17 60 22 13 35 1 19 -18 -17 -20 3 -30 30 -15 12 6 42 14 68 18 l46 7 -116
62 c-64 34 -179 91 -255 127 -163 78 -253 136 -318 205 -150 161 -123 361 62
452 64 32 72 33 182 33 99 0 122 -3 165 -23 91 -42 136 -105 134 -189 l-1 -48
-9 43 c-15 79 -75 130 -171 147 l-36 7 43 -45 c84 -88 105 -208 55 -308 -26
-52 -18 -44 35 31 61 85 141 175 186 206 l41 28 -33 11 c-50 17 -69 56 -69
145 0 41 5 92 10 112 12 40 61 88 91 88 39 0 17 18 -63 51 -72 29 -95 33 -177
34 -103 1 -121 11 -75 42 20 12 46 18 88 17 l61 -1 -40 14 c-47 16 -85 55 -85
88 0 28 12 38 35 29 13 -5 15 -14 11 -35 -5 -27 -3 -29 24 -29 21 0 36 -9 57
-35 16 -21 54 -49 89 -65 34 -17 76 -46 93 -65 17 -19 36 -35 42 -35 6 0 -9
22 -34 49 -106 113 -160 229 -160 341 0 110 39 192 108 227 l30 16 -28 -36
c-34 -44 -67 -115 -67 -142 0 -12 9 -2 21 24 28 63 84 128 129 151 45 23 50
24 50 9 0 -6 -21 -30 -46 -52 -92 -81 -118 -195 -69 -294 38 -75 94 -104 112
-58 8 22 -16 73 -26 57 -11 -18 -31 30 -31 73 0 25 8 40 31 59 35 30 58 32 98
11 33 -16 41 -33 41 -80 0 -34 -36 -75 -66 -75 -8 0 -14 -10 -14 -22 0 -13 -9
-38 -20 -56 l-20 -33 35 -14 c45 -20 156 -19 203 0 82 35 114 88 122 205 5 82
6 85 39 107 41 28 87 29 161 3 30 -10 56 -17 58 -16 10 11 -348 124 -443 140
-67 12 -88 27 -45 34 41 7 18 22 -32 22 -90 1 -243 41 -403 106 -17 7 -15 2 8
-25 53 -64 73 -127 58 -191 -8 -39 -13 -30 -26 45 -25 150 -202 268 -400 269
-101 1 -154 -24 -187 -87 -65 -124 14 -317 162 -396 117 -63 246 -53 327 24
47 46 58 81 21 72 -30 -8 -48 9 -48 46 0 47 -44 113 -98 144 -89 53 -223 32
-253 -39 -13 -32 -35 -37 -44 -9 -8 27 9 64 45 94 27 23 41 27 99 27 37 0 89
-7 115 -16 58 -20 151 -103 168 -150 10 -29 17 -34 43 -34 62 0 80 -51 46
-125 -41 -90 -130 -130 -275 -122 -50 2 -115 13 -145 23 -72 24 -186 107 -233
169 -57 75 -69 120 -77 295 -9 180 -23 222 -90 283 -74 67 -135 75 -217 27z
m797 -509 c21 -22 29 -39 29 -66 0 -48 -44 -95 -90 -95 -46 0 -90 47 -90 95 0
48 44 95 90 95 22 0 41 -9 61 -29z m591 -1 c56 -16 112 -85 134 -167 10 -36
29 -79 42 -95 29 -35 24 -73 -13 -90 -20 -9 -28 -8 -43 5 -16 15 -20 15 -47
-3 -17 -11 -41 -20 -55 -20 -24 1 -24 1 5 14 41 18 83 69 91 111 19 105 -55
195 -160 195 -36 0 -52 -6 -79 -30 -19 -16 -42 -44 -51 -62 l-17 -33 7 45 c9
64 33 100 79 121 47 22 57 22 107 9z m256 -172 c2 -20 -4 -31 -22 -43 -34 -22
-56 -13 -56 23 0 36 18 54 50 50 19 -2 26 -10 28 -30z m250 -24 c23 -16 27
-31 13 -52 -6 -11 -17 -11 -51 -2 -29 8 -51 8 -71 1 -27 -9 -29 -8 -29 14 0
31 35 55 80 55 20 0 46 -7 58 -16z m-1134 -254 c75 -133 5 -270 -139 -270 -91
0 -164 67 -172 158 -8 89 51 152 143 152 l40 0 1 -50 c1 -61 -22 -82 -62 -56
-22 14 -25 14 -39 0 -42 -42 2 -113 75 -121 41 -5 50 -2 82 27 60 52 62 140 7
204 -40 45 -39 65 2 34 17 -13 45 -49 62 -78z m65 59 c-12 -24 -39 -25 -39 -1
0 27 21 44 37 31 9 -8 10 -16 2 -30z m-400 -87 c14 -26 -13 -64 -42 -60 -26 4
-37 56 -15 69 22 14 47 10 57 -9z m622 -81 c44 -44 51 -84 24 -149 -26 -60
-52 -82 -102 -82 -36 0 -43 3 -43 19 0 20 18 31 54 31 12 0 33 12 47 28 l24
27 -26 -22 c-35 -32 -44 -29 -18 6 16 22 19 36 14 60 -13 59 -99 79 -126 30
-16 -31 3 -69 36 -69 14 0 25 -4 25 -10 0 -18 -53 -10 -77 12 -35 32 -32 91 6
129 24 24 38 29 76 29 42 0 52 -5 86 -39z m-781 -70 c14 -27 13 -29 -14 -24
-13 3 -33 0 -45 -6 -17 -10 -21 -9 -21 3 0 21 28 46 50 46 11 0 24 -9 30 -19z
m-821 -500 c19 -6 55 -11 80 -11 42 0 44 -1 29 -16 -9 -9 -36 -19 -61 -21 -59
-7 -128 25 -157 71 -32 52 -24 59 28 22 26 -18 62 -38 81 -45z m1754 12 c11
-10 -13 -33 -34 -33 -24 0 -25 16 -1 29 20 12 27 13 35 4z m-718 -143 c0 -11
-17 -17 -64 -22 -78 -9 -131 -29 -192 -73 -40 -29 -46 -30 -41 -13 10 39 70
87 134 107 74 24 163 24 163 1z m-950 -166 c20 -20 16 -53 -7 -68 -40 -24 -80
44 -42 71 23 17 29 16 49 -3z m1726 -44 c19 -60 51 -93 83 -88 31 5 32 36 2
48 -14 5 -26 11 -26 14 0 20 16 36 38 36 62 0 86 -80 36 -119 -68 -53 -154 3
-179 116 -7 35 0 56 18 50 5 -1 18 -28 28 -57z m880 -29 c38 -38 43 -84 11
-108 -26 -21 -33 -15 -30 28 2 43 -10 59 -48 59 -13 0 -24 -8 -27 -20 -6 -25
-52 -28 -61 -4 -14 36 27 74 81 74 36 0 50 -6 74 -29z m-1280 -127 c5 -49 17
-111 25 -139 56 -172 205 -344 372 -429 29 -14 52 -31 52 -36 0 -38 -103 0
-199 74 -78 60 -150 141 -221 249 -67 99 -85 160 -78 258 5 62 23 127 34 117
2 -3 9 -45 15 -94z m-449 69 c40 -36 4 -123 -52 -123 -49 0 -81 50 -59 92 26
48 76 63 111 31z m618 -275 c47 -126 153 -242 273 -301 43 -20 62 -24 109 -20
57 5 59 5 98 -35 46 -46 49 -64 15 -97 -40 -41 -115 -24 -115 27 0 22 8 23 31
2 22 -20 39 -11 39 21 0 18 -7 26 -26 31 -38 10 -74 -28 -74 -78 0 -31 -4 -38
-20 -38 -27 0 -43 36 -37 82 5 38 4 39 -46 65 -65 32 -151 98 -200 152 -104
115 -160 337 -101 402 19 21 19 21 26 -67 3 -52 15 -113 28 -146z m1144 180
c15 -25 -4 -52 -38 -56 -32 -4 -56 13 -56 39 0 38 72 51 94 17z m-486 -59 c58
-45 80 -119 46 -153 -18 -18 -17 -18 -38 -10 -22 9 -20 41 4 54 29 15 25 37
-16 86 -38 48 -37 56 4 23z m-143 -9 c3 -5 15 -10 26 -10 25 0 44 -40 35 -75
-9 -35 -34 -43 -55 -18 -9 11 -24 23 -33 26 -9 3 -21 14 -27 25 -18 33 34 84
54 52z m-1240 -34 c24 -36 10 -71 -57 -140 l-59 -61 17 40 c9 22 25 68 35 102
26 93 36 102 64 59z m476 -46 c10 -6 35 -43 55 -83 20 -40 56 -99 79 -132 75
-105 237 -246 333 -289 45 -20 47 -23 33 -45 -8 -12 -17 -11 -60 7 -191 79
-459 337 -503 485 -11 35 -10 41 7 53 23 17 30 17 56 4z m-183 -180 c23 -22
38 -63 28 -79 -4 -5 8 -3 25 6 33 17 83 14 134 -8 29 -12 29 -13 -36 -20 -39
-4 -87 -18 -118 -34 -33 -16 -65 -25 -84 -23 -28 3 -32 7 -32 33 0 25 5 31 30
35 34 6 39 27 10 45 -28 18 -60 3 -85 -37 -26 -43 -25 -92 1 -130 30 -41 13
-58 -35 -36 -49 24 -74 91 -56 151 14 48 32 72 75 98 41 26 115 25 143 -1z
m1942 -83 c32 -65 37 -101 18 -142 -13 -28 -39 -38 -89 -33 -27 2 -35 8 -37
27 -3 15 3 30 14 38 24 18 30 17 55 -8 17 -17 23 -19 30 -8 17 28 9 87 -21
144 -34 65 -36 73 -15 55 8 -6 28 -39 45 -73z m145 -22 c0 -14 -8 -21 -27 -23
-22 -3 -28 1 -28 17 0 10 6 22 13 24 23 10 42 2 42 -18z m-2359 -101 c29 -36
38 -95 20 -138 -20 -49 -56 -70 -106 -62 -22 3 -57 9 -78 12 -33 5 -43 2 -70
-24 -32 -30 -32 -30 -32 -6 0 41 39 129 76 173 70 81 146 99 190 45z m261 -71
c-10 -51 -26 -83 -42 -83 -21 0 -20 68 2 92 25 28 47 23 40 -9z"/>
<path d="M1434 2419 c-3 -6 0 -18 9 -26 18 -18 37 -9 37 18 0 21 -34 27 -46 8z"/>
<path d="M1087 867 c-3 -8 -1 -20 4 -28 10 -17 44 0 44 22 0 19 -41 24 -48 6z"/>
<path d="M915 235 c-14 -13 -25 -31 -25 -39 0 -16 68 -56 95 -56 41 0 73 78
43 108 -22 22 -86 14 -113 -13z"/>
<path d="M5040 2928 c-67 -34 -96 -89 -114 -218 -9 -58 -29 -143 -46 -189 -17
-47 -38 -114 -46 -150 -9 -36 -25 -82 -37 -101 l-21 -35 40 36 c60 53 119 73
201 66 38 -2 76 -8 86 -12 16 -7 17 2 17 109 0 108 -1 116 -19 116 -21 0 -71
-53 -71 -75 0 -29 13 -44 46 -55 38 -13 44 -34 15 -50 -31 -16 -83 -12 -117 9
-105 64 -35 270 106 312 33 10 40 16 40 38 0 18 -9 31 -30 43 -53 30 -50 110
5 124 18 4 25 13 25 30 0 31 -22 31 -80 2z m-26 -180 c8 -14 7 -21 -5 -33 -14
-14 -18 -14 -39 3 -21 17 -23 22 -11 36 17 20 40 17 55 -6z"/>
<path d="M4581 2914 c-25 -32 -26 -55 -6 -94 21 -40 67 -42 92 -4 16 25 16 27
-7 44 -26 19 -22 57 5 46 18 -7 20 5 3 22 -21 21 -65 14 -87 -14z"/>
<path d="M5094 2855 c-8 -19 2 -45 16 -45 5 0 10 14 10 30 0 31 -16 41 -26 15z"/>
<path d="M2280 2833 c0 -14 -9 -52 -21 -83 -20 -56 -20 -59 -4 -94 17 -35 168
-186 186 -186 5 0 2 14 -7 32 -16 30 -15 45 2 126 6 31 5 34 -17 30 -15 -2
-25 -12 -29 -28 l-6 -24 -17 24 c-22 32 -22 53 2 74 50 45 129 -9 105 -72
l-11 -29 43 1 c52 1 80 -22 134 -114 39 -65 131 -182 138 -175 11 11 -24 110
-50 142 -34 43 -63 98 -84 157 -18 50 -61 114 -86 127 -12 6 -24 6 -37 -3 -26
-16 -54 6 -48 39 4 21 0 23 -32 23 -20 0 -64 13 -98 30 l-63 29 0 -26z"/>
<path d="M4061 2836 c-8 -10 -8 -16 2 -25 16 -13 27 -5 27 21 0 21 -13 23 -29
4z"/>
<path d="M4505 2820 c-3 -6 1 -13 10 -16 19 -8 30 0 20 15 -8 14 -22 14 -30 1z"/>
<path d="M1413 2813 c9 -2 23 -2 30 0 6 3 -1 5 -18 5 -16 0 -22 -2 -12 -5z"/>
<path d="M1511 2792 c31 -10 61 -22 67 -26 7 -4 12 -5 12 -2 0 11 -56 34 -95
40 -34 6 -32 4 16 -12z"/>
<path d="M3761 2774 c-53 -68 -4 -173 81 -174 66 0 92 51 63 125 -20 53 -47
75 -91 75 -23 0 -39 -8 -53 -26z m93 -54 c15 -15 -3 -40 -28 -40 -30 0 -51 31
-34 48 12 12 45 7 62 -8z"/>
<path d="M32 2749 c-29 -9 -32 -13 -32 -47 1 -30 3 -34 11 -19 11 19 44 23 54
6 13 -20 -6 -59 -35 -74 -29 -15 -30 -18 -30 -84 0 -71 6 -81 49 -81 51 0 142
-97 127 -136 -10 -26 -52 -17 -66 15 -16 39 -40 59 -78 67 l-32 7 0 -77 c0
-69 2 -76 20 -76 28 0 27 -43 -2 -63 -37 -25 -10 -37 98 -44 118 -7 155 2 246
57 65 39 132 58 163 46 13 -5 12 -12 -10 -55 -14 -27 -28 -64 -31 -83 -18
-106 117 -170 201 -97 25 22 35 27 35 16 0 -26 -43 -67 -84 -81 l-40 -14 31
-15 c33 -17 70 -62 100 -121 l20 -39 7 83 c8 93 44 215 81 272 14 20 46 57 71
82 l47 45 -44 -11 c-24 -6 -84 -11 -134 -11 -101 0 -184 19 -255 61 -57 32
-143 114 -183 171 -27 40 -31 42 -38 24 -16 -44 -89 -69 -117 -41 -15 15 -16
50 -1 65 8 8 8 13 -1 18 -7 4 -14 -1 -17 -14 -6 -25 -48 -29 -57 -5 -29 75 55
116 108 53 23 -26 29 -29 42 -18 22 18 3 98 -38 160 -31 48 -124 77 -186 58z
m184 -493 c9 -23 -12 -52 -50 -70 -65 -31 -72 -19 -20 34 52 53 62 58 70 36z
m494 -126 c11 -11 20 -31 20 -45 0 -23 -2 -24 -21 -15 -16 9 -24 8 -37 -3 -30
-25 -40 -27 -56 -11 -34 33 -2 94 49 94 14 0 34 -9 45 -20z"/>
<path d="M1085 2719 c-4 -22 -5 -42 -3 -45 3 -2 17 13 31 33 20 27 23 39 14
45 -24 16 -35 7 -42 -33z"/>
<path d="M325 2688 c17 -62 48 -136 66 -158 17 -21 17 -18 -4 25 -13 28 -32
74 -41 103 -17 51 -34 75 -21 30z"/>
<path d="M1107 2630 c-12 -56 32 -216 65 -236 5 -3 0 13 -12 36 -27 53 -51
164 -43 202 3 15 3 28 1 28 -3 0 -8 -13 -11 -30z"/>
<path d="M5045 2587 c-25 -24 -45 -50 -45 -58 0 -7 11 3 25 23 14 21 39 42 60
49 36 13 47 29 20 29 -8 0 -35 -19 -60 -43z"/>
<path d="M3974 2557 c-74 -43 -93 -50 -131 -51 -23 -1 -41 -2 -40 -3 5 -4 256
-102 277 -108 23 -6 22 -5 -5 13 -56 35 -64 58 -41 113 4 10 0 23 -9 33 -20
19 -24 19 -51 3z"/>
<path d="M2491 2532 c-18 -34 10 -65 102 -113 48 -26 87 -45 87 -44 0 2 -15
21 -32 43 -18 21 -48 60 -65 86 -35 50 -74 62 -92 28z"/>
<path d="M3202 2484 c4 -57 14 -89 50 -165 53 -113 67 -126 107 -110 35 15 51
48 51 104 0 60 -35 115 -95 150 -27 16 -65 43 -84 60 l-33 32 4 -71z m169
-180 c17 -21 0 -49 -32 -49 -27 0 -37 28 -19 50 16 19 34 19 51 -1z"/>
<path d="M4102 2498 c-28 -28 -12 -64 53 -118 29 -25 29 -25 -4 14 -28 34 -32
43 -26 77 7 40 -1 49 -23 27z"/>
<path d="M460 2382 c0 -10 33 -40 78 -71 47 -33 39 -21 -23 33 -30 26 -55 43
-55 38z"/>
<path d="M569 2346 c14 -16 115 -62 156 -71 17 -3 -12 15 -64 40 -103 49 -109
51 -92 31z"/>
<path d="M2826 2310 c9 -30 19 -59 22 -64 2 -5 8 -45 11 -90 l6 -81 18 32 c33
62 18 154 -38 218 l-34 40 15 -55z"/>
<path d="M4085 2307 c30 -30 35 -42 35 -82 0 -42 -4 -52 -37 -83 l-38 -35 30
8 c17 5 42 9 58 9 15 1 27 6 27 12 0 5 14 20 30 33 23 16 29 28 25 42 -5 15
-2 19 19 19 45 0 44 -36 -2 -84 -101 -104 -125 -241 -55 -311 41 -40 96 -32
156 23 37 35 34 46 -5 22 -59 -36 -158 -18 -158 28 0 14 11 17 62 20 70 3 100
18 128 65 58 95 -27 245 -173 305 -40 17 -87 33 -104 37 l-32 6 34 -34z m223
-243 c26 -18 29 -60 5 -86 -24 -27 -33 -22 -20 12 16 41 -1 59 -39 41 -40 -18
-58 3 -25 30 28 23 49 24 79 3z"/>
<path d="M1841 2314 c0 -11 3 -14 6 -6 3 7 2 16 -1 19 -3 4 -6 -2 -5 -13z"/>
<path d="M2064 2266 c-10 -26 4 -48 28 -44 17 2 23 10 23 28 0 18 -6 26 -23
28 -13 2 -25 -3 -28 -12z"/>
<path d="M4822 2225 c-29 -21 -69 -80 -125 -185 -45 -85 -67 -147 -48 -136 5
4 32 46 60 94 66 113 119 183 156 202 17 8 32 16 35 18 7 5 -24 22 -40 22 -9
0 -25 -7 -38 -15z"/>
<path d="M410 2122 c-95 -95 -238 -113 -392 -47 -15 6 -18 2 -18 -26 0 -34 1
-34 48 -36 93 -4 219 -71 267 -141 25 -36 33 -72 16 -72 -4 0 -20 9 -34 20
-22 18 -57 27 -57 16 0 -2 9 -25 19 -49 11 -25 22 -67 26 -94 18 -134 60 -218
143 -285 55 -45 61 -42 91 49 27 80 27 148 1 191 -16 26 -26 32 -55 32 -28 0
-37 -5 -45 -24 -13 -34 -28 -41 -51 -20 -30 27 -25 77 12 108 17 14 37 26 45
26 12 0 11 6 -5 26 -12 15 -21 40 -21 56 0 33 39 78 68 78 32 0 33 12 5 42
-26 27 -28 36 -28 109 0 43 0 78 0 78 0 -1 -16 -18 -35 -37z m-82 -145 c21
-44 27 -97 11 -97 -17 1 -69 84 -69 111 0 31 42 21 58 -14z"/>
<path d="M4873 2134 c-6 -17 14 -36 32 -31 6 2 11 13 13 25 3 17 -2 22 -18 22
-11 0 -23 -7 -27 -16z"/>
<path d="M2842 1970 c-19 -35 -27 -58 -19 -51 17 13 60 99 55 109 -2 4 -18
-22 -36 -58z"/>
<path d="M4056 1969 c-3 -17 -6 -71 -6 -120 0 -87 -1 -89 -26 -95 -18 -5 -31
-1 -48 15 -30 28 -35 27 -52 -14 -19 -45 -18 -148 2 -216 21 -72 78 -180 113
-213 l27 -26 -7 68 c-10 89 6 222 37 299 l25 63 -27 68 c-21 51 -28 83 -28
135 0 37 -1 67 -2 67 -1 0 -4 -14 -8 -31z"/>
<path d="M5073 1924 c-29 -22 -60 -90 -48 -102 8 -8 33 18 39 42 3 12 17 28
31 34 15 7 25 20 25 32 0 26 -8 25 -47 -6z"/>
<path d="M2316 1891 c-10 -16 5 -41 24 -41 23 0 32 13 24 34 -7 17 -39 22 -48
7z"/>
<path d="M2950 1820 c0 -5 7 -10 15 -10 8 0 15 5 15 10 0 6 -7 10 -15 10 -8 0
-15 -4 -15 -10z"/>
<path d="M5078 1814 c-34 -18 -36 -38 -6 -58 38 -27 48 -20 48 29 0 49 -2 51
-42 29z"/>
<path d="M2220 1724 c15 -40 12 -82 -7 -93 -17 -10 -17 -12 1 -26 37 -28 86 4
86 56 0 33 -44 89 -71 89 -16 0 -17 -4 -9 -26z"/>
<path d="M916 1578 c27 -70 54 -111 120 -183 l45 -50 -4 102 c-4 102 -14 133
-43 133 -8 0 -20 -11 -26 -25 -8 -18 -18 -25 -32 -23 -18 3 -21 10 -21 48 0
38 -3 45 -20 45 -11 1 -25 4 -32 8 -6 4 -1 -21 13 -55z"/>
<path d="M5000 1597 c0 -21 53 -66 88 -76 44 -13 40 0 -14 48 -48 42 -74 52
-74 28z"/>
<path d="M1365 1588 c-80 -28 -134 -103 -135 -185 0 -64 53 -158 122 -213 44
-35 190 -122 250 -148 5 -2 8 10 8 27 0 17 9 54 20 83 11 28 18 54 16 56 -2 2
-23 -6 -47 -18 -61 -32 -160 -26 -218 13 -99 65 -120 190 -46 264 40 40 90 44
141 12 36 -22 48 -48 42 -95 -6 -56 -93 -59 -93 -3 0 20 5 24 28 22 20 -1 27
3 27 17 0 19 -19 30 -50 30 -28 0 -70 -56 -70 -93 0 -51 33 -94 80 -107 92
-25 180 40 180 132 0 44 -13 62 -38 56 -12 -3 -30 1 -42 9 -17 12 -19 18 -9
29 6 8 22 14 35 14 34 0 31 32 -6 64 -51 42 -131 56 -195 34z"/>
<path d="M4382 1208 c5 -15 28 -18 29 -3 0 6 -7 12 -17 13 -10 3 -15 -1 -12
-10z"/>
<path d="M3043 1168 c-18 -18 -37 -46 -42 -61 -13 -34 -13 -144 -1 -172 7 -14
8 -9 4 18 -14 86 26 184 92 228 l29 19 -26 0 c-15 0 -37 -12 -56 -32z"/>
<path d="M3997 1163 c-12 -11 -8 -23 8 -23 8 0 15 7 15 15 0 16 -12 20 -23 8z"/>
<path d="M2487 1113 c-10 -10 -8 -76 3 -93 7 -11 10 -4 10 27 0 23 3 48 6 57
6 16 -7 22 -19 9z"/>
<path d="M1053 1067 c-57 -21 -56 -32 3 -29 30 2 66 1 80 -2 41 -11 101 -73
118 -123 50 -148 -18 -270 -227 -408 -58 -38 -104 -71 -103 -73 2 -2 51 19
107 47 182 87 376 229 397 291 14 38 7 39 -13 0 -14 -26 -78 -80 -97 -80 -4 0
-3 12 2 28 10 27 10 27 -6 5 -30 -41 -35 -26 -28 81 9 132 2 168 -43 216 -50
56 -119 73 -190 47z"/>
<path d="M0 821 l0 -78 58 14 c31 7 70 15 86 19 l29 5 -24 24 c-13 13 -52 40
-86 59 l-63 35 0 -78z"/>
<path d="M4504 860 c3 -16 8 -42 11 -57 3 -16 14 -39 24 -52 l19 -25 -5 27
c-9 46 5 30 43 -49 19 -42 38 -74 40 -71 6 5 -29 105 -56 157 -48 94 -88 131
-76 70z"/>
<path d="M5090 783 c-37 -24 -89 -74 -113 -108 -16 -23 -10 -20 29 15 27 25
64 52 82 59 20 8 32 20 32 32 0 23 0 23 -30 2z"/>
<path d="M222 757 c-6 -6 -14 -25 -17 -40 -8 -30 -35 -50 -62 -45 -10 2 -23
-8 -32 -23 -13 -24 -13 -29 3 -54 l18 -27 33 40 c44 50 90 72 154 72 95 0 179
-52 217 -134 37 -80 29 -159 -24 -219 -15 -17 -12 -17 37 2 119 47 141 75 141
177 0 66 -24 125 -69 168 -28 26 -31 27 -46 12 -27 -26 -64 -19 -175 34 -105
50 -158 61 -178 37z"/>
<path d="M43 712 l-43 -27 0 -77 c0 -60 3 -78 14 -78 18 0 33 -19 41 -52 6
-22 1 -33 -24 -59 -30 -30 -31 -33 -31 -123 0 -79 3 -94 20 -109 28 -24 24
-77 -6 -77 -21 0 -17 -17 6 -23 26 -7 26 -23 0 -37 -11 -6 -20 -20 -20 -30 0
-18 7 -20 75 -20 74 0 75 0 64 21 -23 43 26 91 79 77 13 -4 8 14 -26 81 -55
112 -76 197 -69 280 5 63 4 65 -29 96 -29 27 -34 39 -34 76 0 26 8 57 20 77
24 38 18 39 -37 4z m92 -472 c22 -25 13 -52 -17 -48 -23 3 -34 28 -24 54 7 19
20 18 41 -6z"/>
<path d="M3951 714 c-26 -21 -31 -33 -31 -69 0 -36 5 -48 31 -69 40 -34 91
-35 124 -1 25 24 34 65 15 65 -5 0 -10 -4 -10 -9 0 -12 -27 -21 -44 -15 -23 9
-28 35 -10 56 16 17 16 20 -6 43 -29 31 -31 31 -69 -1z"/>
<path d="M5065 681 c-60 -35 -84 -73 -91 -143 l-6 -53 21 30 c23 34 68 71 106
85 22 8 25 15 25 60 0 27 -1 50 -2 50 -2 0 -25 -13 -53 -29z"/>
<path d="M4900 620 c-6 -11 -8 -20 -6 -20 3 0 10 9 16 20 6 11 8 20 6 20 -3 0
-10 -9 -16 -20z"/>
<path d="M255 596 c-17 -7 -43 -28 -58 -45 -22 -26 -27 -42 -27 -84 1 -85 41
-151 143 -232 51 -41 77 -80 77 -116 0 -20 -4 -18 -35 17 l-34 39 20 -40 c19
-38 21 -75 4 -118 -6 -15 0 -17 54 -17 36 0 61 4 61 10 0 6 -9 28 -20 50 -46
91 -10 93 38 2 l33 -62 66 0 66 0 -7 30 c-9 46 -35 133 -45 148 -6 10 -14 9
-40 -5 -31 -17 -32 -17 -46 1 -19 25 -19 41 1 60 14 15 14 17 -3 23 -10 3 -21
12 -25 18 -5 8 -25 10 -57 7 -61 -5 -112 11 -158 51 -44 38 -63 82 -63 140 0
33 6 49 22 63 21 19 21 19 14 -1 -27 -70 -7 -132 54 -173 29 -20 44 -23 89
-19 47 3 59 9 88 40 25 28 33 46 33 73 0 43 -31 101 -68 129 -34 25 -134 31
-177 11z m109 -72 c9 -8 16 -22 16 -29 0 -17 -27 -45 -44 -45 -32 0 -48 54
-24 78 16 16 33 15 52 -4z"/>
<path d="M4890 513 c-24 -59 -34 -98 -37 -158 -6 -96 12 -153 82 -259 25 -38
45 -75 45 -82 0 -11 18 -14 70 -14 71 0 86 10 58 38 -10 10 -10 17 0 32 18 29
15 38 -10 33 -13 -2 -38 5 -56 17 -34 21 -104 120 -118 167 -7 25 -9 21 -14
-27 l-5 -55 -16 48 c-18 52 -15 87 7 87 11 0 14 20 14 88 0 48 4 103 10 121
17 61 4 44 -30 -36z"/>
<path d="M5085 531 c-66 -40 -97 -134 -72 -216 l15 -50 1 65 c2 105 31 175 81
192 7 2 11 9 9 16 -3 8 -13 6 -34 -7z"/>
<path d="M3583 428 c-28 -32 -34 -54 -22 -85 19 -50 65 -58 104 -18 34 33 33
77 -1 104 -34 27 -56 26 -81 -1z"/>
<path d="M5088 412 c-23 -3 -28 -9 -33 -45 -4 -23 -5 -66 -3 -95 3 -46 7 -56
30 -70 15 -9 30 -14 33 -10 3 3 4 54 3 114 l-3 109 -27 -3z"/>
<path d="M760 355 c-41 -19 -83 -35 -92 -35 -11 0 -18 -10 -20 -27 -3 -25 -8
-29 -48 -33 l-45 -5 34 -14 c42 -18 76 -88 86 -178 6 -53 10 -63 26 -63 18 0
19 4 12 38 -4 20 -8 69 -8 107 1 84 17 119 88 193 28 28 49 52 47 51 -3 0 -39
-16 -80 -34z"/>
<path d="M4268 320 c-65 -11 -143 -56 -180 -102 -45 -57 -70 -155 -52 -202 5
-14 28 -16 155 -16 117 0 149 3 149 13 0 9 -9 12 -29 9 -37 -5 -47 12 -26 44
22 34 57 49 83 35 18 -10 21 -6 35 50 8 33 13 68 10 79 -5 18 -8 18 -62 -9
-31 -16 -83 -50 -115 -75 -67 -52 -87 -60 -122 -52 -17 5 -24 13 -24 31 0 29
37 43 69 25 24 -12 29 -10 87 37 43 35 109 67 161 78 29 6 31 4 26 -15 -5 -21
-3 -20 37 9 24 17 49 31 57 31 7 0 13 4 13 9 0 19 -199 35 -272 21z"/>
<path d="M3525 118 c-27 -21 -55 -73 -55 -103 0 -12 17 -15 104 -15 96 0 105
2 111 20 28 88 -85 157 -160 98z"/>
<path d="M1570 105 c25 -14 64 -45 87 -68 48 -46 67 -45 27 2 -28 33 -92 74
-134 86 -15 4 -7 -4 20 -20z"/>
<path d="M3162 98 c-15 -15 -16 -52 -2 -79 9 -16 22 -19 80 -19 72 0 83 8 72
53 -4 16 -7 16 -38 -3 -26 -17 -37 -19 -54 -10 -24 13 -26 30 -4 30 9 0 14 7
12 18 -4 21 -48 28 -66 10z"/>
<path d="M247 56 c-4 -9 -13 -16 -22 -16 -19 0 -20 -29 -1 -36 8 -3 26 -4 39
-2 l25 3 -17 34 c-14 26 -19 30 -24 17z"/>
<path d="M3773 30 c-2 -29 0 -30 38 -30 l40 0 -34 30 c-19 17 -36 30 -38 30
-2 0 -5 -14 -6 -30z"/>
<path d="M1590 21 c6 -12 18 -21 26 -21 19 0 10 16 -17 31 -19 10 -20 9 -9
-10z"/>
<path d="M2004 24 c3 -9 6 -18 6 -20 0 -2 17 -4 38 -4 l37 1 -35 19 c-43 24
-54 25 -46 4z"/>
<path d="M4390 20 c0 -11 7 -20 15 -20 13 0 14 4 5 20 -6 11 -13 20 -15 20 -3
0 -5 -9 -5 -20z"/>
<path d="M1290 10 c-11 -7 1 -10 40 -10 39 0 51 3 40 10 -19 12 -61 12 -80 0z"/>
</g>
</svg>