<?xml version="1.0" standalone="no"?>
<!DOCTYPE svg PUBLIC "-//W3C//DTD SVG 20010904//EN"
 "http://www.w3.org/TR/2001/REC-SVG-20010904/DTD/svg10.dtd">
<svg version="1.0" xmlns="http://www.w3.org/2000/svg"
 width="512.000000pt" height="512.000000pt" viewBox="0 0 512.000000 512.000000"
 preserveAspectRatio="xMidYMid meet">
<metadata>
Created by potrace 1.16, written by Peter Selinger 2001-2019
</metadata>
<g transform="translate(0.000000,512.000000) scale(0.100000,-0.100000)"
fill="#000000" stroke="none">
<path d="M0 5064 c0 -30 5 -75 11 -99 11 -42 12 -43 29 -27 30 29 60 99 60
142 l0 40 -50 0 -50 0 0 -56z"/>
<path d="M140 5112 c0 -5 6 -17 14 -27 14 -19 15 -19 35 -1 30 27 26 36 -14
36 -19 0 -35 -4 -35 -8z"/>
<path d="M353 5108 c2 -7 12 -13 22 -13 10 0 20 6 23 13 2 7 -6 12 -23 12 -17
0 -25 -5 -22 -12z"/>
<path d="M536 5105 c4 -8 12 -15 20 -15 8 0 14 7 14 15 0 8 -9 15 -20 15 -13
0 -18 -5 -14 -15z"/>
<path d="M687 5093 c-4 -16 -1 -86 5 -158 l12 -130 16 55 c10 30 36 98 59 151
22 53 41 99 41 103 0 3 -29 6 -64 6 -61 0 -64 -1 -69 -27z"/>
<path d="M1035 5110 c4 -6 11 -8 16 -5 14 9 11 15 -7 15 -8 0 -12 -5 -9 -10z"/>
<path d="M1080 5110 c0 -5 6 -10 14 -10 8 0 18 5 21 10 3 6 -3 10 -14 10 -12
0 -21 -4 -21 -10z"/>
<path d="M1240 5106 c0 -7 -3 -29 -6 -47 l-6 -34 28 31 c60 64 60 64 20 64
-24 0 -36 -5 -36 -14z"/>
<path d="M1672 5007 c-22 -113 -27 -217 -14 -291 l7 -40 57 110 c56 109 81
183 94 282 l7 52 -65 0 -64 0 -22 -113z"/>
<path d="M2056 5042 c-18 -82 -34 -112 -121 -222 -28 -36 -61 -81 -73 -100
-25 -43 -77 -197 -87 -260 l-7 -44 33 25 c19 14 62 42 95 62 164 99 224 226
224 477 0 120 -4 140 -30 140 -13 0 -21 -17 -34 -78z"/>
<path d="M2240 5110 c0 -5 6 -10 14 -10 8 0 18 5 21 10 3 6 -3 10 -14 10 -12
0 -21 -4 -21 -10z"/>
<path d="M2311 5013 c0 -115 2 -115 39 7 12 41 25 81 27 88 4 8 -6 12 -31 12
l-36 0 1 -107z"/>
<path d="M2499 5093 c-34 -91 -49 -271 -30 -368 l8 -40 11 28 c7 16 12 34 12
41 0 6 22 55 49 107 54 105 65 149 55 214 l-6 45 -44 0 c-39 0 -46 -3 -55 -27z
m59 -12 c5 -29 -13 -50 -29 -34 -15 15 -3 66 14 60 7 -2 14 -14 15 -26z"/>
<path d="M2977 5113 c-10 -17 -57 -184 -81 -289 -27 -119 -58 -210 -87 -259
l-18 -29 -14 34 c-8 19 -17 42 -19 50 -5 15 -28 -121 -28 -163 0 -31 -76 -287
-89 -300 -8 -8 -13 -1 -17 21 -4 18 -10 32 -14 32 -18 0 -81 -86 -91 -123 -9
-33 -3 -287 7 -287 3 0 35 27 96 79 45 39 110 167 127 249 6 29 11 89 11 133
0 86 19 149 45 149 25 0 28 -26 10 -99 -9 -37 -15 -82 -13 -100 l3 -31 32 22
c17 12 46 45 65 72 18 27 63 73 99 102 144 115 250 289 265 435 4 44 1 86 -10
132 -20 84 -56 171 -67 160 -4 -4 -14 -85 -22 -180 -13 -154 -18 -179 -44
-235 -17 -35 -45 -81 -63 -103 l-32 -40 7 39 c9 45 10 45 -75 -19 l-56 -41 47
115 c26 64 66 150 88 192 41 76 64 152 75 242 l6 47 -70 0 c-38 0 -71 -3 -73
-7z"/>
<path d="M3282 5108 c7 -19 35 -21 41 -3 5 11 0 15 -19 15 -16 0 -24 -5 -22
-12z"/>
<path d="M3618 5113 c7 -3 16 -2 19 1 4 3 -2 6 -13 5 -11 0 -14 -3 -6 -6z"/>
<path d="M3694 5106 c-8 -22 3 -33 18 -18 9 9 9 15 0 24 -9 9 -13 7 -18 -6z"/>
<path d="M3816 5098 c-3 -13 -6 -43 -6 -68 0 -25 -4 -60 -9 -78 -5 -17 -6 -32
-2 -32 25 0 151 163 151 195 0 3 -29 5 -64 5 -58 0 -64 -2 -70 -22z"/>
<path d="M4123 4968 l2 -153 54 85 c77 121 111 182 111 203 0 15 -11 17 -84
17 l-85 0 2 -152z"/>
<path d="M4471 5103 c0 -10 8 -38 19 -63 15 -38 19 -42 25 -25 4 11 16 39 26
63 l18 42 -45 0 c-35 0 -44 -3 -43 -17z"/>
<path d="M4770 5100 c0 -11 3 -20 8 -20 4 0 13 9 20 20 11 18 10 20 -8 20 -13
0 -20 -7 -20 -20z"/>
<path d="M5080 5088 c0 -36 29 -210 36 -217 2 -2 4 53 4 122 0 120 -1 127 -20
127 -16 0 -20 -7 -20 -32z"/>
<path d="M445 5102 c-27 -18 -65 -131 -65 -189 0 -57 24 -153 39 -153 8 0 81
141 81 157 0 7 -8 34 -17 60 -9 26 -19 67 -22 90 -4 27 -10 40 -16 35z"/>
<path d="M1396 5103 c-12 -12 -6 -33 9 -33 8 0 15 6 15 14 0 17 -14 28 -24 19z"/>
<path d="M1897 5104 c-8 -8 1 -24 14 -24 5 0 9 7 9 15 0 15 -12 20 -23 9z"/>
<path d="M3468 5064 c-33 -76 -8 -184 42 -184 26 0 40 29 40 85 0 47 -35 145
-52 145 -5 0 -18 -21 -30 -46z"/>
<path d="M4860 5090 c0 -24 29 -38 40 -20 12 19 1 40 -21 40 -12 0 -19 -7 -19
-20z"/>
<path d="M1116 5058 c-20 -23 -36 -46 -36 -52 0 -17 89 69 90 87 0 18 -21 4
-54 -35z"/>
<path d="M4332 5086 c1 -10 8 -17 13 -17 15 1 12 24 -3 29 -9 3 -13 -2 -10
-12z"/>
<path d="M4950 5091 c0 -6 5 -13 10 -16 6 -3 10 1 10 9 0 9 -4 16 -10 16 -5 0
-10 -4 -10 -9z"/>
<path d="M1451 5073 c-1 -6 -19 -33 -42 -59 -63 -73 -75 -103 -59 -158 7 -25
20 -52 29 -60 16 -14 21 -12 56 24 36 37 39 45 42 102 2 36 -3 85 -11 113 -8
28 -15 45 -15 38z"/>
<path d="M2729 5009 c-20 -41 -61 -103 -91 -136 -61 -69 -88 -135 -88 -217 0
-89 11 -87 83 16 36 52 75 117 86 145 25 64 54 202 49 240 -3 25 -7 19 -39
-48z"/>
<path d="M2796 5071 c-4 -5 -2 -12 3 -15 5 -4 12 -2 15 3 4 5 2 12 -3 15 -5 4
-12 2 -15 -3z"/>
<path d="M500 5050 c0 -13 5 -20 13 -17 6 2 12 10 12 17 0 7 -6 15 -12 18 -8
2 -13 -5 -13 -18z"/>
<path d="M1540 5055 c-10 -12 -10 -18 0 -30 15 -18 30 -11 30 15 0 26 -15 33
-30 15z"/>
<path d="M4980 5055 c0 -8 5 -15 10 -15 6 0 10 7 10 15 0 8 -4 15 -10 15 -5 0
-10 -7 -10 -15z"/>
<path d="M230 5035 c0 -14 -19 -60 -42 -102 -35 -63 -42 -87 -46 -147 -4 -67
7 -134 27 -164 18 -29 81 37 101 107 5 18 3 65 -6 123 -8 51 -14 119 -14 151
0 31 -4 57 -10 57 -5 0 -10 -11 -10 -25z"/>
<path d="M290 5044 c0 -8 5 -12 10 -9 6 3 10 10 10 16 0 5 -4 9 -10 9 -5 0
-10 -7 -10 -16z"/>
<path d="M2175 5040 c-4 -6 -3 -25 1 -43 6 -28 8 -30 15 -12 17 43 4 87 -16
55z"/>
<path d="M4667 5043 c-4 -3 -7 -15 -7 -25 0 -26 24 -17 28 10 3 21 -8 29 -21
15z"/>
<path d="M4767 4908 c-62 -150 -73 -200 -60 -263 l9 -40 53 50 c29 27 59 62
67 78 18 34 20 101 5 182 -6 33 -12 76 -14 97 -2 32 -8 21 -60 -104z"/>
<path d="M945 5027 c-15 -38 9 -66 29 -35 8 14 7 21 -6 35 -16 15 -18 15 -23
0z"/>
<path d="M2680 5030 c0 -5 5 -10 10 -10 6 0 10 5 10 10 0 6 -4 10 -10 10 -5 0
-10 -4 -10 -10z"/>
<path d="M1830 5020 c0 -5 5 -10 10 -10 6 0 10 5 10 10 0 6 -4 10 -10 10 -5 0
-10 -4 -10 -10z"/>
<path d="M1997 5024 c-15 -15 -7 -45 11 -42 9 2 17 12 17 22 0 20 -16 31 -28
20z"/>
<path d="M591 4993 c-53 -114 -93 -218 -100 -260 -12 -62 0 -156 31 -237 l22
-61 8 45 c4 25 25 80 48 123 47 92 49 125 15 199 -26 56 -31 107 -15 173 11
48 8 54 -9 18z"/>
<path d="M1897 5004 c-11 -11 -8 -44 3 -44 15 0 24 30 13 41 -5 5 -12 6 -16 3z"/>
<path d="M4013 4986 c-4 -7 -31 -21 -59 -30 -73 -24 -140 -69 -212 -144 -103
-107 -168 -264 -202 -487 -21 -147 -19 -139 -41 -119 -23 21 -23 21 -38 -40
-14 -56 -52 -136 -88 -184 -13 -18 -36 -57 -50 -88 -25 -54 -25 -59 -18 -196
l7 -140 37 54 c62 94 103 137 186 197 108 80 180 157 218 238 26 57 32 82 35
153 l3 85 -23 -37 c-25 -40 -65 -74 -75 -64 -9 9 15 171 43 283 32 129 102
310 149 380 42 63 112 113 150 105 22 -4 25 -1 25 22 0 19 -5 26 -20 26 -10 0
-23 -6 -27 -14z m-500 -1038 c12 -33 -34 -91 -55 -70 -9 9 -8 20 5 47 17 35
41 46 50 23z"/>
<path d="M2400 4970 c0 -11 5 -20 10 -20 6 0 10 9 10 20 0 11 -4 20 -10 20 -5
0 -10 -9 -10 -20z"/>
<path d="M2834 4976 c-8 -22 3 -33 18 -18 9 9 9 15 0 24 -9 9 -13 7 -18 -6z"/>
<path d="M4367 4983 c-12 -11 -8 -40 7 -52 17 -15 50 14 42 36 -3 8 -6 17 -6
19 0 7 -36 5 -43 -3z"/>
<path d="M4957 4973 c-11 -10 -8 -41 4 -49 16 -9 41 20 33 39 -6 17 -25 22
-37 10z"/>
<path d="M814 4956 c-9 -24 12 -44 28 -28 9 10 8 16 -5 29 -15 15 -17 15 -23
-1z"/>
<path d="M1296 4961 c-4 -5 -2 -12 3 -15 5 -4 12 -2 15 3 4 5 2 12 -3 15 -5 4
-12 2 -15 -3z"/>
<path d="M3120 4960 c0 -5 5 -10 10 -10 6 0 10 5 10 10 0 6 -4 10 -10 10 -5 0
-10 -4 -10 -10z"/>
<path d="M1130 4912 c0 -28 -9 -74 -20 -102 -24 -61 -26 -130 -4 -193 20 -59
32 -66 56 -36 68 87 73 151 19 284 -42 103 -51 112 -51 47z"/>
<path d="M3612 4939 c1 -13 8 -23 13 -21 15 3 12 35 -3 40 -9 3 -13 -3 -10
-19z"/>
<path d="M4644 4924 c-85 -51 -158 -126 -189 -197 -22 -48 -29 -82 -35 -181
-10 -142 -8 -126 -19 -126 -5 0 -12 15 -15 33 -4 17 -15 50 -25 72 -16 34 -20
36 -20 16 -1 -13 -21 -67 -45 -120 -47 -105 -79 -224 -96 -369 -14 -120 -50
-232 -100 -312 -22 -36 -57 -99 -77 -140 -32 -64 -37 -84 -38 -145 0 -56 5
-80 25 -119 14 -27 30 -51 36 -53 6 -2 16 13 22 34 6 21 35 76 63 123 98 164
141 263 155 357 3 26 29 108 56 181 27 74 55 161 62 193 19 80 54 136 120 193
34 29 65 67 80 99 25 51 31 82 55 299 6 48 20 110 32 138 12 28 20 53 17 55
-2 3 -31 -11 -64 -31z m-308 -660 c-5 -17 -12 -24 -24 -22 -23 4 -27 42 -6 63
16 16 18 16 27 0 5 -9 6 -28 3 -41z m-88 -450 c-14 -30 -38 -31 -38 -1 0 31
19 50 36 36 10 -8 10 -16 2 -35z m-98 -137 c0 -27 -33 -62 -49 -52 -15 9 -14
27 5 53 20 29 44 28 44 -1z"/>
<path d="M3372 4900 c-16 -71 -15 -94 7 -114 23 -21 49 -12 57 20 8 31 0 60
-29 107 l-23 38 -12 -51z"/>
<path d="M4285 4939 c-10 -15 3 -25 16 -12 7 7 7 13 1 17 -6 3 -14 1 -17 -5z"/>
<path d="M981 4914 c0 -11 3 -14 6 -6 3 7 2 16 -1 19 -3 4 -6 -2 -5 -13z"/>
<path d="M2212 4909 c1 -13 8 -23 13 -21 15 3 12 35 -3 40 -9 3 -13 -3 -10
-19z"/>
<path d="M3300 4914 c0 -8 5 -12 10 -9 6 4 8 11 5 16 -9 14 -15 11 -15 -7z"/>
<path d="M40 4909 c0 -9 -9 -38 -21 -64 -22 -49 -20 -107 3 -121 17 -11 58 47
58 82 0 18 -9 51 -20 75 -11 24 -20 37 -20 28z"/>
<path d="M2612 4909 c2 -6 8 -10 13 -10 5 0 11 4 13 10 2 6 -4 11 -13 11 -9 0
-15 -5 -13 -11z"/>
<path d="M4310 4895 c0 -8 5 -15 10 -15 6 0 10 7 10 15 0 8 -4 15 -10 15 -5 0
-10 -7 -10 -15z"/>
<path d="M1810 4880 c0 -13 5 -20 13 -17 6 2 12 10 12 17 0 7 -6 15 -12 18 -8
2 -13 -5 -13 -18z"/>
<path d="M2391 4891 c-8 -5 -11 -16 -6 -30 8 -25 30 -28 39 -4 9 21 -14 45
-33 34z"/>
<path d="M3102 4889 c2 -6 8 -10 13 -10 5 0 11 4 13 10 2 6 -4 11 -13 11 -9 0
-15 -5 -13 -11z"/>
<path d="M5020 4875 c0 -8 7 -15 15 -15 8 0 15 7 15 15 0 8 -7 15 -15 15 -8 0
-15 -7 -15 -15z"/>
<path d="M972 4855 c-18 -40 -14 -78 12 -114 l25 -33 15 31 c20 38 20 90 0
119 -20 29 -38 28 -52 -3z"/>
<path d="M3600 4818 c-91 -105 -99 -120 -100 -174 0 -36 5 -56 16 -65 14 -12
21 -8 50 26 19 22 38 54 44 70 9 28 31 177 27 182 -1 1 -18 -17 -37 -39z"/>
<path d="M835 4840 c-3 -6 -3 -19 0 -31 10 -29 39 -20 43 14 3 21 -1 27 -17
27 -11 0 -23 -5 -26 -10z"/>
<path d="M1560 4830 c-13 -25 -4 -60 15 -60 20 0 37 37 30 60 -8 26 -31 25
-45 0z"/>
<path d="M290 4830 c0 -5 5 -10 10 -10 6 0 10 5 10 10 0 6 -4 10 -10 10 -5 0
-10 -4 -10 -10z"/>
<path d="M2274 4794 c-22 -26 -71 -83 -110 -126 -88 -98 -137 -180 -169 -281
-35 -108 -33 -124 6 -84 30 29 32 30 45 12 13 -18 14 -18 35 1 36 32 41 50 25
89 -18 43 -7 85 23 85 45 0 41 -63 -13 -235 -24 -77 -54 -176 -66 -220 -12
-44 -39 -118 -60 -165 -22 -47 -32 -75 -23 -62 21 30 33 28 33 -7 0 -18 -10
-41 -25 -58 -23 -25 -27 -26 -37 -11 -10 14 -17 7 -50 -49 -21 -37 -72 -112
-112 -167 -81 -112 -123 -188 -154 -286 -21 -62 -62 -230 -62 -250 0 -16 152
79 198 123 31 30 65 84 119 191 41 82 92 177 113 210 21 34 56 97 76 140 38
79 38 81 44 236 4 126 8 161 23 183 9 15 19 27 20 27 1 0 4 -23 5 -51 4 -90
17 -90 47 0 22 68 38 94 87 149 119 132 138 228 79 395 -18 49 -37 126 -42
170 -6 45 -13 83 -14 85 -2 2 -20 -18 -41 -44z m-26 -531 c2 -21 -2 -32 -13
-37 -20 -7 -29 15 -21 50 9 34 30 26 34 -13z m-403 -854 c0 -7 -8 -15 -17 -17
-18 -3 -25 18 -11 32 10 10 28 1 28 -15z"/>
<path d="M3072 4827 c-22 -26 -32 -68 -22 -88 15 -27 27 -24 45 11 29 57 11
119 -23 77z"/>
<path d="M3971 4822 c-7 -14 -7 -24 3 -37 19 -27 48 -12 44 22 -4 33 -32 42
-47 15z"/>
<path d="M1770 4814 c0 -8 5 -12 10 -9 6 3 10 10 10 16 0 5 -4 9 -10 9 -5 0
-10 -7 -10 -16z"/>
<path d="M1268 4735 c-39 -113 -38 -171 5 -226 17 -24 37 -42 42 -41 21 3 23
78 5 172 -11 52 -21 113 -22 135 -3 40 -3 40 -30 -40z"/>
<path d="M3660 4810 c0 -5 5 -10 10 -10 6 0 10 5 10 10 0 6 -4 10 -10 10 -5 0
-10 -4 -10 -10z"/>
<path d="M2805 4802 c-28 -20 -36 -41 -25 -61 6 -12 17 -21 25 -21 14 0 35 29
35 47 0 17 -25 43 -35 35z"/>
<path d="M4332 4798 c-15 -15 -16 -45 -2 -53 16 -10 41 16 38 38 -4 25 -20 31
-36 15z"/>
<path d="M2153 4784 c-7 -18 11 -39 26 -30 17 11 13 46 -4 46 -9 0 -18 -7 -22
-16z"/>
<path d="M3303 4784 c-9 -23 11 -38 26 -20 13 16 7 36 -10 36 -5 0 -12 -7 -16
-16z"/>
<path d="M740 4764 c-11 -29 2 -64 25 -64 22 0 28 38 11 65 -21 31 -24 31 -36
-1z"/>
<path d="M2735 4779 c-4 -6 -5 -13 -2 -16 7 -7 27 6 27 18 0 12 -17 12 -25 -2z"/>
<path d="M325 4735 c23 -201 16 -272 -41 -418 -39 -102 -42 -154 -15 -241 l18
-60 28 45 c16 24 40 76 54 114 24 65 26 82 25 230 -1 157 -1 162 -38 270 -31
92 -36 102 -31 60z"/>
<path d="M1427 4701 c-35 -70 -38 -82 -35 -144 l3 -69 35 47 c73 98 76 107 62
171 -6 32 -15 61 -19 65 -5 4 -25 -28 -46 -70z"/>
<path d="M5037 4773 c-13 -12 -7 -41 8 -47 18 -6 30 16 21 39 -6 16 -18 19
-29 8z"/>
<path d="M4932 4754 c1 -9 9 -19 16 -22 9 -3 13 2 10 14 -1 9 -9 19 -16 22 -9
3 -13 -2 -10 -14z"/>
<path d="M4146 4753 c-12 -12 -6 -33 9 -33 8 0 15 6 15 14 0 17 -14 28 -24 19z"/>
<path d="M852 4738 c6 -18 28 -21 28 -4 0 9 -7 16 -16 16 -9 0 -14 -5 -12 -12z"/>
<path d="M1736 4703 c-8 -19 17 -48 33 -39 6 4 11 18 11 32 0 28 -34 34 -44 7z"/>
<path d="M4212 4660 c-36 -72 -41 -132 -16 -168 19 -28 28 -28 55 1 22 23 22
45 1 182 l-8 50 -32 -65z"/>
<path d="M4960 4687 c0 -8 -14 -33 -31 -57 -57 -79 -61 -98 -53 -257 3 -78 10
-143 14 -143 4 0 29 24 57 53 94 99 114 223 58 349 -29 64 -45 84 -45 55z"/>
<path d="M2700 4670 c0 -11 7 -20 15 -20 8 0 15 9 15 20 0 11 -7 20 -15 20 -8
0 -15 -9 -15 -20z"/>
<path d="M4335 4680 c-8 -13 4 -32 16 -25 12 8 12 35 0 35 -6 0 -13 -4 -16
-10z"/>
<path d="M292 4669 c2 -7 10 -15 17 -17 8 -3 12 1 9 9 -2 7 -10 15 -17 17 -8
3 -12 -1 -9 -9z"/>
<path d="M1572 4669 c2 -6 8 -10 13 -10 5 0 11 4 13 10 2 6 -4 11 -13 11 -9 0
-15 -5 -13 -11z"/>
<path d="M3958 4644 c-27 -17 -38 -31 -38 -48 0 -37 10 -56 31 -56 28 0 51 42
47 88 l-3 39 -37 -23z"/>
<path d="M984 4646 c-8 -22 3 -33 18 -18 9 9 9 15 0 24 -9 9 -13 7 -18 -6z"/>
<path d="M4120 4640 c0 -19 3 -21 12 -12 9 9 9 15 0 24 -9 9 -12 7 -12 -12z"/>
<path d="M725 4640 c3 -5 8 -10 11 -10 2 0 4 5 4 10 0 6 -5 10 -11 10 -5 0 -7
-4 -4 -10z"/>
<path d="M846 4634 c-9 -23 19 -53 35 -37 15 15 7 47 -12 51 -9 2 -19 -5 -23
-14z"/>
<path d="M3311 4624 c-41 -53 -12 -132 34 -94 19 15 19 80 2 104 -13 17 -15
17 -36 -10z"/>
<path d="M432 4603 c5 -25 28 -28 28 -4 0 12 -6 21 -16 21 -9 0 -14 -7 -12
-17z"/>
<path d="M1670 4601 c0 -24 18 -37 31 -24 13 13 1 43 -17 43 -8 0 -14 -9 -14
-19z"/>
<path d="M3387 4487 c-104 -157 -121 -196 -121 -277 0 -49 7 -79 27 -124 27
-58 28 -59 47 -41 56 50 90 179 90 338 0 62 6 106 20 148 12 34 20 64 18 68
-2 3 -38 -47 -81 -112z"/>
<path d="M747 4570 c-19 -119 -24 -264 -12 -326 21 -100 26 -102 64 -39 73
121 75 171 9 273 -22 34 -44 77 -48 95 l-7 32 -6 -35z"/>
<path d="M2406 4591 c-4 -5 -2 -12 3 -15 5 -4 12 -2 15 3 4 5 2 12 -3 15 -5 4
-12 2 -15 -3z"/>
<path d="M2662 4545 c-13 -33 -36 -87 -52 -120 -18 -40 -30 -83 -34 -130 l-5
-70 44 46 c57 61 77 126 73 245 l-3 89 -23 -60z"/>
<path d="M2 4565 c0 -16 2 -22 5 -12 2 9 2 23 0 30 -3 6 -5 -1 -5 -18z"/>
<path d="M4055 4540 c-6 -42 -4 -55 11 -71 13 -15 19 -16 26 -7 14 22 9 72
-11 102 l-19 28 -7 -52z"/>
<path d="M4781 4576 c-11 -14 -5 -46 9 -46 15 0 32 30 26 45 -7 19 -20 19 -35
1z"/>
<path d="M4690 4565 c0 -8 5 -15 10 -15 6 0 10 7 10 15 0 8 -4 15 -10 15 -5 0
-10 -7 -10 -15z"/>
<path d="M206 4554 c-25 -25 -17 -59 14 -59 22 0 25 4 25 34 0 39 -15 49 -39
25z"/>
<path d="M630 4556 c0 -9 5 -16 10 -16 6 0 10 4 10 9 0 6 -4 13 -10 16 -5 3
-10 -1 -10 -9z"/>
<path d="M76 4543 c-12 -12 -6 -33 9 -33 8 0 15 6 15 14 0 17 -14 28 -24 19z"/>
<path d="M447 4531 c3 -12 10 -21 15 -21 13 0 6 32 -9 37 -7 3 -9 -3 -6 -16z"/>
<path d="M970 4541 c0 -6 5 -13 10 -16 6 -3 10 1 10 9 0 9 -4 16 -10 16 -5 0
-10 -4 -10 -9z"/>
<path d="M3785 4539 c-10 -15 3 -25 16 -12 7 7 7 13 1 17 -6 3 -14 1 -17 -5z"/>
<path d="M1181 4520 c-1 -14 -19 -63 -41 -110 -51 -109 -52 -147 -5 -241 20
-38 41 -95 49 -127 l13 -57 16 50 c27 83 57 223 57 268 0 26 -12 66 -31 107
-17 36 -37 81 -44 100 -12 31 -14 32 -14 10z"/>
<path d="M1600 4510 c-14 -35 -3 -57 24 -47 20 8 21 50 2 66 -11 9 -16 5 -26
-19z"/>
<path d="M2550 4526 c0 -9 7 -16 16 -16 9 0 14 5 12 12 -6 18 -28 21 -28 4z"/>
<path d="M3 4465 c0 -38 2 -53 4 -32 2 20 2 52 0 70 -2 17 -4 1 -4 -38z"/>
<path d="M2470 4515 c0 -8 5 -15 10 -15 6 0 10 7 10 15 0 8 -4 15 -10 15 -5 0
-10 -7 -10 -15z"/>
<path d="M3494 4515 c-8 -20 13 -68 26 -60 15 9 12 51 -5 65 -12 10 -16 9 -21
-5z"/>
<path d="M5067 4514 c-4 -4 -7 -18 -7 -31 0 -18 5 -24 18 -21 10 2 17 12 17
27 0 24 -15 37 -28 25z"/>
<path d="M680 4500 c0 -5 5 -10 10 -10 6 0 10 5 10 10 0 6 -4 10 -10 10 -5 0
-10 -4 -10 -10z"/>
<path d="M3167 4494 c-8 -8 1 -24 14 -24 5 0 9 7 9 15 0 15 -12 20 -23 9z"/>
<path d="M3996 4460 c-11 -58 -24 -83 -84 -153 -27 -32 -54 -75 -61 -96 -14
-49 -14 -149 0 -207 l12 -45 24 23 c43 40 85 109 105 172 22 71 33 240 20 306
l-8 45 -8 -45z"/>
<path d="M1474 4464 c-24 -35 -9 -79 26 -79 32 0 49 42 32 80 -15 32 -37 32
-58 -1z"/>
<path d="M4660 4469 c0 -24 23 -21 28 4 2 10 -3 17 -12 17 -10 0 -16 -9 -16
-21z"/>
<path d="M2484 4466 c-3 -8 1 -27 9 -43 l15 -28 12 27 c7 15 10 34 7 42 -8 20
-36 21 -43 2z"/>
<path d="M3822 4469 c2 -6 8 -10 13 -10 5 0 11 4 13 10 2 6 -4 11 -13 11 -9 0
-15 -5 -13 -11z"/>
<path d="M462 4449 c1 -12 9 -24 16 -27 9 -3 13 3 10 19 -1 12 -9 24 -16 27
-9 3 -13 -3 -10 -19z"/>
<path d="M94 4437 c-42 -35 -58 -75 -45 -110 22 -57 92 -17 90 51 -1 20 -4 48
-8 61 l-6 24 -31 -26z"/>
<path d="M947 4444 c-11 -11 -8 -52 4 -60 6 -3 18 1 27 10 13 12 14 21 6 33
-12 20 -27 26 -37 17z"/>
<path d="M620 4425 c0 -9 5 -15 11 -13 6 2 11 8 11 13 0 5 -5 11 -11 13 -6 2
-11 -4 -11 -13z"/>
<path d="M1351 4409 c-1 -20 -8 -56 -16 -79 -40 -112 7 -244 59 -165 23 35 20
88 -13 190 -25 76 -29 84 -30 54z"/>
<path d="M1932 4424 c4 -21 22 -23 26 -1 2 10 -3 17 -13 17 -10 0 -15 -6 -13
-16z"/>
<path d="M4140 4425 c0 -8 7 -15 15 -15 8 0 15 7 15 15 0 8 -7 15 -15 15 -8 0
-15 -7 -15 -15z"/>
<path d="M3134 4406 c-4 -10 -2 -22 4 -28 8 -8 13 -7 18 6 4 10 2 22 -4 28 -8
8 -13 7 -18 -6z"/>
<path d="M4725 4392 c-3 -18 -25 -60 -48 -94 -46 -69 -59 -138 -37 -204 l13
-38 27 32 c56 68 75 120 75 212 0 95 -17 148 -30 92z"/>
<path d="M1060 4390 c0 -5 5 -10 10 -10 6 0 10 5 10 10 0 6 -4 10 -10 10 -5 0
-10 -4 -10 -10z"/>
<path d="M3207 4346 c-16 -30 -53 -84 -83 -121 -31 -37 -67 -91 -80 -120 -13
-30 -54 -88 -93 -130 -93 -102 -113 -146 -118 -260 -2 -49 0 -126 4 -170 l8
-80 41 70 c22 39 68 107 101 152 34 45 69 104 78 130 9 26 30 80 47 118 59
135 89 231 109 344 10 63 18 115 16 117 -1 2 -15 -21 -30 -50z m-267 -478 c-1
-29 -25 -62 -39 -53 -14 8 -14 31 -1 56 15 26 40 24 40 -3z"/>
<path d="M890 4283 c-37 -111 -40 -164 -22 -318 l8 -60 47 80 c57 97 65 131
44 199 -9 28 -21 84 -27 125 -6 41 -11 76 -13 77 -1 1 -18 -46 -37 -103z"/>
<path d="M212 4359 c2 -6 8 -10 13 -10 5 0 11 4 13 10 2 6 -4 11 -13 11 -9 0
-15 -5 -13 -11z"/>
<path d="M3782 4354 c4 -21 22 -23 26 -1 2 10 -3 17 -13 17 -10 0 -15 -6 -13
-16z"/>
<path d="M4806 4363 c-11 -11 -6 -23 9 -23 8 0 15 4 15 9 0 13 -16 22 -24 14z"/>
<path d="M5042 4359 c2 -6 8 -10 13 -10 5 0 11 4 13 10 2 6 -4 11 -13 11 -9 0
-15 -5 -13 -11z"/>
<path d="M4075 4350 c-7 -12 2 -30 16 -30 12 0 12 27 0 35 -5 3 -12 1 -16 -5z"/>
<path d="M4622 4338 c2 -13 10 -23 18 -23 8 0 16 10 18 23 3 17 -2 22 -18 22
-16 0 -21 -5 -18 -22z"/>
<path d="M1905 4341 c-3 -5 -1 -12 5 -16 5 -3 10 1 10 9 0 18 -6 21 -15 7z"/>
<path d="M1763 4308 c-17 -18 -36 -43 -42 -55 -16 -31 -14 -88 4 -103 33 -28
105 55 105 122 0 76 -19 86 -67 36z"/>
<path d="M426 4242 c-3 -48 -8 -124 -12 -168 -4 -54 -2 -94 6 -120 13 -41 84
-144 100 -144 17 0 53 134 52 195 -1 73 -23 132 -90 242 l-50 82 -6 -87z"/>
<path d="M532 4317 c-15 -17 1 -42 23 -33 18 6 17 37 -1 43 -6 2 -16 -2 -22
-10z"/>
<path d="M1474 4306 c-6 -17 2 -36 17 -36 12 0 12 37 -1 45 -6 3 -13 -1 -16
-9z"/>
<path d="M2976 4311 c-4 -7 -5 -15 -2 -18 9 -9 19 4 14 18 -4 11 -6 11 -12 0z"/>
<path d="M3082 4298 c-7 -7 -12 -20 -12 -31 0 -30 34 -16 38 16 4 29 -6 35
-26 15z"/>
<path d="M4175 4299 c-4 -6 -5 -12 -2 -15 2 -3 7 2 10 11 7 17 1 20 -8 4z"/>
<path d="M4505 4299 c-10 -15 3 -25 16 -12 7 7 7 13 1 17 -6 3 -14 1 -17 -5z"/>
<path d="M1672 4286 c1 -10 8 -17 13 -17 15 1 12 24 -3 29 -9 3 -13 -2 -10
-12z"/>
<path d="M1551 4276 c-18 -21 -9 -51 14 -51 24 0 32 36 12 53 -11 10 -17 9
-26 -2z"/>
<path d="M994 4266 c-6 -17 2 -36 17 -36 12 0 12 37 -1 45 -6 3 -13 -1 -16 -9z"/>
<path d="M2417 4195 c-56 -89 -70 -147 -58 -255 l7 -75 23 50 c23 50 84 317
79 342 -2 7 -25 -21 -51 -62z"/>
<path d="M4097 4263 c-13 -12 -7 -33 8 -33 8 0 15 9 15 20 0 20 -11 26 -23 13z"/>
<path d="M4156 4255 c-16 -42 0 -115 26 -115 7 0 8 19 3 58 -7 61 -18 83 -29
57z"/>
<path d="M4802 4229 c2 -6 8 -10 13 -10 5 0 11 4 13 10 2 6 -4 11 -13 11 -9 0
-15 -5 -13 -11z"/>
<path d="M4929 4177 c-71 -95 -75 -107 -70 -207 3 -44 3 -45 15 -18 6 16 26
43 43 60 17 18 38 48 47 66 19 36 34 162 20 162 -5 -1 -30 -29 -55 -63z"/>
<path d="M5038 4223 c-34 -39 -33 -93 2 -93 25 0 33 16 32 58 -2 45 -14 57
-34 35z"/>
<path d="M76 4215 c-3 -9 1 -18 10 -22 19 -7 28 2 21 22 -8 19 -23 19 -31 0z"/>
<path d="M166 4213 c-12 -12 -6 -33 9 -33 8 0 15 6 15 14 0 17 -14 28 -24 19z"/>
<path d="M4450 4199 c0 -14 5 -19 17 -17 26 5 29 38 4 38 -15 0 -21 -6 -21
-21z"/>
<path d="M4541 4143 c-27 -91 -60 -160 -91 -188 -39 -36 -54 -76 -56 -158 l-2
-78 48 45 c26 24 61 51 78 60 31 16 32 18 32 89 0 39 5 123 11 186 6 62 8 115
6 117 -2 2 -14 -30 -26 -73z"/>
<path d="M1938 4199 c-20 -11 -24 -54 -7 -65 18 -11 52 31 44 55 -7 23 -12 25
-37 10z"/>
<path d="M2921 4176 c-41 -44 -10 -112 34 -76 22 18 18 100 -4 100 -4 0 -18
-11 -30 -24z"/>
<path d="M2320 4158 c-11 -18 -20 -40 -20 -48 0 -15 30 29 43 63 10 28 -2 20
-23 -15z"/>
<path d="M670 4063 c-54 -149 -62 -231 -31 -317 11 -33 24 -63 28 -67 5 -4 26
22 47 58 56 93 60 150 16 245 -32 69 -33 73 -22 131 6 34 10 62 8 64 -2 2 -23
-49 -46 -114z"/>
<path d="M4860 4170 c0 -5 5 -10 10 -10 6 0 10 5 10 10 0 6 -4 10 -10 10 -5 0
-10 -4 -10 -10z"/>
<path d="M622 4154 c4 -21 22 -23 26 -1 2 10 -3 17 -13 17 -10 0 -15 -6 -13
-16z"/>
<path d="M1506 4125 c-9 -9 -16 -33 -16 -53 l0 -36 36 35 c35 32 36 33 30 9
-4 -14 -10 -59 -15 -100 -5 -48 -18 -94 -35 -127 -19 -39 -26 -67 -26 -112 l0
-60 43 24 c68 38 82 72 79 185 -3 127 -31 244 -59 248 -11 2 -28 -4 -37 -13z"/>
<path d="M1025 4095 c-11 -44 -11 -111 0 -417 4 -115 10 -208 14 -207 8 1 101
139 130 196 46 87 37 207 -15 218 -13 3 -35 7 -49 10 -37 8 -58 58 -65 155 -6
81 -6 83 -15 45z"/>
<path d="M4738 4041 c-44 -107 -48 -159 -16 -216 12 -22 36 -69 54 -104 l33
-64 -6 42 c-3 24 0 87 7 140 12 89 11 101 -8 171 -11 41 -22 86 -24 99 -2 18
-13 -1 -40 -68z"/>
<path d="M1090 4100 c0 -13 5 -20 13 -17 6 2 12 10 12 17 0 7 -6 15 -12 18 -8
2 -13 -5 -13 -18z"/>
<path d="M95 4100 c-32 -52 -17 -140 24 -140 27 0 55 53 46 89 -12 47 -54 78
-70 51z"/>
<path d="M1345 4090 c-7 -12 2 -30 16 -30 12 0 12 27 0 35 -5 3 -12 1 -16 -5z"/>
<path d="M1737 4093 c-9 -9 -8 -25 2 -42 8 -12 12 -12 25 -2 22 19 21 51 -2
51 -10 0 -22 -3 -25 -7z"/>
<path d="M4040 4085 c0 -8 7 -15 15 -15 8 0 15 7 15 15 0 8 -7 15 -15 15 -8 0
-15 -7 -15 -15z"/>
<path d="M1872 4029 c-73 -58 -117 -115 -126 -162 -7 -36 13 -118 30 -124 16
-5 93 54 114 89 28 47 72 248 54 248 -5 -1 -37 -23 -72 -51z"/>
<path d="M5053 4068 c-54 -45 -63 -57 -54 -80 11 -31 46 -35 61 -8 15 28 9
101 -7 88z"/>
<path d="M2830 4046 c0 -17 5 -26 16 -26 10 0 14 7 12 22 -5 32 -28 35 -28 4z"/>
<path d="M17 3996 c-13 -39 -17 -82 -17 -195 1 -136 2 -144 16 -118 25 46 38
172 28 272 l-9 90 -18 -49z"/>
<path d="M2429 3950 c-72 -187 -110 -320 -116 -407 -3 -46 -3 -83 0 -83 13 0
100 144 118 197 25 69 41 205 37 309 l-3 79 -36 -95z"/>
<path d="M4412 4029 c2 -6 8 -10 13 -10 5 0 11 4 13 10 2 6 -4 11 -13 11 -9 0
-15 -5 -13 -11z"/>
<path d="M770 4000 c0 -19 3 -21 12 -12 9 9 9 15 0 24 -9 9 -12 7 -12 -12z"/>
<path d="M1260 4005 c0 -8 5 -15 10 -15 6 0 10 7 10 15 0 8 -4 15 -10 15 -5 0
-10 -7 -10 -15z"/>
<path d="M3191 4010 c-1 -8 -15 -35 -31 -60 -34 -51 -40 -109 -14 -134 23 -24
30 -20 53 27 19 40 20 46 7 112 -8 39 -15 63 -15 55z"/>
<path d="M1384 3939 c-26 -41 -61 -92 -79 -114 -42 -51 -79 -125 -100 -199
-26 -89 -17 -222 20 -304 l28 -63 38 108 c20 59 53 153 73 208 28 81 37 124
46 230 6 72 15 145 20 164 5 19 8 37 5 39 -2 2 -25 -29 -51 -69z"/>
<path d="M3980 3995 c0 -9 5 -15 11 -13 6 2 11 8 11 13 0 5 -5 11 -11 13 -6 2
-11 -4 -11 -13z"/>
<path d="M3277 3984 c-14 -14 -7 -35 11 -32 9 2 17 10 17 17 0 16 -18 25 -28
15z"/>
<path d="M1105 3960 c-8 -26 7 -45 30 -36 21 8 16 50 -7 54 -10 2 -19 -5 -23
-18z"/>
<path d="M1740 3970 c0 -5 5 -10 10 -10 6 0 10 5 10 10 0 6 -4 10 -10 10 -5 0
-10 -4 -10 -10z"/>
<path d="M4089 3954 c-13 -14 -64 -53 -112 -86 -118 -82 -162 -133 -188 -222
-12 -39 -44 -111 -72 -160 -91 -158 -107 -242 -62 -326 l24 -45 1 58 c0 90 20
68 21 -25 l1 -83 13 50 c13 56 79 191 133 275 58 91 221 386 242 439 18 47 38
151 28 151 -2 0 -15 -12 -29 -26z m-171 -191 c-23 -49 -33 -63 -45 -63 -18 0
-16 30 4 52 15 17 48 26 41 11z m-163 -313 c-4 -11 -10 -20 -15 -20 -15 0 -20
31 -9 52 10 19 12 20 21 4 5 -9 6 -25 3 -36z"/>
<path d="M4598 3940 c-26 -71 -36 -116 -52 -245 -8 -66 -22 -142 -30 -170 -14
-46 -68 -125 -85 -125 -11 0 6 140 19 156 7 7 10 19 7 26 -7 20 -73 -57 -107
-126 -32 -65 -181 -465 -198 -531 -28 -113 -22 -134 17 -60 41 77 96 145 229
280 121 123 132 136 185 245 58 117 87 207 87 267 0 19 -9 68 -20 111 -11 42
-23 109 -27 147 l-8 70 -17 -45z"/>
<path d="M305 3951 c-8 -27 12 -63 33 -59 12 2 17 13 17 38 0 28 -4 36 -22 38
-14 2 -23 -3 -28 -17z"/>
<path d="M232 3907 c-26 -62 -28 -90 -6 -112 30 -29 44 -1 44 86 0 44 -4 79
-8 79 -5 0 -18 -24 -30 -53z"/>
<path d="M1652 3943 c5 -25 28 -28 28 -4 0 12 -6 21 -16 21 -9 0 -14 -7 -12
-17z"/>
<path d="M2737 3953 c-11 -10 -8 -41 5 -49 14 -9 38 23 31 42 -5 15 -25 19
-36 7z"/>
<path d="M2847 3954 c-8 -8 1 -24 14 -24 5 0 9 7 9 15 0 15 -12 20 -23 9z"/>
<path d="M3750 3945 c0 -9 5 -15 11 -13 6 2 11 8 11 13 0 5 -5 11 -11 13 -6 2
-11 -4 -11 -13z"/>
<path d="M944 3939 c-10 -17 13 -36 27 -22 12 12 4 33 -11 33 -5 0 -12 -5 -16
-11z"/>
<path d="M1247 3942 c-13 -20 -21 -122 -10 -122 26 0 36 30 27 83 -6 33 -12
47 -17 39z"/>
<path d="M1457 3919 c-3 -11 -3 -27 0 -35 8 -22 33 3 33 32 0 30 -26 32 -33 3z"/>
<path d="M2264 3917 c-15 -31 -114 -210 -195 -353 -38 -66 -75 -138 -82 -160
-8 -21 -17 -96 -21 -166 -5 -100 -14 -154 -42 -250 -43 -153 -56 -228 -52
-297 l3 -54 56 79 c66 92 88 133 165 315 31 74 71 163 89 199 61 121 66 149
66 326 -1 95 5 206 14 269 8 60 14 110 12 111 -1 1 -7 -7 -13 -19z m-155 -546
c-13 -37 -39 -62 -39 -38 0 26 22 67 36 67 10 0 11 -7 3 -29z m-71 -229 c4
-27 -33 -50 -42 -26 -8 20 12 56 27 51 7 -2 13 -13 15 -25z"/>
<path d="M3855 3914 c-22 -23 -15 -58 12 -62 30 -4 53 39 33 63 -16 19 -25 19
-45 -1z"/>
<path d="M2675 3910 c-4 -6 -3 -16 3 -22 6 -6 12 -6 17 2 4 6 3 16 -3 22 -6 6
-12 6 -17 -2z"/>
<path d="M2185 3900 c-4 -6 -3 -16 3 -22 6 -6 12 -6 17 2 4 6 3 16 -3 22 -6 6
-12 6 -17 -2z"/>
<path d="M4902 3868 c-12 -24 -34 -63 -48 -88 -19 -34 -24 -54 -21 -84 7 -49
19 -61 45 -45 41 26 52 62 51 163 -1 53 -3 96 -3 96 -1 0 -12 -19 -24 -42z"/>
<path d="M3672 3886 c1 -10 8 -17 13 -17 15 1 12 24 -3 29 -9 3 -13 -2 -10
-12z"/>
<path d="M5046 3821 c-76 -86 -87 -103 -115 -176 -23 -62 -38 -191 -19 -161
37 55 78 91 140 122 l68 34 0 130 c0 72 -1 130 -2 129 -2 0 -34 -35 -72 -78z"/>
<path d="M3735 3879 c-10 -15 3 -25 16 -12 7 7 7 13 1 17 -6 3 -14 1 -17 -5z"/>
<path d="M2721 3803 c-30 -37 -37 -71 -19 -90 14 -13 18 -12 37 8 22 24 30 92
12 104 -5 3 -19 -7 -30 -22z"/>
<path d="M3230 3814 c0 -9 5 -14 12 -12 18 6 21 28 4 28 -9 0 -16 -7 -16 -16z"/>
<path d="M2297 3806 c-7 -19 18 -42 28 -26 8 13 -1 40 -14 40 -5 0 -11 -6 -14
-14z"/>
<path d="M462 3796 c1 -10 8 -17 13 -17 15 1 12 24 -3 29 -9 3 -13 -2 -10 -12z"/>
<path d="M4667 3803 c-12 -12 -7 -50 8 -63 13 -11 15 -8 15 16 0 32 -13 58
-23 47z"/>
<path d="M896 3710 c-31 -95 -30 -119 6 -178 17 -28 22 -31 36 -20 8 7 21 28
29 46 13 30 12 44 -8 130 -12 54 -24 100 -28 104 -3 3 -19 -33 -35 -82z"/>
<path d="M1650 3785 c0 -8 5 -15 10 -15 6 0 10 7 10 15 0 8 -4 15 -10 15 -5 0
-10 -7 -10 -15z"/>
<path d="M3667 3780 c-31 -25 -35 -50 -9 -50 24 0 50 21 54 44 4 27 -15 30
-45 6z"/>
<path d="M3768 3776 c-9 -13 -47 -38 -85 -57 -141 -70 -221 -197 -239 -380
l-7 -71 24 7 c86 26 192 127 247 237 30 59 87 258 80 277 -2 5 -11 -1 -20 -13z
m-102 -183 c-10 -10 -19 5 -10 18 6 11 8 11 12 0 2 -7 1 -15 -2 -18z"/>
<path d="M802 3758 c2 -12 11 -24 21 -26 14 -3 18 1 15 20 -2 12 -11 24 -21
26 -14 3 -18 -1 -15 -20z"/>
<path d="M2625 3771 c-6 -11 9 -23 19 -14 9 9 7 23 -3 23 -6 0 -12 -4 -16 -9z"/>
<path d="M112 3749 c2 -6 8 -10 13 -10 5 0 11 4 13 10 2 6 -4 11 -13 11 -9 0
-15 -5 -13 -11z"/>
<path d="M3080 3750 c0 -5 5 -10 10 -10 6 0 10 5 10 10 0 6 -4 10 -10 10 -5 0
-10 -4 -10 -10z"/>
<path d="M3495 3751 c-3 -5 -1 -12 5 -16 5 -3 10 1 10 9 0 18 -6 21 -15 7z"/>
<path d="M280 3735 c0 -31 -70 -153 -126 -221 -60 -73 -84 -118 -84 -157 0
-28 29 -117 38 -117 4 0 27 30 52 66 71 103 72 104 65 69 -4 -16 -9 -47 -12
-68 -5 -34 -3 -38 13 -35 17 3 19 14 20 88 0 48 8 111 17 145 18 61 35 245 24
245 -4 0 -7 -7 -7 -15z"/>
<path d="M2534 3721 c-45 -28 -64 -59 -64 -108 0 -39 2 -43 24 -43 13 0 35 12
50 26 22 23 26 35 26 85 0 33 -1 59 -2 59 -2 0 -17 -9 -34 -19z"/>
<path d="M3548 3726 c-18 -13 -23 -37 -11 -49 7 -8 63 41 63 55 0 12 -33 9
-52 -6z"/>
<path d="M435 3715 c4 -11 12 -92 20 -180 14 -167 30 -231 73 -299 14 -23 33
-61 43 -85 13 -35 18 -40 22 -25 3 10 17 63 32 118 42 150 25 212 -95 361 -36
45 -74 93 -83 106 -15 20 -17 21 -12 4z"/>
<path d="M2622 3695 c2 -14 8 -26 13 -26 6 0 11 12 13 26 2 18 -1 25 -13 25
-12 0 -15 -7 -13 -25z"/>
<path d="M3117 3702 c-21 -23 -22 -46 -3 -61 19 -16 45 -3 52 25 13 50 -17 71
-49 36z"/>
<path d="M1780 3685 c0 -8 5 -15 10 -15 6 0 10 7 10 15 0 8 -4 15 -10 15 -5 0
-10 -7 -10 -15z"/>
<path d="M4446 3673 c-8 -19 8 -38 23 -29 16 10 13 46 -3 46 -8 0 -17 -8 -20
-17z"/>
<path d="M145 3670 c-4 -6 -3 -16 3 -22 6 -6 12 -6 17 2 4 6 3 16 -3 22 -6 6
-12 6 -17 -2z"/>
<path d="M372 3666 c1 -10 8 -17 13 -17 15 1 12 24 -3 29 -9 3 -13 -2 -10 -12z"/>
<path d="M2740 3645 c-7 -13 -49 -54 -93 -91 -86 -73 -148 -156 -173 -238 -9
-30 -20 -114 -24 -201 -5 -82 -15 -184 -23 -225 -9 -41 -18 -120 -21 -175 l-6
-100 26 45 c14 25 42 65 62 89 41 51 233 424 262 512 24 70 25 168 4 224 -25
64 -27 92 -10 136 19 47 16 62 -4 24z m-106 -394 c-4 -63 -64 -115 -64 -53 0
34 36 95 53 89 7 -2 11 -18 11 -36z m-13 -183 c3 -34 -21 -78 -43 -78 -11 0
-10 47 2 71 12 21 39 26 41 7z"/>
<path d="M3210 3562 l-35 -107 -5 69 -5 68 -60 -44 c-73 -55 -90 -73 -110
-121 -17 -40 -20 -154 -5 -177 5 -8 10 -10 10 -4 0 7 25 31 56 54 31 23 63 51
72 61 15 17 62 27 62 14 0 -19 -52 -108 -93 -159 -59 -74 -82 -118 -91 -172
-7 -47 8 -100 31 -108 23 -9 81 31 111 76 23 36 27 54 32 152 4 61 16 149 28
196 17 68 45 298 38 307 -1 1 -18 -46 -36 -105z"/>
<path d="M747 3653 c-12 -11 -8 -23 8 -23 8 0 15 7 15 15 0 16 -12 20 -23 8z"/>
<path d="M3474 3635 c-7 -18 2 -45 15 -45 12 0 24 37 16 50 -9 15 -25 12 -31
-5z"/>
<path d="M1495 3626 c-58 -25 -112 -109 -153 -236 -22 -69 -42 -167 -42 -209
0 -24 3 -22 51 24 52 52 177 218 217 289 29 54 29 110 0 130 -27 19 -34 19
-73 2z"/>
<path d="M4326 3621 c-19 -21 -19 -62 0 -68 19 -6 45 28 42 55 -4 33 -20 38
-42 13z"/>
<path d="M1660 3610 c0 -11 7 -20 15 -20 8 0 15 9 15 20 0 11 -7 20 -15 20 -8
0 -15 -9 -15 -20z"/>
<path d="M2997 3613 c-13 -12 -7 -23 13 -23 11 0 20 7 20 15 0 15 -21 21 -33
8z"/>
<path d="M110 3569 c0 -11 5 -17 10 -14 6 3 10 13 10 21 0 8 -4 14 -10 14 -5
0 -10 -9 -10 -21z"/>
<path d="M670 3565 c0 -8 5 -15 10 -15 6 0 10 7 10 15 0 8 -4 15 -10 15 -5 0
-10 -7 -10 -15z"/>
<path d="M380 3538 c0 -18 4 -40 9 -47 8 -12 11 -9 16 11 8 30 -1 68 -16 68
-5 0 -9 -15 -9 -32z"/>
<path d="M2537 3563 c-14 -13 -6 -33 13 -33 13 0 20 7 20 20 0 19 -20 27 -33
13z"/>
<path d="M4820 3535 c0 -8 7 -15 15 -15 8 0 15 7 15 15 0 8 -7 15 -15 15 -8 0
-15 -7 -15 -15z"/>
<path d="M736 3498 c-15 -36 -13 -59 7 -86 7 -9 13 -9 23 -1 18 15 18 48 0 90
l-15 34 -15 -37z"/>
<path d="M3385 3520 c-7 -12 2 -30 16 -30 12 0 12 27 0 35 -5 3 -12 1 -16 -5z"/>
<path d="M5067 3503 c-21 -40 -22 -79 -1 -87 22 -8 22 -8 33 13 7 13 6 32 -2
62 l-13 44 -17 -32z"/>
<path d="M666 3503 c-11 -11 -6 -23 9 -23 8 0 15 4 15 9 0 13 -16 22 -24 14z"/>
<path d="M1623 3484 c-7 -18 11 -39 26 -30 17 11 13 46 -4 46 -9 0 -18 -7 -22
-16z"/>
<path d="M3304 3475 c-19 -29 -10 -65 16 -65 23 0 40 28 40 64 0 34 -34 35
-56 1z"/>
<path d="M4697 3483 c-13 -12 -7 -33 8 -33 8 0 15 9 15 20 0 20 -11 26 -23 13z"/>
<path d="M4962 3461 c-6 -16 -24 -39 -41 -52 -40 -29 -63 -78 -55 -118 9 -43
18 -46 54 -14 26 24 33 40 46 117 16 91 14 119 -4 67z"/>
<path d="M1100 3459 c0 -24 23 -21 28 4 2 10 -3 17 -12 17 -10 0 -16 -9 -16
-21z"/>
<path d="M4230 3454 c0 -9 5 -14 12 -12 18 6 21 28 4 28 -9 0 -16 -7 -16 -16z"/>
<path d="M6 3444 c-3 -9 -6 -50 -5 -92 1 -66 2 -71 9 -37 19 100 17 183 -4
129z"/>
<path d="M399 3407 c-11 -51 -10 -62 4 -92 32 -67 65 -30 46 53 -5 25 -16 56
-23 70 -13 26 -14 25 -27 -31z"/>
<path d="M820 3445 c0 -8 5 -15 10 -15 6 0 10 7 10 15 0 8 -4 15 -10 15 -5 0
-10 -7 -10 -15z"/>
<path d="M2890 3416 c0 -9 7 -16 16 -16 9 0 14 5 12 12 -6 18 -28 21 -28 4z"/>
<path d="M4640 3410 c0 -5 5 -10 10 -10 6 0 10 5 10 10 0 6 -4 10 -10 10 -5 0
-10 -4 -10 -10z"/>
<path d="M297 3396 c-6 -15 1 -26 15 -26 11 0 10 27 -1 34 -5 3 -11 0 -14 -8z"/>
<path d="M2330 3395 c0 -8 5 -15 10 -15 6 0 10 7 10 15 0 8 -4 15 -10 15 -5 0
-10 -7 -10 -15z"/>
<path d="M4746 3359 c-15 -43 -36 -69 -118 -148 -118 -114 -164 -192 -178
-310 -5 -39 -23 -102 -39 -139 -40 -91 -117 -305 -153 -427 -25 -82 -31 -123
-34 -230 l-5 -130 31 64 c17 36 47 89 66 119 20 29 52 93 71 140 46 115 63
148 141 271 81 131 112 199 157 345 19 64 42 131 51 147 22 43 11 47 -18 7
-13 -18 -44 -60 -69 -93 l-44 -60 -3 55 c-5 76 9 114 79 220 63 95 93 164 87
200 -2 16 -8 7 -22 -31z m-276 -708 c0 -5 -7 -17 -16 -26 -19 -19 -38 -7 -28
18 6 18 44 24 44 8z m-132 -348 c4 -35 -19 -51 -39 -27 -9 11 -9 20 0 40 15
33 35 26 39 -13z"/>
<path d="M3895 3390 c-8 -13 4 -32 16 -25 12 8 12 35 0 35 -6 0 -13 -4 -16
-10z"/>
<path d="M4176 3318 c-28 -57 -64 -107 -124 -172 -100 -108 -132 -168 -132
-247 0 -69 16 -118 69 -205 l40 -66 -1 73 c0 71 1 76 65 200 91 173 115 250
123 387 4 62 5 112 3 111 -2 0 -22 -37 -43 -81z"/>
<path d="M832 3379 c2 -6 8 -10 13 -10 5 0 11 4 13 10 2 6 -4 11 -13 11 -9 0
-15 -5 -13 -11z"/>
<path d="M960 3375 c-18 -21 -4 -65 20 -65 27 0 44 34 30 60 -13 24 -33 26
-50 5z"/>
<path d="M4630 3355 c0 -8 5 -15 10 -15 6 0 10 7 10 15 0 8 -4 15 -10 15 -5 0
-10 -7 -10 -15z"/>
<path d="M3270 3335 c0 -17 5 -25 13 -22 6 2 12 12 12 22 0 10 -6 20 -12 23
-8 2 -13 -6 -13 -23z"/>
<path d="M3334 3345 c-3 -8 -3 -19 0 -24 10 -16 36 -1 36 20 0 22 -28 26 -36
4z"/>
<path d="M703 3343 c-7 -3 -13 -16 -13 -30 0 -20 4 -24 23 -21 13 2 23 11 25
24 3 22 -13 34 -35 27z"/>
<path d="M1562 3333 c-25 -9 -62 -82 -62 -120 l0 -38 45 47 c33 34 45 55 45
77 0 32 -7 41 -28 34z"/>
<path d="M2384 3326 c-8 -22 -1 -59 13 -64 20 -6 39 44 23 63 -16 19 -29 19
-36 1z"/>
<path d="M3863 3322 c-16 -10 -27 -59 -15 -66 6 -3 18 1 26 10 27 26 17 73
-11 56z"/>
<path d="M2273 3304 c-8 -21 13 -42 28 -27 13 13 5 43 -11 43 -6 0 -13 -7 -17
-16z"/>
<path d="M5016 3313 c-11 -11 -6 -23 9 -23 8 0 15 4 15 9 0 13 -16 22 -24 14z"/>
<path d="M1096 3282 c-21 -41 -20 -75 3 -96 45 -41 68 25 32 93 l-18 35 -17
-32z"/>
<path d="M2874 3256 c-43 -69 -47 -86 -38 -163 6 -56 8 -63 18 -46 6 10 23 35
39 55 24 31 27 43 26 104 -1 103 -8 112 -45 50z"/>
<path d="M2796 3269 c-16 -24 -20 -89 -8 -122 5 -12 13 4 26 54 20 77 12 110
-18 68z"/>
<path d="M3555 3279 c-4 -6 -5 -13 -2 -16 7 -7 27 6 27 18 0 12 -17 12 -25 -2z"/>
<path d="M5040 3260 c0 -5 5 -10 10 -10 6 0 10 5 10 10 0 6 -4 10 -10 10 -5 0
-10 -4 -10 -10z"/>
<path d="M770 3241 c0 -24 18 -37 31 -24 13 13 1 43 -17 43 -8 0 -14 -9 -14
-19z"/>
<path d="M877 3254 c-4 -4 -7 -18 -7 -30 0 -13 -19 -74 -41 -136 -64 -173 -88
-273 -88 -360 -1 -80 26 -228 41 -228 4 0 8 4 8 9 0 5 33 55 74 112 40 57 81
126 90 152 23 69 20 151 -10 253 -14 49 -33 122 -43 162 -9 40 -20 70 -24 66z"/>
<path d="M1907 3253 c-13 -12 -8 -95 5 -91 15 5 26 45 20 76 -4 22 -13 28 -25
15z"/>
<path d="M360 3199 c0 -24 -7 -84 -15 -134 -21 -131 -19 -208 14 -373 16 -81
32 -175 36 -210 4 -35 9 -61 12 -58 11 11 94 225 107 276 34 131 28 282 -14
377 -10 23 -46 70 -79 104 l-61 61 0 -43z"/>
<path d="M996 3218 c-21 -29 -21 -88 -1 -88 25 0 48 45 40 80 -8 36 -18 38
-39 8z"/>
<path d="M3344 3198 c-27 -60 -86 -138 -189 -248 -114 -122 -144 -183 -152
-311 l-6 -93 45 47 c24 26 52 47 60 47 21 0 28 -48 28 -189 l0 -114 31 43 c29
40 116 226 189 405 41 100 55 218 41 338 -6 52 -11 100 -11 106 0 24 -18 8
-36 -31z m-104 -322 c0 -29 -21 -48 -40 -36 -11 7 -12 14 -2 34 15 33 42 34
42 2z m-106 -135 c9 -14 -4 -41 -20 -41 -8 0 -14 10 -14 25 0 25 23 35 34 16z"/>
<path d="M3462 3209 c2 -6 8 -10 13 -10 5 0 11 4 13 10 2 6 -4 11 -13 11 -9 0
-15 -5 -13 -11z"/>
<path d="M3892 3208 c-15 -15 -16 -45 -2 -53 16 -10 41 16 38 38 -4 25 -20 31
-36 15z"/>
<path d="M2260 3190 c0 -11 5 -20 10 -20 6 0 10 9 10 20 0 11 -4 20 -10 20 -5
0 -10 -9 -10 -20z"/>
<path d="M4722 3199 c2 -6 8 -10 13 -10 5 0 11 4 13 10 2 6 -4 11 -13 11 -9 0
-15 -5 -13 -11z"/>
<path d="M16 3174 c-4 -10 -1 -14 6 -12 15 5 23 28 10 28 -5 0 -13 -7 -16 -16z"/>
<path d="M5063 3183 c-7 -3 -13 -16 -13 -29 0 -17 6 -24 20 -24 15 0 20 7 20
24 0 27 -8 36 -27 29z"/>
<path d="M98 2863 c1 -175 4 -328 5 -340 2 -19 11 -12 57 43 30 35 69 90 85
122 28 53 30 64 30 167 0 101 -2 115 -29 169 -31 63 -113 156 -137 156 -12 0
-14 -46 -11 -317z"/>
<path d="M4816 3159 c-33 -26 -32 -62 1 -67 28 -4 63 31 63 63 0 32 -27 33
-64 4z"/>
<path d="M2371 3161 c-15 -10 -8 -41 9 -41 15 0 25 29 14 40 -5 5 -15 5 -23 1z"/>
<path d="M3787 3163 c-12 -11 -8 -23 8 -23 8 0 15 7 15 15 0 16 -12 20 -23 8z"/>
<path d="M267 3154 c-13 -13 -7 -62 8 -68 18 -7 28 13 23 45 -3 23 -19 35 -31
23z"/>
<path d="M656 3134 c-19 -18 -21 -45 -4 -62 35 -35 82 11 53 54 -18 28 -28 30
-49 8z"/>
<path d="M3537 3144 c-11 -11 -8 -44 3 -44 15 0 24 30 13 41 -5 5 -12 6 -16 3z"/>
<path d="M2215 3130 c-8 -13 4 -32 16 -25 12 8 12 35 0 35 -6 0 -13 -4 -16
-10z"/>
<path d="M1257 3114 c-8 -8 1 -24 14 -24 5 0 9 7 9 15 0 15 -12 20 -23 9z"/>
<path d="M18 3102 c-16 -3 -18 -16 -17 -100 0 -75 3 -91 10 -72 9 21 31 174
26 176 -1 0 -10 -1 -19 -4z"/>
<path d="M4963 3095 c-3 -9 -3 -18 0 -21 9 -9 27 6 27 22 0 19 -19 18 -27 -1z"/>
<path d="M1087 3094 c-4 -4 -7 -20 -7 -36 0 -22 5 -28 21 -28 17 0 20 5 17 32
-3 31 -17 45 -31 32z"/>
<path d="M3849 3071 c-106 -69 -148 -145 -160 -293 -8 -99 -21 -139 -58 -172
-25 -23 -25 -24 -6 38 17 57 20 146 5 146 -6 0 -32 -22 -59 -48 -51 -51 -77
-109 -87 -197 -6 -49 15 -185 23 -155 13 45 13 44 29 28 9 -9 24 -39 33 -68
l17 -52 35 54 c68 102 108 184 133 270 14 48 37 106 52 129 42 67 54 103 63
198 5 49 17 103 26 120 19 38 11 39 -46 2z"/>
<path d="M1490 3074 c0 -17 22 -14 28 4 2 7 -3 12 -12 12 -9 0 -16 -7 -16 -16z"/>
<path d="M2910 3069 c0 -18 2 -19 15 -9 15 12 12 30 -6 30 -5 0 -9 -10 -9 -21z"/>
<path d="M1180 3061 c0 -12 6 -21 16 -21 9 0 14 7 12 17 -5 25 -28 28 -28 4z"/>
<path d="M3538 3055 c-10 -21 -9 -29 5 -42 13 -14 19 -14 32 -3 21 17 16 64
-7 68 -11 2 -22 -6 -30 -23z"/>
<path d="M1825 3047 c-26 -40 5 -79 35 -43 14 18 10 58 -7 63 -6 2 -19 -7 -28
-20z"/>
<path d="M2233 3024 c-85 -74 -149 -228 -129 -310 l7 -28 25 41 c13 23 39 51
58 62 30 19 35 29 46 88 7 37 26 91 41 121 16 30 29 58 29 63 0 20 -28 7 -77
-37z"/>
<path d="M4760 3060 c0 -5 5 -10 11 -10 5 0 7 5 4 10 -3 6 -8 10 -11 10 -2 0
-4 -4 -4 -10z"/>
<path d="M1318 3041 c-58 -46 -73 -146 -27 -192 18 -18 22 -18 48 -4 64 32 94
114 67 178 -17 43 -48 49 -88 18z"/>
<path d="M2142 3048 c6 -18 28 -21 28 -4 0 9 -7 16 -16 16 -9 0 -14 -5 -12
-12z"/>
<path d="M4330 3040 c0 -5 7 -10 15 -10 8 0 15 5 15 10 0 6 -7 10 -15 10 -8 0
-15 -4 -15 -10z"/>
<path d="M4388 2989 c-26 -34 -51 -77 -54 -97 -8 -39 13 -113 32 -119 17 -6
54 77 54 120 0 20 5 59 11 87 6 27 9 55 7 60 -2 6 -24 -17 -50 -51z"/>
<path d="M5035 3016 c-112 -51 -215 -233 -215 -377 0 -21 -5 -50 -10 -64 l-10
-27 28 24 c16 13 58 32 94 42 79 21 124 56 163 127 28 50 30 63 33 177 5 140
5 140 -83 98z m-15 -204 c0 -30 -16 -52 -37 -52 -16 0 -17 34 -3 61 16 29 40
24 40 -9z"/>
<path d="M2650 3011 c-17 -33 -12 -53 13 -49 17 2 23 11 25 36 4 37 -20 45
-38 13z"/>
<path d="M2312 2975 c-49 -76 -61 -127 -41 -183 13 -37 20 -35 60 20 31 43 36
89 20 173 l-7 40 -32 -50z"/>
<path d="M614 2996 c-9 -24 0 -51 18 -54 20 -4 40 30 32 52 -8 20 -43 21 -50
2z"/>
<path d="M4876 3002 c-11 -18 -17 -80 -8 -86 12 -7 62 56 62 78 0 16 -44 23
-54 8z"/>
<path d="M1014 2985 c-3 -8 -3 -19 1 -25 10 -16 35 7 28 26 -7 18 -22 18 -29
-1z"/>
<path d="M1734 2986 c-7 -19 3 -36 22 -36 10 0 14 8 12 22 -4 26 -26 36 -34
14z"/>
<path d="M1160 2976 c0 -8 5 -18 10 -21 6 -3 10 3 10 14 0 12 -4 21 -10 21 -5
0 -10 -6 -10 -14z"/>
<path d="M4787 2954 c-54 -39 -81 -89 -71 -132 12 -47 22 -54 58 -34 17 9 34
22 39 27 17 24 43 175 29 175 -4 0 -29 -16 -55 -36z"/>
<path d="M2735 2912 c-60 -83 -108 -179 -174 -346 -39 -99 -68 -152 -121 -226
-39 -54 -77 -116 -85 -140 -24 -67 -19 -169 14 -294 17 -61 31 -124 33 -141 2
-24 10 -9 35 68 21 64 51 127 86 180 85 131 98 173 122 398 18 155 53 308 109
463 20 55 34 101 33 103 -2 1 -25 -28 -52 -65z m-225 -752 c0 -32 -22 -70 -42
-70 -26 0 -24 54 2 80 23 23 40 19 40 -10z"/>
<path d="M3431 2966 c-9 -11 -9 -16 0 -21 10 -7 28 10 29 28 0 12 -17 8 -29
-7z"/>
<path d="M1832 2914 c4 -21 22 -23 26 -1 2 10 -3 17 -13 17 -10 0 -15 -6 -13
-16z"/>
<path d="M3564 2916 c-9 -24 4 -48 23 -44 12 2 18 12 18 28 0 29 -32 41 -41
16z"/>
<path d="M1101 2903 c-6 -12 -11 -36 -11 -53 0 -25 4 -31 18 -28 20 4 27 43
14 78 l-9 24 -12 -21z"/>
<path d="M4250 2910 c0 -5 5 -10 10 -10 6 0 10 5 10 10 0 6 -4 10 -10 10 -5 0
-10 -4 -10 -10z"/>
<path d="M660 2890 c0 -19 11 -26 23 -14 8 8 -3 34 -14 34 -5 0 -9 -9 -9 -20z"/>
<path d="M2817 2903 c-11 -10 -8 -41 5 -49 17 -11 40 26 27 43 -13 14 -22 16
-32 6z"/>
<path d="M596 2893 c-11 -11 -6 -23 9 -23 8 0 15 4 15 9 0 13 -16 22 -24 14z"/>
<path d="M1591 2825 c-30 -67 -32 -78 -21 -105 7 -16 19 -35 28 -42 13 -11 15
-10 9 12 -3 14 2 57 12 95 9 39 15 80 12 93 -5 18 -12 8 -40 -53z"/>
<path d="M2606 2883 c-9 -22 10 -41 25 -26 13 13 5 43 -10 43 -5 0 -12 -8 -15
-17z"/>
<path d="M2940 2881 c0 -11 4 -21 9 -21 18 0 21 18 6 30 -13 10 -15 9 -15 -9z"/>
<path d="M1743 2864 c-7 -18 11 -39 26 -30 17 11 13 46 -4 46 -9 0 -18 -7 -22
-16z"/>
<path d="M48 2819 c-22 -12 -24 -39 -3 -39 16 0 29 22 23 39 -2 6 -9 6 -20 0z"/>
<path d="M1196 2788 c11 -66 30 -114 78 -191 24 -40 51 -96 60 -124 13 -46 31
-175 38 -283 3 -31 9 -21 56 87 66 154 79 214 63 289 -18 77 -57 119 -156 164
-47 22 -92 50 -107 69 -15 17 -29 31 -32 31 -4 0 -3 -19 0 -42z"/>
<path d="M2062 2818 c6 -18 28 -21 28 -4 0 9 -7 16 -16 16 -9 0 -14 -5 -12
-12z"/>
<path d="M4061 2799 c-14 -41 -14 -72 1 -104 15 -34 34 -32 54 6 18 36 13 83
-13 111 -22 25 -29 23 -42 -13z"/>
<path d="M1452 2808 c-16 -16 -15 -33 4 -48 22 -19 54 12 38 37 -14 22 -27 26
-42 11z"/>
<path d="M1674 2807 c-8 -21 1 -47 16 -47 19 0 23 31 7 48 -15 14 -17 14 -23
-1z"/>
<path d="M2980 2811 c0 -6 5 -13 10 -16 6 -3 10 1 10 9 0 9 -4 16 -10 16 -5 0
-10 -4 -10 -9z"/>
<path d="M4200 2805 c0 -8 7 -15 15 -15 8 0 15 7 15 15 0 8 -7 15 -15 15 -8 0
-15 -7 -15 -15z"/>
<path d="M590 2794 c0 -8 5 -12 10 -9 6 3 10 10 10 16 0 5 -4 9 -10 9 -5 0
-10 -7 -10 -16z"/>
<path d="M3420 2795 c0 -8 5 -15 10 -15 6 0 10 7 10 15 0 8 -4 15 -10 15 -5 0
-10 -7 -10 -15z"/>
<path d="M3517 2795 c-7 -16 8 -29 23 -20 15 9 12 35 -4 35 -8 0 -16 -7 -19
-15z"/>
<path d="M2770 2785 c0 -9 5 -15 11 -13 6 2 11 8 11 13 0 5 -5 11 -11 13 -6 2
-11 -4 -11 -13z"/>
<path d="M2300 2705 c-41 -47 -83 -101 -92 -118 -22 -41 -35 -110 -42 -222
l-6 -89 27 25 c16 14 53 44 85 67 81 59 112 126 116 247 1 50 -1 109 -5 133
l-8 43 -75 -86z"/>
<path d="M1002 2753 c4 -21 33 -25 33 -3 0 8 -8 16 -18 18 -14 3 -18 -1 -15
-15z"/>
<path d="M2514 2736 c-35 -35 -42 -63 -24 -97 15 -27 34 -24 64 12 18 21 26
42 26 69 0 53 -23 59 -66 16z"/>
<path d="M3870 2735 c-9 -10 -10 -19 -4 -25 13 -13 49 13 40 28 -10 16 -21 15
-36 -3z"/>
<path d="M4675 2740 c-3 -5 -1 -10 4 -10 6 0 11 5 11 10 0 6 -2 10 -4 10 -3 0
-8 -4 -11 -10z"/>
<path d="M45 2721 c-19 -22 -17 -56 5 -56 15 0 33 62 20 70 -4 2 -15 -4 -25
-14z"/>
<path d="M661 2675 c-48 -154 -69 -373 -42 -439 6 -16 38 -64 70 -107 60 -78
79 -132 67 -181 -3 -13 6 1 21 31 32 66 41 164 24 253 -7 35 -32 122 -56 193
-47 139 -69 249 -59 290 13 53 -6 22 -25 -40z"/>
<path d="M2873 2688 c-30 -29 -67 -75 -81 -103 -23 -43 -26 -62 -26 -140 0
-75 5 -102 28 -160 16 -38 32 -74 36 -78 4 -4 10 20 13 54 4 44 17 85 46 145
34 68 41 93 41 141 0 32 7 85 14 118 22 94 9 98 -71 23z"/>
<path d="M1130 2699 c0 -41 16 -69 40 -69 29 0 27 50 -3 78 -31 29 -37 28 -37
-9z"/>
<path d="M1472 2699 c1 -13 8 -23 13 -21 15 3 12 35 -3 40 -9 3 -13 -3 -10
-19z"/>
<path d="M2164 2705 c-10 -25 7 -40 23 -20 7 11 13 22 13 27 0 14 -30 9 -36
-7z"/>
<path d="M3364 2706 c-8 -22 3 -33 18 -18 9 9 9 15 0 24 -9 9 -13 7 -18 -6z"/>
<path d="M2003 2676 c-104 -64 -128 -104 -139 -221 -8 -91 -7 -91 87 -7 70 64
119 152 119 216 0 25 -3 46 -7 45 -5 0 -32 -15 -60 -33z"/>
<path d="M4206 2678 c-20 -28 -21 -54 -2 -61 20 -8 36 13 36 44 0 37 -15 44
-34 17z"/>
<path d="M567 2684 c-8 -8 1 -24 14 -24 5 0 9 7 9 15 0 15 -12 20 -23 9z"/>
<path d="M2770 2660 c0 -5 5 -10 10 -10 6 0 10 5 10 10 0 6 -4 10 -10 10 -5 0
-10 -4 -10 -10z"/>
<path d="M4295 2660 c-4 -6 -3 -16 3 -22 6 -6 12 -6 17 2 4 6 3 16 -3 22 -6 6
-12 6 -17 -2z"/>
<path d="M982 2649 c2 -6 8 -10 13 -10 5 0 11 4 13 10 2 6 -4 11 -13 11 -9 0
-15 -5 -13 -11z"/>
<path d="M4734 2646 c-8 -22 3 -33 18 -18 9 9 9 15 0 24 -9 9 -13 7 -18 -6z"/>
<path d="M295 2630 c-8 -27 10 -49 26 -33 13 13 8 45 -8 50 -6 2 -14 -6 -18
-17z"/>
<path d="M3431 2558 c-43 -122 -67 -162 -156 -257 -75 -81 -115 -143 -115
-181 0 -12 -9 -58 -20 -102 -12 -44 -20 -84 -18 -89 2 -4 23 5 48 22 151 102
203 164 250 300 25 71 30 99 30 185 0 56 5 125 10 154 6 29 8 55 6 57 -2 2
-18 -38 -35 -89z m-236 -486 c-6 -16 -7 -16 -16 0 -7 12 -6 25 3 40 l13 23 3
-23 c2 -13 1 -31 -3 -40z"/>
<path d="M3822 2611 c-1 -21 -11 -71 -21 -110 -21 -81 -18 -110 22 -183 l25
-48 22 45 c29 60 35 112 20 176 -11 43 -57 159 -63 159 -1 0 -3 -17 -5 -39z"/>
<path d="M1703 2615 c-3 -9 -3 -18 0 -21 9 -9 27 6 27 22 0 19 -19 18 -27 -1z"/>
<path d="M1783 2589 c-7 -24 -31 -75 -54 -113 -102 -169 -135 -282 -122 -425
4 -53 7 -105 7 -116 -1 -11 -5 -67 -8 -125 l-7 -105 31 45 c80 116 121 227
135 365 4 39 16 120 26 180 19 112 23 214 11 294 l-7 45 -12 -45z"/>
<path d="M4612 2617 c-19 -22 -23 -61 -10 -80 30 -41 72 19 49 69 -12 27 -23
30 -39 11z"/>
<path d="M1593 2594 c-8 -21 13 -42 28 -27 13 13 5 43 -11 43 -6 0 -13 -7 -17
-16z"/>
<path d="M2722 2594 c4 -21 22 -23 26 -1 2 10 -3 17 -13 17 -10 0 -15 -6 -13
-16z"/>
<path d="M3033 2543 c-40 -40 -82 -95 -97 -125 -30 -62 -73 -226 -81 -313 -8
-81 3 -61 70 121 29 80 65 162 79 182 14 20 44 62 67 93 31 42 40 63 37 85 -4
29 -4 29 -75 -43z"/>
<path d="M4085 2577 c-23 -44 -13 -92 20 -92 25 0 32 48 13 95 l-13 33 -20
-36z"/>
<path d="M5080 2594 c0 -9 5 -14 12 -12 18 6 21 28 4 28 -9 0 -16 -7 -16 -16z"/>
<path d="M3310 2585 c-15 -18 -6 -45 14 -45 16 0 31 34 21 50 -9 14 -21 12
-35 -5z"/>
<path d="M4953 2584 c-7 -20 9 -49 28 -49 22 0 18 59 -4 63 -9 2 -20 -4 -24
-14z"/>
<path d="M547 2584 c-8 -8 1 -24 14 -24 5 0 9 7 9 15 0 15 -12 20 -23 9z"/>
<path d="M961 2502 c-16 -66 -19 -95 -12 -119 10 -35 58 -103 72 -103 10 0 44
64 53 102 10 43 -12 111 -53 161 l-38 45 -22 -86z"/>
<path d="M1074 2566 c-6 -17 2 -36 17 -36 12 0 12 37 -1 45 -6 3 -13 -1 -16
-9z"/>
<path d="M2467 2574 c-8 -8 1 -24 14 -24 5 0 9 7 9 15 0 15 -12 20 -23 9z"/>
<path d="M220 2551 c0 -12 6 -21 16 -21 9 0 14 7 12 17 -5 25 -28 28 -28 4z"/>
<path d="M3937 2564 c-8 -8 1 -24 14 -24 5 0 9 7 9 15 0 15 -12 20 -23 9z"/>
<path d="M20 2530 c0 -13 5 -20 13 -17 6 2 12 10 12 17 0 7 -6 15 -12 18 -8 2
-13 -5 -13 -18z"/>
<path d="M484 2463 c-63 -87 -130 -221 -143 -287 -6 -32 -7 -150 -3 -319 l7
-267 42 62 c50 73 103 196 126 288 17 67 61 439 54 447 -3 2 -15 -10 -27 -26
-12 -17 -26 -31 -32 -31 -15 0 -3 109 17 156 8 21 14 39 12 40 -2 2 -26 -26
-53 -63z"/>
<path d="M881 2510 c-17 -10 -7 -40 14 -40 8 0 15 9 15 19 0 24 -12 32 -29 21z"/>
<path d="M4836 2513 c-11 -11 -6 -23 9 -23 8 0 15 4 15 9 0 13 -16 22 -24 14z"/>
<path d="M5042 2476 c-54 -59 -61 -98 -30 -167 l24 -53 35 49 c31 45 34 57 33
115 0 36 -5 73 -10 83 -9 16 -15 13 -52 -27z"/>
<path d="M1180 2494 c0 -17 22 -14 28 4 2 7 -3 12 -12 12 -9 0 -16 -7 -16 -16z"/>
<path d="M1574 2489 c-10 -17 13 -36 27 -22 12 12 4 33 -11 33 -5 0 -12 -5
-16 -11z"/>
<path d="M2403 2488 c-19 -24 -23 -54 -9 -73 17 -24 43 -14 52 21 11 42 -21
80 -43 52z"/>
<path d="M4207 2494 c-8 -8 1 -24 14 -24 5 0 9 7 9 15 0 15 -12 20 -23 9z"/>
<path d="M2052 2478 c6 -18 28 -21 28 -4 0 9 -7 16 -16 16 -9 0 -14 -5 -12
-12z"/>
<path d="M3267 2474 c-15 -15 -7 -45 11 -42 9 2 17 12 17 22 0 20 -16 31 -28
20z"/>
<path d="M4585 2469 c-10 -15 3 -25 16 -12 7 7 7 13 1 17 -6 3 -14 1 -17 -5z"/>
<path d="M3940 2455 c0 -8 5 -15 10 -15 6 0 10 7 10 15 0 8 -4 15 -10 15 -5 0
-10 -7 -10 -15z"/>
<path d="M4114 2417 c-43 -72 -54 -110 -54 -184 0 -68 17 -153 31 -153 16 0
79 127 85 172 6 43 -11 179 -25 205 -4 8 -18 -7 -37 -40z"/>
<path d="M4725 2461 c-3 -5 -1 -12 5 -16 5 -3 10 1 10 9 0 18 -6 21 -15 7z"/>
<path d="M4883 2455 c-122 -33 -223 -116 -277 -228 -41 -83 -48 -142 -36 -317
12 -177 16 -195 33 -163 7 12 50 61 97 110 148 154 198 249 231 434 11 59 24
120 29 134 19 51 12 54 -77 30z m-125 -269 c6 -27 -18 -66 -40 -66 -21 0 -25
38 -7 71 13 24 42 21 47 -5z"/>
<path d="M2700 2445 c0 -8 5 -15 10 -15 6 0 10 7 10 15 0 8 -4 15 -10 15 -5 0
-10 -7 -10 -15z"/>
<path d="M278 2399 c-19 -58 -24 -139 -10 -139 5 0 15 6 24 13 12 10 14 27 9
97 l-6 85 -17 -56z"/>
<path d="M1217 2443 c-12 -11 -8 -23 8 -23 8 0 15 7 15 15 0 16 -12 20 -23 8z"/>
<path d="M102 2428 c-32 -32 0 -84 37 -61 22 14 25 38 6 57 -20 19 -27 20 -43
4z"/>
<path d="M1122 2387 c-28 -66 -28 -93 1 -140 l23 -38 22 44 c27 55 27 69 -2
135 l-22 52 -22 -53z"/>
<path d="M3031 2399 c-28 -38 -57 -106 -49 -114 9 -9 98 109 98 131 0 35 -16
30 -49 -17z"/>
<path d="M20 2421 c0 -6 5 -13 10 -16 6 -3 10 1 10 9 0 9 -4 16 -10 16 -5 0
-10 -4 -10 -9z"/>
<path d="M4620 2410 c0 -15 5 -20 18 -18 9 2 17 10 17 18 0 8 -8 16 -17 18
-13 2 -18 -3 -18 -18z"/>
<path d="M806 2412 c-3 -6 -1 -14 5 -17 15 -10 25 3 12 16 -7 7 -13 7 -17 1z"/>
<path d="M1574 2386 c-8 -22 3 -33 18 -18 9 9 9 15 0 24 -9 9 -13 7 -18 -6z"/>
<path d="M3942 2391 c2 -7 7 -12 11 -12 12 1 9 15 -3 20 -7 2 -11 -2 -8 -8z"/>
<path d="M1953 2383 c-19 -7 -16 -60 3 -67 20 -8 54 10 54 29 0 39 -21 53 -57
38z"/>
<path d="M4490 2375 c-17 -21 -2 -50 26 -50 14 0 19 7 19 30 0 34 -24 45 -45
20z"/>
<path d="M3215 2371 c-7 -12 12 -24 25 -16 11 7 4 25 -10 25 -5 0 -11 -4 -15
-9z"/>
<path d="M3718 2195 c-6 -166 -10 -201 -32 -274 -37 -122 -35 -167 17 -275
l42 -89 44 66 c64 98 75 141 74 288 -1 148 -8 179 -64 270 -22 38 -49 99 -58
136 l-18 68 -5 -190z m70 -432 c-4 -34 -28 -43 -28 -10 0 25 7 37 22 37 5 0 8
-12 6 -27z"/>
<path d="M330 2329 c0 -27 2 -30 15 -19 8 7 15 21 15 31 0 11 -7 19 -15 19
-10 0 -15 -10 -15 -31z"/>
<path d="M850 2340 c-14 -26 0 -46 24 -37 20 8 21 31 2 46 -12 10 -17 8 -26
-9z"/>
<path d="M2277 2322 c-31 -34 -19 -69 17 -50 26 13 36 27 36 51 0 23 -32 22
-53 -1z"/>
<path d="M2018 2272 c-86 -94 -100 -158 -74 -352 l12 -95 27 58 c53 115 95
267 99 360 2 48 1 87 -3 87 -4 0 -31 -26 -61 -58z"/>
<path d="M1471 2264 c-18 -30 -35 -73 -38 -94 -6 -43 4 -130 15 -130 4 0 28
33 55 72 33 50 47 81 47 105 0 36 -24 103 -37 103 -4 0 -23 -26 -42 -56z"/>
<path d="M180 2285 c0 -8 7 -15 15 -15 8 0 15 7 15 15 0 8 -7 15 -15 15 -8 0
-15 -7 -15 -15z"/>
<path d="M3099 2265 c-1 -22 -1 -51 0 -65 4 -45 -9 -88 -40 -126 -31 -38 -31
-40 -26 -124 8 -130 15 -135 50 -33 23 68 30 110 33 188 5 143 5 151 -5 177
-9 20 -10 18 -12 -17z"/>
<path d="M42 2268 l-42 -19 0 -112 0 -112 46 105 c25 58 44 116 42 130 l-3 26
-43 -18z"/>
<path d="M3441 2240 c-7 -25 -24 -67 -38 -94 -20 -40 -23 -53 -14 -72 14 -31
36 -30 56 0 12 18 15 46 13 117 l-3 94 -14 -45z"/>
<path d="M3570 2253 c-23 -21 -31 -35 -27 -47 9 -24 28 -16 50 22 28 47 16 60
-23 25z"/>
<path d="M1260 2255 c0 -8 5 -15 10 -15 6 0 10 7 10 15 0 8 -4 15 -10 15 -5 0
-10 -7 -10 -15z"/>
<path d="M920 2245 c0 -8 7 -15 15 -15 8 0 15 7 15 15 0 8 -7 15 -15 15 -8 0
-15 -7 -15 -15z"/>
<path d="M2690 2245 c0 -8 5 -15 10 -15 6 0 10 7 10 15 0 8 -4 15 -10 15 -5 0
-10 -7 -10 -15z"/>
<path d="M4440 2246 c0 -9 7 -16 16 -16 17 0 14 22 -4 28 -7 2 -12 -3 -12 -12z"/>
<path d="M3150 2235 c0 -8 5 -15 10 -15 6 0 10 7 10 15 0 8 -4 15 -10 15 -5 0
-10 -7 -10 -15z"/>
<path d="M3955 2226 c-12 -18 -13 -30 -6 -50 13 -33 36 -33 57 -1 14 21 15 31
6 50 -15 31 -37 32 -57 1z"/>
<path d="M4512 2234 c4 -21 22 -23 26 -1 2 10 -3 17 -13 17 -10 0 -15 -6 -13
-16z"/>
<path d="M986 2154 c-70 -117 -79 -197 -28 -261 l17 -23 47 40 c54 47 73 92
63 153 -8 46 -42 144 -53 151 -4 2 -24 -25 -46 -60z"/>
<path d="M1840 2205 c0 -8 5 -15 10 -15 6 0 10 7 10 15 0 8 -4 15 -10 15 -5 0
-10 -7 -10 -15z"/>
<path d="M137 2204 c-8 -8 1 -24 14 -24 5 0 9 7 9 15 0 15 -12 20 -23 9z"/>
<path d="M261 2192 c-13 -25 -14 -69 -2 -76 9 -6 26 82 18 91 -3 2 -10 -4 -16
-15z"/>
<path d="M2137 2203 c-13 -12 -7 -33 8 -33 8 0 15 9 15 20 0 20 -11 26 -23 13z"/>
<path d="M3021 2187 c-6 -16 -11 -34 -11 -41 0 -17 28 -41 37 -33 9 10 6 64
-6 84 -9 16 -11 15 -20 -10z"/>
<path d="M3640 2194 c0 -11 -18 -50 -40 -87 -43 -71 -49 -100 -24 -135 19 -28
35 -28 62 1 36 39 43 80 26 160 -15 73 -24 95 -24 61z"/>
<path d="M3852 2186 c1 -10 8 -17 13 -17 15 1 12 24 -3 29 -9 3 -13 -2 -10
-12z"/>
<path d="M4440 2184 c0 -8 5 -12 10 -9 6 4 8 11 5 16 -9 14 -15 11 -15 -7z"/>
<path d="M100 2143 c0 -27 7 -57 16 -68 15 -20 15 -20 30 -1 19 27 18 44 -6
58 -11 7 -20 23 -20 35 0 13 -4 23 -10 23 -5 0 -10 -21 -10 -47z"/>
<path d="M2272 2171 c2 -7 7 -12 11 -12 12 1 9 15 -3 20 -7 2 -11 -2 -8 -8z"/>
<path d="M5006 2173 c-12 -12 -6 -43 9 -43 8 0 15 9 15 19 0 21 -13 34 -24 24z"/>
<path d="M605 2160 c-3 -5 -1 -10 4 -10 6 0 11 5 11 10 0 6 -2 10 -4 10 -3 0
-8 -4 -11 -10z"/>
<path d="M1177 2164 c-4 -4 -7 -18 -7 -31 0 -18 5 -24 18 -21 10 2 17 12 17
27 0 24 -15 37 -28 25z"/>
<path d="M2696 2161 c-10 -16 5 -41 26 -41 14 0 19 6 16 22 -3 24 -32 36 -42
19z"/>
<path d="M4453 2105 c-22 -66 -22 -66 -2 -86 24 -24 40 -15 59 31 14 34 8 65
-18 98 l-18 23 -21 -66z"/>
<path d="M1860 2151 c0 -6 5 -13 10 -16 6 -3 10 1 10 9 0 9 -4 16 -10 16 -5 0
-10 -4 -10 -9z"/>
<path d="M900 2135 c0 -8 7 -15 15 -15 8 0 15 7 15 15 0 8 -7 15 -15 15 -8 0
-15 -7 -15 -15z"/>
<path d="M622 2119 c2 -6 8 -10 13 -10 5 0 11 4 13 10 2 6 -4 11 -13 11 -9 0
-15 -5 -13 -11z"/>
<path d="M3530 2111 c0 -7 -58 -70 -129 -140 -100 -98 -136 -140 -161 -190
-54 -108 -63 -141 -70 -266 -8 -151 -21 -180 -106 -241 -153 -109 -209 -216
-225 -429 -5 -66 -12 -148 -15 -182 -5 -47 -2 -76 14 -125 11 -34 23 -76 27
-93 7 -28 11 -22 62 85 30 63 68 147 85 185 17 39 66 125 110 193 100 155 117
194 161 370 25 98 53 179 91 260 33 69 64 154 76 207 11 50 36 152 56 228 20
76 33 141 30 144 -3 4 -6 1 -6 -6z m-422 -978 c4 -29 -43 -82 -58 -66 -16 15
-3 70 18 83 23 13 36 7 40 -17z"/>
<path d="M3930 2110 c0 -5 5 -10 10 -10 6 0 10 5 10 10 0 6 -4 10 -10 10 -5 0
-10 -4 -10 -10z"/>
<path d="M4336 2098 c-18 -27 -12 -58 10 -58 8 0 20 11 26 25 9 21 9 29 -4 42
-15 14 -17 13 -32 -9z"/>
<path d="M1260 2074 c0 -9 5 -14 12 -12 18 6 21 28 4 28 -9 0 -16 -7 -16 -16z"/>
<path d="M1361 2072 c-2 -39 -30 -81 -71 -107 -54 -34 -67 -64 -80 -186 -6
-57 -13 -112 -16 -121 -20 -67 70 62 102 145 15 40 41 98 57 129 28 54 29 61
20 110 -6 29 -11 43 -12 30z"/>
<path d="M2214 2076 c-10 -26 1 -51 21 -51 15 0 21 8 23 33 3 27 0 32 -18 32
-11 0 -23 -6 -26 -14z"/>
<path d="M1853 2064 c-8 -21 13 -42 28 -27 13 13 5 43 -11 43 -6 0 -13 -7 -17
-16z"/>
<path d="M3971 2038 c-1 -25 -10 -67 -21 -93 -11 -26 -20 -59 -20 -73 0 -32
45 -132 59 -132 13 0 51 81 58 123 4 26 -2 53 -25 104 -16 37 -34 79 -40 93
-10 23 -11 20 -11 -22z"/>
<path d="M4990 2049 c0 -24 23 -21 28 4 2 10 -3 17 -12 17 -10 0 -16 -9 -16
-21z"/>
<path d="M84 2046 c-4 -11 0 -24 9 -34 15 -14 17 -14 23 2 4 11 0 24 -9 34
-15 14 -17 14 -23 -2z"/>
<path d="M2889 2033 c-12 -31 -1 -58 22 -58 16 0 23 27 15 61 -8 32 -24 30
-37 -3z"/>
<path d="M2110 2035 c0 -8 7 -15 15 -15 8 0 15 7 15 15 0 8 -7 15 -15 15 -8 0
-15 -7 -15 -15z"/>
<path d="M1492 2016 c1 -10 8 -17 13 -17 15 1 12 24 -3 29 -9 3 -13 -2 -10
-12z"/>
<path d="M1540 2015 c0 -8 5 -15 10 -15 6 0 10 7 10 15 0 8 -4 15 -10 15 -5 0
-10 -7 -10 -15z"/>
<path d="M3910 2015 c0 -8 5 -15 10 -15 6 0 10 7 10 15 0 8 -4 15 -10 15 -5 0
-10 -7 -10 -15z"/>
<path d="M607 2013 c-13 -12 -7 -41 8 -47 18 -6 30 16 21 39 -6 16 -18 19 -29
8z"/>
<path d="M2605 2000 c-4 -7 0 -19 9 -28 15 -15 18 -15 26 -2 5 8 8 20 7 25 -5
15 -34 18 -42 5z"/>
<path d="M4420 1953 c0 -34 5 -65 10 -68 13 -8 13 95 0 115 -7 11 -10 -3 -10
-47z"/>
<path d="M1177 1994 c-8 -8 1 -24 14 -24 5 0 9 7 9 15 0 15 -12 20 -23 9z"/>
<path d="M141 1981 c-19 -12 -17 -62 4 -77 37 -28 68 19 41 61 -18 27 -24 29
-45 16z"/>
<path d="M841 1957 c-1 -56 -22 -98 -101 -199 -86 -112 -98 -145 -82 -239 7
-38 12 -81 12 -94 0 -24 3 -23 66 27 94 74 102 96 115 315 7 120 7 186 0 203
-9 23 -10 23 -10 -13z"/>
<path d="M5091 1985 c-1 -6 -24 -38 -51 -70 -58 -69 -86 -144 -75 -203 7 -38
44 -112 55 -112 4 0 28 33 53 74 44 70 47 77 47 142 -1 56 -26 205 -29 169z"/>
<path d="M4351 1955 c-1 -16 -12 -54 -26 -84 -34 -72 -40 -120 -25 -191 l12
-59 39 76 c32 63 39 87 38 132 -1 63 -37 181 -38 126z"/>
<path d="M4867 1952 c-30 -33 -15 -102 23 -102 24 0 50 37 50 70 0 48 -42 66
-73 32z"/>
<path d="M627 1939 c-27 -40 -32 -85 -13 -114 21 -32 41 -32 62 0 19 30 13 82
-15 116 l-18 23 -16 -25z"/>
<path d="M2070 1945 c-13 -15 -7 -45 8 -45 16 0 34 29 28 45 -7 19 -20 19 -36
0z"/>
<path d="M2247 1920 c-21 -19 -88 -69 -150 -110 -159 -108 -214 -188 -239
-350 -24 -157 -28 -168 -74 -227 -25 -32 -57 -80 -71 -108 -36 -69 -80 -252
-88 -365 l-8 -95 40 75 c60 113 198 304 271 373 124 119 170 206 222 411 21
83 61 210 90 283 28 73 50 136 48 140 -1 4 -20 -8 -41 -27z m-349 -592 c-4
-29 -38 -38 -38 -10 0 22 8 32 27 32 9 0 13 -8 11 -22z"/>
<path d="M4126 1953 c-12 -12 -6 -33 9 -33 8 0 15 6 15 14 0 17 -14 28 -24 19z"/>
<path d="M4480 1925 c-9 -28 -8 -41 5 -70 20 -42 28 -43 43 -10 21 45 10 96
-22 108 -10 4 -18 -5 -26 -28z"/>
<path d="M1811 1924 c-24 -31 -26 -43 -9 -79 14 -32 33 -32 54 0 14 22 15 32
5 65 -14 47 -22 49 -50 14z"/>
<path d="M2857 1944 c-8 -8 1 -24 14 -24 5 0 9 7 9 15 0 15 -12 20 -23 9z"/>
<path d="M3263 1934 c-7 -18 11 -39 26 -30 17 11 13 46 -4 46 -9 0 -18 -7 -22
-16z"/>
<path d="M2650 1880 c-35 -66 -88 -123 -217 -237 -81 -71 -142 -176 -163 -277
-16 -77 -9 -125 34 -228 19 -46 40 -115 47 -153 l12 -70 23 50 c15 35 25 83
31 160 12 141 36 196 132 299 84 92 115 141 135 221 16 60 20 212 7 270 -7 30
-7 29 -41 -35z"/>
<path d="M1464 1915 c-7 -18 3 -35 21 -35 15 0 28 27 19 41 -8 14 -34 11 -40
-6z"/>
<path d="M3527 1913 c-4 -3 -7 -15 -7 -25 0 -28 34 -19 38 10 3 21 -16 31 -31
15z"/>
<path d="M0 1889 c0 -11 4 -18 10 -14 5 3 7 12 3 20 -7 21 -13 19 -13 -6z"/>
<path d="M1122 1881 c-11 -31 -6 -58 26 -151 l19 -55 5 70 c8 115 -26 206 -50
136z"/>
<path d="M4220 1891 c0 -12 6 -21 16 -21 9 0 14 7 12 17 -5 25 -28 28 -28 4z"/>
<path d="M272 1826 c-8 -30 -30 -67 -67 -108 -74 -84 -96 -134 -107 -242 -5
-48 -7 -93 -6 -98 2 -5 38 25 80 66 68 65 79 81 97 139 23 75 36 218 24 260
-8 28 -9 28 -21 -17z"/>
<path d="M750 1855 c0 -9 5 -15 11 -13 6 2 11 8 11 13 0 5 -5 11 -11 13 -6 2
-11 -4 -11 -13z"/>
<path d="M940 1860 c0 -5 5 -10 11 -10 5 0 7 5 4 10 -3 6 -8 10 -11 10 -2 0
-4 -4 -4 -10z"/>
<path d="M1531 1842 c-7 -17 -33 -57 -58 -89 -60 -77 -78 -115 -103 -212 -35
-133 -27 -138 59 -40 96 110 131 182 130 269 0 36 -4 74 -8 84 -6 17 -9 15
-20 -12z"/>
<path d="M3154 1846 c-8 -22 3 -33 18 -18 9 9 9 15 0 24 -9 9 -13 7 -18 -6z"/>
<path d="M1370 1835 c0 -9 5 -15 11 -13 6 2 11 8 11 13 0 5 -5 11 -11 13 -6 2
-11 -4 -11 -13z"/>
<path d="M2537 1843 c-12 -11 -8 -23 8 -23 8 0 15 7 15 15 0 16 -12 20 -23 8z"/>
<path d="M2770 1826 c0 -32 20 -44 36 -22 16 23 7 46 -17 46 -13 0 -19 -7 -19
-24z"/>
<path d="M995 1791 c-10 -73 -38 -151 -80 -226 -39 -70 -41 -82 -30 -215 l8
-94 39 44 c113 133 146 307 90 487 l-19 58 -8 -54z"/>
<path d="M185 1820 c-8 -13 4 -32 16 -25 12 8 12 35 0 35 -6 0 -13 -4 -16 -10z"/>
<path d="M4120 1809 c0 -24 23 -21 28 4 2 10 -3 17 -12 17 -10 0 -16 -9 -16
-21z"/>
<path d="M3494 1806 c-4 -10 -2 -22 4 -28 8 -8 13 -7 18 6 4 10 2 22 -4 28 -8
8 -13 7 -18 -6z"/>
<path d="M3571 1802 c-14 -27 -11 -64 5 -69 16 -5 26 40 15 68 l-8 23 -12 -22z"/>
<path d="M2874 1775 c-34 -23 -49 -69 -34 -104 14 -35 34 -45 60 -31 49 26 66
102 32 133 -23 21 -32 21 -58 2z"/>
<path d="M4804 1766 c-7 -19 3 -36 22 -36 10 0 14 8 12 22 -4 26 -26 36 -34
14z"/>
<path d="M7 1764 c-4 -4 -7 -50 -6 -103 1 -90 2 -94 14 -66 20 44 14 190 -8
169z"/>
<path d="M1935 1760 c-3 -5 -1 -10 4 -10 6 0 11 5 11 10 0 6 -2 10 -4 10 -3 0
-8 -4 -11 -10z"/>
<path d="M4170 1703 c-7 -38 -33 -138 -57 -223 -74 -256 -83 -292 -89 -366 -8
-82 1 -113 49 -188 l32 -51 6 130 c4 90 11 142 23 170 32 74 77 269 83 360 6
88 -11 235 -26 235 -4 0 -13 -30 -21 -67z"/>
<path d="M880 1744 c0 -8 5 -12 10 -9 6 3 10 10 10 16 0 5 -4 9 -10 9 -5 0
-10 -7 -10 -16z"/>
<path d="M1304 1737 c-6 -17 2 -37 16 -37 15 0 19 29 5 40 -12 10 -16 9 -21
-3z"/>
<path d="M1647 1680 c-10 -41 -22 -118 -28 -169 -12 -109 -24 -137 -73 -175
-50 -37 -67 -76 -73 -163 -5 -66 -10 -79 -39 -115 -48 -56 -61 -107 -45 -166
8 -26 19 -71 25 -101 11 -53 11 -53 25 -27 8 14 36 44 62 66 82 69 138 168
174 307 20 76 22 484 3 563 l-13 54 -18 -74z"/>
<path d="M3031 1698 c-44 -59 -60 -112 -47 -162 9 -36 28 -32 69 13 44 48 53
93 35 157 l-14 49 -43 -57z"/>
<path d="M1814 1729 c-10 -17 13 -36 27 -22 12 12 4 33 -11 33 -5 0 -12 -5
-16 -11z"/>
<path d="M90 1715 c0 -8 5 -15 10 -15 6 0 10 7 10 15 0 8 -4 15 -10 15 -5 0
-10 -7 -10 -15z"/>
<path d="M508 1718 c-26 -21 -30 -53 -11 -77 36 -44 90 17 58 65 -18 27 -25
29 -47 12z"/>
<path d="M3890 1715 c0 -9 5 -15 11 -13 6 2 11 8 11 13 0 5 -5 11 -11 13 -6 2
-11 -4 -11 -13z"/>
<path d="M2294 1712 c-26 -17 -20 -62 8 -62 13 0 28 38 22 54 -7 18 -14 19
-30 8z"/>
<path d="M4075 1670 c-7 -12 3 -50 13 -50 18 1 34 19 30 36 -4 21 -33 31 -43
14z"/>
<path d="M4497 1650 c-4 -19 -29 -71 -56 -115 -64 -104 -78 -156 -87 -317 l-7
-133 49 54 c100 111 148 197 160 287 6 54 -13 166 -40 229 l-12 30 -7 -35z"/>
<path d="M4673 1647 c-29 -31 -53 -82 -53 -109 0 -13 10 -43 21 -68 l21 -45
24 80 c24 82 31 150 15 159 -4 3 -17 -5 -28 -17z"/>
<path d="M4820 1660 c0 -5 5 -10 10 -10 6 0 10 5 10 10 0 6 -4 10 -10 10 -5 0
-10 -4 -10 -10z"/>
<path d="M3570 1640 c0 -11 4 -20 9 -20 11 0 22 26 14 34 -12 12 -23 5 -23
-14z"/>
<path d="M3935 1606 c-72 -55 -113 -105 -133 -165 -15 -43 -14 -167 1 -250 13
-63 13 -63 26 -35 7 16 38 71 68 123 69 115 103 211 110 308 3 40 4 73 2 73
-2 0 -36 -24 -74 -54z"/>
<path d="M4414 1625 c-4 -8 -3 -23 0 -32 6 -15 8 -15 23 -1 16 17 12 48 -7 48
-6 0 -13 -7 -16 -15z"/>
<path d="M70 1610 c0 -13 5 -20 13 -17 6 2 12 10 12 17 0 7 -6 15 -12 18 -8 2
-13 -5 -13 -18z"/>
<path d="M2774 1619 c-8 -14 11 -33 25 -25 6 4 11 14 11 22 0 16 -26 19 -36 3z"/>
<path d="M3467 1624 c-8 -8 1 -24 14 -24 5 0 9 7 9 15 0 15 -12 20 -23 9z"/>
<path d="M1274 1605 c-7 -18 3 -35 21 -35 15 0 28 27 19 41 -8 14 -34 11 -40
-6z"/>
<path d="M1736 1603 c-3 -4 -6 -15 -6 -25 0 -24 33 -21 38 3 3 17 -21 33 -32
22z"/>
<path d="M2300 1575 c0 -8 7 -15 15 -15 8 0 15 7 15 15 0 8 -7 15 -15 15 -8 0
-15 -7 -15 -15z"/>
<path d="M4897 1583 c-12 -11 -8 -23 8 -23 8 0 15 7 15 15 0 16 -12 20 -23 8z"/>
<path d="M4250 1565 c0 -9 5 -15 11 -13 6 2 11 8 11 13 0 5 -5 11 -11 13 -6 2
-11 -4 -11 -13z"/>
<path d="M386 1561 c-4 -7 -5 -15 -2 -18 9 -9 19 4 14 18 -4 11 -6 11 -12 0z"/>
<path d="M1100 1546 c0 -20 5 -26 21 -26 15 0 20 5 17 22 -5 34 -38 37 -38 4z"/>
<path d="M3570 1540 c0 -27 3 -31 23 -28 16 2 22 10 22 28 0 18 -6 26 -22 28
-20 3 -23 -1 -23 -28z"/>
<path d="M2832 1480 c-114 -139 -130 -177 -143 -339 -9 -114 -23 -173 -62
-261 l-20 -45 -7 50 c-4 28 -14 66 -22 85 l-14 35 -16 -30 c-8 -17 -40 -77
-70 -135 -30 -58 -67 -145 -84 -195 -28 -86 -29 -98 -29 -265 0 -96 4 -221 9
-277 l9 -103 37 0 36 0 56 118 c85 177 101 234 98 355 -4 131 -5 124 30 132
16 3 41 15 55 27 47 37 55 66 55 210 0 151 10 196 68 325 56 124 63 150 72
276 4 62 7 112 6 113 0 1 -30 -34 -64 -76z m-17 -179 c-9 -30 -45 -28 -45 2 0
13 5 28 12 35 18 18 42 -9 33 -37z m-350 -971 c7 -23 -10 -50 -31 -50 -21 0
-22 49 -1 62 19 12 25 9 32 -12z"/>
<path d="M5026 1480 c-25 -38 -52 -83 -61 -99 -22 -43 -19 -114 7 -164 12 -23
24 -57 27 -76 6 -33 7 -32 54 58 53 103 59 151 31 235 -9 25 -14 62 -12 81 2
19 3 35 1 35 -1 0 -22 -31 -47 -70z"/>
<path d="M27 1534 c-8 -8 1 -24 14 -24 5 0 9 7 9 15 0 15 -12 20 -23 9z"/>
<path d="M2210 1525 c0 -8 7 -15 15 -15 8 0 15 7 15 15 0 8 -7 15 -15 15 -8 0
-15 -7 -15 -15z"/>
<path d="M3489 1523 c-48 -54 -61 -116 -31 -152 l17 -22 29 30 c32 33 37 75
14 130 -13 31 -14 32 -29 14z"/>
<path d="M4740 1526 c0 -9 7 -16 16 -16 17 0 14 22 -4 28 -7 2 -12 -3 -12 -12z"/>
<path d="M313 1523 c-7 -3 -13 -16 -13 -30 0 -18 5 -24 17 -21 19 4 30 35 16
48 -4 4 -14 5 -20 3z"/>
<path d="M600 1510 c0 -5 5 -10 10 -10 6 0 10 5 10 10 0 6 -4 10 -10 10 -5 0
-10 -4 -10 -10z"/>
<path d="M1490 1505 c0 -8 7 -15 15 -15 8 0 15 7 15 15 0 8 -7 15 -15 15 -8 0
-15 -7 -15 -15z"/>
<path d="M4892 1498 c-15 -15 -16 -64 -2 -73 16 -10 47 4 52 23 7 24 -9 62
-25 62 -7 0 -18 -5 -25 -12z"/>
<path d="M477 1446 c-50 -68 -64 -119 -44 -162 22 -45 51 -49 82 -12 20 24 25
40 25 86 0 31 -6 75 -13 98 l-12 40 -38 -50z m25 -88 c-15 -15 -26 -4 -18 18
5 13 9 15 18 6 9 -9 9 -15 0 -24z"/>
<path d="M3686 1493 c-12 -12 -6 -33 9 -33 8 0 15 6 15 14 0 17 -14 28 -24 19z"/>
<path d="M4080 1485 c0 -8 5 -15 10 -15 6 0 10 7 10 15 0 8 -4 15 -10 15 -5 0
-10 -7 -10 -15z"/>
<path d="M2685 1479 c-4 -6 -5 -13 -2 -16 7 -7 27 6 27 18 0 12 -17 12 -25 -2z"/>
<path d="M1737 1465 c-8 -18 11 -31 25 -17 11 11 3 32 -12 32 -4 0 -10 -7 -13
-15z"/>
<path d="M4811 1455 c-3 -57 -42 -119 -130 -210 -137 -140 -174 -230 -191
-467 -5 -73 -16 -160 -24 -193 -23 -89 -18 -325 5 -325 5 0 9 6 9 13 0 36 99
175 201 282 127 135 159 190 158 275 0 50 -27 179 -28 138 -1 -9 -16 -27 -33
-39 -62 -42 -90 -74 -125 -144 -20 -38 -38 -65 -40 -59 -6 17 103 326 154 436
43 94 47 111 51 194 2 49 2 99 -1 110 -3 13 -5 10 -6 -11z m-241 -835 c0 -5
-5 -10 -11 -10 -5 0 -7 5 -4 10 3 6 8 10 11 10 2 0 4 -4 4 -10z"/>
<path d="M1082 1428 c-16 -26 -22 -49 -20 -74 3 -43 32 -69 48 -44 11 17 11
78 1 125 l-6 30 -23 -37z"/>
<path d="M1215 1450 c-8 -13 4 -32 16 -25 12 8 12 35 0 35 -6 0 -13 -4 -16
-10z"/>
<path d="M2220 1440 c0 -13 5 -20 13 -17 6 2 12 10 12 17 0 7 -6 15 -12 18 -8
2 -13 -5 -13 -18z"/>
<path d="M3387 1454 c-8 -8 1 -24 14 -24 5 0 9 7 9 15 0 15 -12 20 -23 9z"/>
<path d="M4750 1445 c0 -8 5 -15 10 -15 6 0 10 7 10 15 0 8 -4 15 -10 15 -5 0
-10 -7 -10 -15z"/>
<path d="M4310 1436 c0 -8 4 -17 9 -20 10 -7 23 19 14 28 -11 11 -23 6 -23 -8z"/>
<path d="M1540 1415 c0 -9 5 -15 11 -13 6 2 11 8 11 13 0 5 -5 11 -11 13 -6 2
-11 -4 -11 -13z"/>
<path d="M3042 1412 c-33 -33 -27 -92 8 -92 38 0 59 57 32 90 l-19 23 -21 -21z"/>
<path d="M12 1411 c-8 -5 -12 -22 -10 -42 l3 -34 11 43 c7 23 11 42 10 42 0 0
-7 -4 -14 -9z"/>
<path d="M737 1403 c-12 -11 -8 -23 8 -23 8 0 15 7 15 15 0 16 -12 20 -23 8z"/>
<path d="M2610 1396 c0 -9 7 -16 16 -16 17 0 14 22 -4 28 -7 2 -12 -3 -12 -12z"/>
<path d="M1388 1390 c-3 -8 -13 -50 -23 -92 -16 -73 -16 -80 2 -132 10 -31 21
-56 25 -56 10 0 48 107 47 133 0 35 -46 164 -51 147z"/>
<path d="M1490 1385 c0 -9 5 -15 11 -13 6 2 11 8 11 13 0 5 -5 11 -11 13 -6 2
-11 -4 -11 -13z"/>
<path d="M340 1380 c0 -5 5 -10 10 -10 6 0 10 5 10 10 0 6 -4 10 -10 10 -5 0
-10 -4 -10 -10z"/>
<path d="M1182 1379 c2 -7 10 -15 17 -17 8 -3 12 1 9 9 -2 7 -10 15 -17 17 -8
3 -12 -1 -9 -9z"/>
<path d="M3614 1306 c-122 -123 -155 -203 -170 -411 l-7 -100 93 85 c159 146
185 194 182 345 -1 55 -5 114 -9 132 l-8 32 -81 -83z"/>
<path d="M4640 1370 c0 -13 5 -20 13 -17 6 2 12 10 12 17 0 7 -6 15 -12 18 -8
2 -13 -5 -13 -18z"/>
<path d="M203 1364 c-8 -22 15 -44 26 -25 10 16 4 41 -10 41 -5 0 -12 -7 -16
-16z"/>
<path d="M2166 1372 c-2 -4 -1 -14 4 -21 10 -17 31 -5 23 14 -6 16 -19 20 -27
7z"/>
<path d="M1733 1354 c-9 -23 11 -38 26 -20 13 16 7 36 -10 36 -5 0 -12 -7 -16
-16z"/>
<path d="M3350 1356 c0 -9 7 -16 16 -16 17 0 14 22 -4 28 -7 2 -12 -3 -12 -12z"/>
<path d="M805 1340 c-8 -27 10 -49 26 -33 13 13 8 45 -8 50 -6 2 -14 -6 -18
-17z"/>
<path d="M580 1335 c0 -8 5 -15 10 -15 6 0 10 7 10 15 0 8 -4 15 -10 15 -5 0
-10 -7 -10 -15z"/>
<path d="M3966 1334 c-10 -25 -7 -62 5 -70 20 -12 52 31 45 60 -7 29 -40 36
-50 10z"/>
<path d="M4880 1340 c0 -5 5 -10 10 -10 6 0 10 5 10 10 0 6 -4 10 -10 10 -5 0
-10 -4 -10 -10z"/>
<path d="M245 1320 c-3 -5 -1 -10 4 -10 6 0 11 5 11 10 0 6 -2 10 -4 10 -3 0
-8 -4 -11 -10z"/>
<path d="M4216 1322 c-2 -4 0 -14 5 -22 8 -13 10 -13 18 0 10 15 6 30 -9 30
-5 0 -11 -4 -14 -8z"/>
<path d="M321 1296 c-7 -16 -32 -57 -58 -90 -25 -34 -54 -79 -64 -101 -21 -46
-25 -148 -8 -210 l11 -40 64 67 c54 57 67 78 85 139 24 80 23 167 -4 229 l-15
35 -11 -29z"/>
<path d="M626 1268 c-54 -123 -97 -302 -126 -528 -12 -91 -28 -190 -36 -220
-8 -30 -17 -91 -20 -135 -6 -84 -5 -90 53 -247 l28 -76 55 66 c30 36 63 79 74
94 49 74 39 179 -23 250 -75 85 -77 112 -21 230 72 151 86 266 54 436 -9 47
-14 107 -12 133 1 27 2 49 0 49 -2 0 -13 -24 -26 -52z m-86 -967 c-6 -12 -15
-21 -20 -21 -16 0 -11 32 8 53 14 16 17 17 20 4 2 -9 -2 -25 -8 -36z"/>
<path d="M2497 1314 c-11 -11 -8 -44 3 -44 15 0 24 30 13 41 -5 5 -12 6 -16 3z"/>
<path d="M4575 1310 c-7 -12 2 -30 16 -30 5 0 9 9 9 20 0 21 -15 27 -25 10z"/>
<path d="M1255 1300 c-7 -12 2 -30 16 -30 5 0 9 9 9 20 0 21 -15 27 -25 10z"/>
<path d="M2566 1243 c-43 -69 -46 -110 -11 -150 l25 -28 30 32 c16 18 33 45
36 59 7 27 -19 129 -36 139 -4 3 -24 -21 -44 -52z"/>
<path d="M4300 1286 c0 -9 7 -16 16 -16 17 0 14 22 -4 28 -7 2 -12 -3 -12 -12z"/>
<path d="M684 1265 c-3 -8 -3 -19 1 -25 10 -16 35 7 28 26 -7 18 -22 18 -29
-1z"/>
<path d="M87 1222 c-27 -27 -37 -47 -37 -69 0 -33 24 -67 43 -60 23 7 46 55
53 110 8 70 -5 74 -59 19z"/>
<path d="M1106 1253 c-11 -11 -6 -23 9 -23 8 0 15 4 15 9 0 13 -16 22 -24 14z"/>
<path d="M4850 1249 c0 -5 -11 -27 -25 -47 -28 -42 -33 -93 -9 -116 20 -21 27
-20 51 7 32 34 36 62 18 117 -15 45 -35 67 -35 39z"/>
<path d="M3429 1234 c-13 -16 -4 -44 19 -52 18 -6 36 37 21 54 -15 18 -23 18
-40 -2z"/>
<path d="M2110 1220 c-22 -22 -26 -60 -10 -91 24 -44 80 -5 80 56 0 54 -34 71
-70 35z"/>
<path d="M995 1203 c-68 -35 -204 -174 -239 -244 -30 -63 -50 -174 -41 -231
l7 -38 49 43 c59 50 113 125 164 227 37 72 116 262 112 266 -1 1 -24 -9 -52
-23z"/>
<path d="M2900 1215 c0 -8 5 -15 10 -15 6 0 10 7 10 15 0 8 -4 15 -10 15 -5 0
-10 -7 -10 -15z"/>
<path d="M1200 1201 c0 -5 -20 -36 -44 -68 -53 -70 -62 -100 -46 -148 16 -49
45 -63 78 -38 59 44 79 140 46 223 -15 36 -34 54 -34 31z"/>
<path d="M4290 1189 c0 -24 23 -21 28 4 2 10 -3 17 -12 17 -10 0 -16 -9 -16
-21z"/>
<path d="M825 1177 c-15 -11 -16 -17 -6 -36 13 -23 25 -21 41 9 14 26 -10 45
-35 27z"/>
<path d="M457 1164 c-8 -8 1 -24 14 -24 5 0 9 7 9 15 0 15 -12 20 -23 9z"/>
<path d="M534 1156 c-4 -9 -4 -20 0 -23 3 -4 12 -1 18 5 9 9 9 15 0 24 -9 9
-13 7 -18 -6z"/>
<path d="M700 1155 c0 -8 5 -15 10 -15 6 0 10 7 10 15 0 8 -4 15 -10 15 -5 0
-10 -7 -10 -15z"/>
<path d="M3314 1159 c-10 -17 13 -36 27 -22 12 12 4 33 -11 33 -5 0 -12 -5
-16 -11z"/>
<path d="M5090 1151 c-14 -26 -13 -32 10 -61 l20 -25 0 53 c0 54 -12 67 -30
33z"/>
<path d="M4184 1145 c-4 -9 -2 -21 4 -27 15 -15 44 -1 40 19 -4 23 -36 29 -44
8z"/>
<path d="M4480 1150 c0 -5 5 -10 10 -10 6 0 10 5 10 10 0 6 -4 10 -10 10 -5 0
-10 -4 -10 -10z"/>
<path d="M3940 1135 c0 -8 5 -15 10 -15 6 0 10 7 10 15 0 8 -4 15 -10 15 -5 0
-10 -7 -10 -15z"/>
<path d="M2270 1121 c0 -11 -18 -79 -40 -152 -38 -125 -48 -197 -34 -233 10
-27 28 -18 61 32 66 97 80 198 42 310 -22 65 -29 75 -29 43z m20 -156 c0 -19
-20 -29 -32 -17 -8 8 -7 16 2 26 14 17 30 12 30 -9z"/>
<path d="M4401 1036 c-80 -102 -114 -164 -155 -287 -42 -127 -61 -247 -53
-348 5 -68 24 -148 33 -139 2 2 8 37 14 78 12 83 30 145 67 234 14 33 33 109
43 170 19 109 63 253 101 329 11 20 17 37 14 37 -2 0 -31 -33 -64 -74z"/>
<path d="M396 1083 c-11 -11 -6 -23 9 -23 8 0 15 4 15 9 0 13 -16 22 -24 14z"/>
<path d="M2475 1070 c-4 -6 -3 -16 3 -22 6 -6 12 -6 17 2 4 6 3 16 -3 22 -6 6
-12 6 -17 -2z"/>
<path d="M3864 1065 c-8 -20 13 -45 32 -38 8 3 14 16 14 29 0 17 -6 24 -20 24
-11 0 -23 -7 -26 -15z"/>
<path d="M5060 1060 c0 -11 7 -20 15 -20 8 0 15 9 15 20 0 11 -7 20 -15 20 -8
0 -15 -9 -15 -20z"/>
<path d="M765 1061 c-6 -11 9 -23 19 -14 9 9 7 23 -3 23 -6 0 -12 -4 -16 -9z"/>
<path d="M1950 1061 c0 -7 -15 -31 -34 -54 -62 -77 -71 -116 -37 -158 l19 -24
27 25 c46 43 58 77 51 144 -3 33 -11 65 -16 70 -7 7 -10 6 -10 -3z"/>
<path d="M3755 1030 c-4 -6 -3 -16 3 -22 6 -6 12 -6 17 2 4 6 3 16 -3 22 -6 6
-12 6 -17 -2z"/>
<path d="M4903 992 c-36 -52 -41 -87 -18 -118 15 -19 15 -19 35 5 16 18 20 38
20 92 0 38 -1 69 -2 69 -2 0 -18 -21 -35 -48z"/>
<path d="M2140 1015 c0 -8 5 -15 10 -15 6 0 10 7 10 15 0 8 -4 15 -10 15 -5 0
-10 -7 -10 -15z"/>
<path d="M3290 1020 c0 -5 5 -10 10 -10 6 0 10 5 10 10 0 6 -4 10 -10 10 -5 0
-10 -4 -10 -10z"/>
<path d="M4214 1016 c-9 -22 2 -46 21 -46 12 0 15 8 13 27 -3 30 -25 42 -34
19z"/>
<path d="M4984 1006 c-8 -22 3 -33 18 -18 9 9 9 15 0 24 -9 9 -13 7 -18 -6z"/>
<path d="M367 995 c-8 -19 13 -31 24 -14 13 20 11 29 -5 29 -8 0 -16 -7 -19
-15z"/>
<path d="M0 975 c0 -17 5 -25 12 -22 17 5 17 39 1 45 -8 2 -13 -6 -13 -23z"/>
<path d="M431 923 c-23 -38 -61 -96 -85 -130 -50 -69 -72 -150 -62 -217 9 -52
38 -146 46 -146 7 0 72 85 91 120 9 17 16 79 20 185 4 105 12 176 22 208 9 26
15 47 13 47 -2 0 -22 -30 -45 -67z"/>
<path d="M5012 940 c-7 -32 -30 -81 -52 -114 -48 -71 -55 -115 -24 -164 21
-32 50 -25 87 20 38 47 46 114 23 190 -8 29 -17 69 -18 88 -3 33 -4 31 -16
-20z"/>
<path d="M70 965 c0 -8 5 -15 10 -15 6 0 10 7 10 15 0 8 -4 15 -10 15 -5 0
-10 -7 -10 -15z"/>
<path d="M2066 952 c-3 -6 -1 -14 5 -17 15 -10 25 3 12 16 -7 7 -13 7 -17 1z"/>
<path d="M3259 940 c-41 -24 -25 -110 21 -110 41 0 65 73 34 104 -18 18 -32
20 -55 6z"/>
<path d="M3700 935 c0 -8 5 -15 10 -15 6 0 10 7 10 15 0 8 -4 15 -10 15 -5 0
-10 -7 -10 -15z"/>
<path d="M1270 915 c0 -8 5 -15 10 -15 6 0 10 7 10 15 0 8 -4 15 -10 15 -5 0
-10 -7 -10 -15z"/>
<path d="M2090 863 c-30 -35 -73 -93 -95 -128 -22 -35 -73 -116 -113 -180
-101 -160 -122 -230 -108 -348 7 -54 8 -55 34 -46 15 5 44 11 64 14 57 9 128
62 165 124 39 65 57 141 78 331 9 80 20 179 25 220 4 41 8 76 7 76 -1 1 -27
-28 -57 -63z m-60 -323 c-13 -31 -40 -41 -40 -15 0 17 39 59 47 51 3 -3 0 -19
-7 -36z"/>
<path d="M2425 920 c-8 -13 4 -32 16 -25 12 8 12 35 0 35 -6 0 -13 -4 -16 -10z"/>
<path d="M36 891 c-22 -23 -27 -35 -22 -56 11 -45 60 -45 76 0 8 22 -6 85 -18
85 -5 0 -21 -13 -36 -29z"/>
<path d="M2044 896 c-8 -22 3 -33 18 -18 9 9 9 15 0 24 -9 9 -13 7 -18 -6z"/>
<path d="M1794 886 c-8 -22 3 -33 18 -18 9 9 9 15 0 24 -9 9 -13 7 -18 -6z"/>
<path d="M3754 871 c-155 -38 -223 -118 -278 -328 -27 -103 -45 -276 -32 -309
6 -15 13 -7 34 37 35 72 106 170 186 257 90 99 121 156 172 320 15 49 19 48
-82 23z m-66 -172 c-4 -28 -31 -32 -36 -6 -5 23 18 51 30 39 6 -6 8 -20 6 -33z"/>
<path d="M3176 863 c-12 -12 -6 -33 9 -33 8 0 15 6 15 14 0 17 -14 28 -24 19z"/>
<path d="M3574 856 c-4 -10 -2 -22 4 -28 8 -8 13 -7 18 6 4 10 2 22 -4 28 -8
8 -13 7 -18 -6z"/>
<path d="M3938 843 c-86 -72 -106 -140 -71 -250 l17 -54 54 53 c59 57 92 116
92 163 0 34 -34 115 -49 115 -5 0 -24 -12 -43 -27z"/>
<path d="M1110 844 c0 -8 5 -12 10 -9 6 3 10 10 10 16 0 5 -4 9 -10 9 -5 0
-10 -7 -10 -16z"/>
<path d="M4130 840 c0 -5 5 -10 10 -10 6 0 10 5 10 10 0 6 -4 10 -10 10 -5 0
-10 -4 -10 -10z"/>
<path d="M207 833 c-12 -12 -7 -41 7 -46 19 -7 40 18 32 38 -6 15 -28 20 -39
8z"/>
<path d="M1273 824 c-8 -21 13 -42 28 -27 13 13 5 43 -11 43 -6 0 -13 -7 -17
-16z"/>
<path d="M4396 823 c-4 -9 -1 -23 7 -30 12 -12 16 -12 26 1 16 19 8 46 -13 46
-7 0 -17 -8 -20 -17z"/>
<path d="M1542 788 c-67 -98 -67 -99 -66 -273 0 -88 2 -208 5 -267 l4 -107 28
27 c76 72 93 172 57 324 -23 98 -26 202 -6 278 8 30 13 56 11 58 -2 2 -16 -16
-33 -40z"/>
<path d="M920 786 c0 -21 -11 -33 -52 -60 -105 -67 -112 -85 -113 -274 0 -139
1 -152 15 -132 8 12 45 55 81 95 77 85 109 148 117 227 5 62 -12 140 -34 159
-11 9 -14 6 -14 -15z"/>
<path d="M4180 795 c0 -8 5 -15 10 -15 6 0 10 7 10 15 0 8 -4 15 -10 15 -5 0
-10 -7 -10 -15z"/>
<path d="M1020 780 c0 -11 7 -20 15 -20 8 0 15 9 15 20 0 11 -7 20 -15 20 -8
0 -15 -9 -15 -20z"/>
<path d="M1100 780 c0 -23 25 -27 33 -6 7 16 -1 26 -20 26 -7 0 -13 -9 -13
-20z"/>
<path d="M2380 785 c0 -8 7 -15 15 -15 8 0 15 7 15 15 0 8 -7 15 -15 15 -8 0
-15 -7 -15 -15z"/>
<path d="M1810 770 c0 -13 5 -20 13 -17 6 2 12 10 12 17 0 7 -6 15 -12 18 -8
2 -13 -5 -13 -18z"/>
<path d="M3204 759 c-3 -6 -1 -16 5 -22 9 -9 14 -8 21 3 9 15 4 30 -10 30 -5
0 -12 -5 -16 -11z"/>
<path d="M10 735 c0 -20 4 -26 18 -23 9 2 17 12 17 23 0 11 -8 21 -17 23 -14
3 -18 -3 -18 -23z"/>
<path d="M1940 745 c0 -9 5 -15 11 -13 6 2 11 8 11 13 0 5 -5 11 -11 13 -6 2
-11 -4 -11 -13z"/>
<path d="M2780 726 c-17 -51 -6 -69 15 -22 10 25 13 42 7 48 -6 6 -14 -3 -22
-26z"/>
<path d="M3359 732 c-8 -15 -50 -53 -91 -85 -132 -99 -192 -183 -236 -332 -39
-132 -62 -233 -62 -274 l0 -41 63 0 64 0 17 82 c33 152 63 230 132 339 106
168 139 243 132 306 l-3 33 -16 -28z m-290 -559 c13 -45 -3 -74 -26 -50 -10
10 -12 25 -8 51 9 46 21 46 34 -1z"/>
<path d="M1189 721 c-32 -33 -37 -65 -13 -99 20 -29 39 -28 69 3 29 28 34 85
9 109 -22 22 -31 20 -65 -13z"/>
<path d="M2270 720 c0 -5 5 -10 10 -10 6 0 10 5 10 10 0 6 -4 10 -10 10 -5 0
-10 -4 -10 -10z"/>
<path d="M4107 716 c-7 -19 11 -32 24 -19 6 6 5 14 -4 22 -12 9 -16 8 -20 -3z"/>
<path d="M4170 720 c0 -5 5 -10 10 -10 6 0 10 5 10 10 0 6 -4 10 -10 10 -5 0
-10 -4 -10 -10z"/>
<path d="M4860 720 c0 -5 5 -10 10 -10 6 0 10 5 10 10 0 6 -4 10 -10 10 -5 0
-10 -4 -10 -10z"/>
<path d="M5066 713 c-11 -11 -6 -23 9 -23 8 0 15 4 15 9 0 13 -16 22 -24 14z"/>
<path d="M1683 702 c-7 -4 -19 -23 -26 -42 -18 -42 -5 -90 24 -90 22 0 23 5 7
65 -10 39 -10 48 2 55 8 5 12 11 9 14 -2 3 -10 2 -16 -2z"/>
<path d="M2336 702 c-3 -6 -1 -14 5 -17 15 -10 25 3 12 16 -7 7 -13 7 -17 1z"/>
<path d="M1024 686 c-8 -21 -1 -49 13 -53 6 -2 14 5 17 15 12 36 -17 72 -30
38z"/>
<path d="M3062 684 c4 -21 22 -23 26 -1 2 10 -3 17 -13 17 -10 0 -15 -6 -13
-16z"/>
<path d="M4378 640 c-41 -60 -47 -99 -22 -124 20 -21 47 -7 64 34 9 22 10 47
4 89 l-9 58 -37 -57z"/>
<path d="M100 665 c0 -8 5 -15 10 -15 6 0 10 7 10 15 0 8 -4 15 -10 15 -5 0
-10 -7 -10 -15z"/>
<path d="M1840 665 c0 -9 5 -15 11 -13 6 2 11 8 11 13 0 5 -5 11 -11 13 -6 2
-11 -4 -11 -13z"/>
<path d="M1741 632 c-11 -33 -11 -49 0 -91 l13 -52 13 43 c16 55 16 100 0 122
-12 16 -14 14 -26 -22z"/>
<path d="M2210 640 c0 -15 5 -20 18 -18 9 2 17 10 17 18 0 8 -8 16 -17 18 -13
2 -18 -3 -18 -18z"/>
<path d="M640 635 c0 -8 7 -15 15 -15 8 0 15 7 15 15 0 8 -7 15 -15 15 -8 0
-15 -7 -15 -15z"/>
<path d="M3418 618 c-14 -26 -14 -146 0 -160 11 -11 52 148 45 170 -8 19 -31
14 -45 -10z"/>
<path d="M1346 621 c-7 -11 3 -41 14 -41 14 0 21 17 14 34 -7 18 -20 21 -28 7z"/>
<path d="M4824 616 c-4 -10 -2 -22 4 -28 8 -8 13 -7 18 6 4 10 2 22 -4 28 -8
8 -13 7 -18 -6z"/>
<path d="M60 610 c0 -5 5 -10 10 -10 6 0 10 5 10 10 0 6 -4 10 -10 10 -5 0
-10 -4 -10 -10z"/>
<path d="M177 600 c-3 -8 -13 -38 -21 -65 -9 -28 -39 -84 -66 -124 -55 -82
-61 -113 -34 -182 l17 -41 49 49 c65 63 88 110 94 191 4 50 1 82 -14 127 -11
35 -22 54 -25 45z"/>
<path d="M4035 590 c-8 -14 3 -30 21 -30 8 0 14 9 14 20 0 21 -24 28 -35 10z"/>
<path d="M4984 586 c-7 -19 3 -36 22 -36 10 0 14 8 12 22 -4 26 -26 36 -34 14z"/>
<path d="M2219 543 c-57 -59 -79 -100 -79 -150 0 -41 42 -143 59 -143 6 0 26
16 45 35 51 51 54 76 27 263 l-6 43 -46 -48z"/>
<path d="M3060 560 c-9 -16 -8 -25 1 -36 16 -19 41 1 37 29 -4 29 -25 32 -38
7z"/>
<path d="M5075 538 c-21 -24 -49 -68 -64 -98 -22 -47 -26 -68 -26 -147 0 -52
5 -97 11 -103 7 -7 27 15 67 76 l57 87 0 113 c0 63 -2 114 -4 114 -3 0 -21
-19 -41 -42z"/>
<path d="M1133 518 c0 -35 -10 -75 -28 -118 -26 -63 -27 -68 -20 -190 4 -68
11 -133 15 -144 6 -17 8 -15 19 14 6 19 29 61 51 95 85 131 86 155 11 303
l-48 94 0 -54z"/>
<path d="M3760 546 c0 -21 21 -31 30 -15 5 7 6 17 4 21 -9 14 -34 9 -34 -6z"/>
<path d="M4113 534 c-8 -22 15 -44 26 -25 10 16 4 41 -10 41 -5 0 -12 -7 -16
-16z"/>
<path d="M1 425 c1 -113 2 -118 14 -80 18 53 18 144 0 175 -13 23 -14 14 -14
-95z"/>
<path d="M1196 533 c-11 -11 -6 -23 9 -23 8 0 15 4 15 9 0 13 -16 22 -24 14z"/>
<path d="M4824 519 c-10 -12 -62 -50 -115 -85 -184 -121 -265 -250 -245 -389
l7 -46 55 3 55 3 43 100 c48 113 88 183 150 264 23 31 46 63 51 71 8 12 25
100 20 100 -1 0 -10 -10 -21 -21z"/>
<path d="M1344 519 c-3 -6 -1 -16 5 -22 8 -8 11 -5 11 11 0 24 -5 28 -16 11z"/>
<path d="M2727 513 c-13 -12 -7 -54 9 -60 23 -8 38 12 30 41 -6 25 -25 34 -39
19z"/>
<path d="M4680 505 c0 -9 5 -15 11 -13 6 2 11 8 11 13 0 5 -5 11 -11 13 -6 2
-11 -4 -11 -13z"/>
<path d="M997 504 c-8 -8 1 -24 14 -24 5 0 9 7 9 15 0 15 -12 20 -23 9z"/>
<path d="M2987 503 c-12 -11 -7 -41 7 -46 19 -7 26 1 26 30 0 22 -19 31 -33
16z"/>
<path d="M4005 499 c-10 -15 3 -25 16 -12 7 7 7 13 1 17 -6 3 -14 1 -17 -5z"/>
<path d="M4930 495 c-9 -11 -11 -22 -4 -32 13 -21 25 -21 38 -1 8 14 7 21 -5
33 -14 15 -17 15 -29 0z"/>
<path d="M3696 463 c-12 -12 -6 -33 9 -33 8 0 15 6 15 14 0 17 -14 28 -24 19z"/>
<path d="M4038 396 c-130 -107 -179 -179 -214 -309 -23 -86 -22 -87 45 -87
l59 0 78 131 c52 88 85 156 99 208 32 110 36 131 28 130 -5 0 -47 -33 -95 -73z"/>
<path d="M3327 454 c-14 -15 -6 -34 14 -34 14 0 19 5 17 17 -3 18 -20 27 -31
17z"/>
<path d="M3630 444 c0 -17 22 -14 28 4 2 7 -3 12 -12 12 -9 0 -16 -7 -16 -16z"/>
<path d="M4284 435 c-8 -21 2 -45 20 -45 19 0 29 29 15 46 -15 18 -28 18 -35
-1z"/>
<path d="M2660 411 c-14 -34 -7 -65 13 -59 15 6 21 52 9 74 -7 13 -11 11 -22
-15z"/>
<path d="M1387 424 c-8 -8 1 -24 14 -24 5 0 9 7 9 15 0 15 -12 20 -23 9z"/>
<path d="M1672 413 c4 -21 33 -25 33 -3 0 8 -8 16 -18 18 -14 3 -18 -1 -15
-15z"/>
<path d="M3870 420 c0 -5 5 -10 10 -10 6 0 10 5 10 10 0 6 -4 10 -10 10 -5 0
-10 -4 -10 -10z"/>
<path d="M1328 368 c-3 -44 -18 -84 -62 -171 -32 -62 -60 -132 -63 -155 l-6
-43 64 3 63 3 14 45 c17 53 20 311 5 350 -9 22 -11 18 -15 -32z m-88 -312 c0
-3 -4 -8 -10 -11 -5 -3 -10 -1 -10 4 0 6 5 11 10 11 6 0 10 -2 10 -4z"/>
<path d="M3380 404 c0 -8 5 -12 10 -9 6 3 10 10 10 16 0 5 -4 9 -10 9 -5 0
-10 -7 -10 -16z"/>
<path d="M4935 410 c-4 -6 -3 -16 3 -22 13 -13 23 4 13 21 -7 10 -10 10 -16 1z"/>
<path d="M4875 399 c-4 -6 -5 -13 -2 -16 7 -7 27 6 27 18 0 12 -17 12 -25 -2z"/>
<path d="M3820 380 c0 -5 5 -10 10 -10 6 0 10 5 10 10 0 6 -4 10 -10 10 -5 0
-10 -4 -10 -10z"/>
<path d="M3891 372 c-6 -11 -6 -24 -1 -33 8 -12 12 -12 26 3 17 17 13 48 -5
48 -6 0 -15 -8 -20 -18z"/>
<path d="M362 368 c-16 -16 -15 -43 2 -57 19 -16 40 12 32 44 -7 28 -16 31
-34 13z"/>
<path d="M2752 298 c-47 -95 -80 -189 -89 -253 -6 -49 0 -54 30 -28 18 17 19
17 32 0 7 -10 25 -17 44 -17 l32 0 -3 190 c-2 104 -3 190 -4 190 0 0 -19 -37
-42 -82z"/>
<path d="M2916 371 c-4 -5 -2 -12 3 -15 5 -4 12 -2 15 3 4 5 2 12 -3 15 -5 4
-12 2 -15 -3z"/>
<path d="M911 356 c-16 -19 -10 -51 8 -51 8 0 19 8 25 17 8 14 7 21 -5 33 -14
14 -17 14 -28 1z"/>
<path d="M3570 355 c0 -8 7 -15 15 -15 8 0 15 7 15 15 0 8 -7 15 -15 15 -8 0
-15 -7 -15 -15z"/>
<path d="M2995 350 c3 -5 8 -10 11 -10 2 0 4 5 4 10 0 6 -5 10 -11 10 -5 0 -7
-4 -4 -10z"/>
<path d="M4324 346 c-4 -10 -2 -22 4 -28 8 -8 13 -7 18 6 4 10 2 22 -4 28 -8
8 -13 7 -18 -6z"/>
<path d="M817 336 c-3 -8 0 -22 8 -33 13 -17 14 -17 20 0 8 20 0 47 -14 47 -5
0 -11 -6 -14 -14z"/>
<path d="M3275 269 c-22 -42 -26 -57 -19 -81 5 -17 17 -36 27 -42 15 -9 23 -6
43 17 13 15 24 39 24 52 0 29 -29 105 -39 105 -5 0 -20 -23 -36 -51z"/>
<path d="M3742 293 c-50 -72 -66 -139 -42 -184 14 -26 26 -24 47 7 12 19 17
49 17 115 1 49 0 89 -1 89 -1 0 -10 -12 -21 -27z"/>
<path d="M1711 180 c-6 -69 -15 -137 -18 -152 -5 -28 -5 -28 51 -28 69 0 69 4
25 132 -16 49 -33 108 -38 131 -6 36 -9 25 -20 -83z"/>
<path d="M2855 290 c-7 -12 2 -30 16 -30 5 0 9 9 9 20 0 21 -15 27 -25 10z"/>
<path d="M4905 290 c-7 -12 2 -30 16 -30 12 0 12 27 0 35 -5 3 -12 1 -16 -5z"/>
<path d="M3615 280 c-8 -13 4 -32 16 -25 12 8 12 35 0 35 -6 0 -13 -4 -16 -10z"/>
<path d="M957 244 c-5 -30 -17 -50 -40 -71 -53 -46 -67 -73 -67 -126 l0 -48
46 3 c68 4 86 32 84 129 0 41 -4 92 -8 114 l-8 40 -7 -41z"/>
<path d="M2095 270 c-4 -6 -3 -16 3 -22 6 -6 12 -6 17 2 4 6 3 16 -3 22 -6 6
-12 6 -17 -2z"/>
<path d="M190 250 c0 -11 7 -20 15 -20 8 0 15 9 15 20 0 11 -7 20 -15 20 -8 0
-15 -9 -15 -20z"/>
<path d="M4822 243 c-43 -61 -72 -136 -72 -190 l0 -53 65 0 c53 0 66 3 75 19
17 32 11 88 -14 149 -13 31 -26 68 -28 82 l-3 25 -23 -32z"/>
<path d="M250 240 c0 -13 5 -20 13 -17 6 2 12 10 12 17 0 7 -6 15 -12 18 -8 2
-13 -5 -13 -18z"/>
<path d="M4135 250 c-7 -12 2 -30 16 -30 12 0 12 27 0 35 -5 3 -12 1 -16 -5z"/>
<path d="M3807 235 c-8 -20 3 -47 17 -42 6 2 11 14 11 27 0 27 -20 38 -28 15z"/>
<path d="M4265 239 c-11 -16 4 -59 20 -59 19 0 29 38 15 55 -15 18 -26 19 -35
4z"/>
<path d="M4380 235 c0 -8 5 -15 10 -15 6 0 10 7 10 15 0 8 -4 15 -10 15 -5 0
-10 -7 -10 -15z"/>
<path d="M4176 180 c-38 -51 -76 -137 -76 -172 0 -4 36 -8 80 -8 l79 0 6 34
c6 29 -26 190 -40 204 -2 2 -24 -24 -49 -58z"/>
<path d="M5063 224 c-7 -18 11 -39 26 -30 17 11 13 46 -4 46 -9 0 -18 -7 -22
-16z"/>
<path d="M785 211 c-3 -5 -1 -12 5 -16 5 -3 10 1 10 9 0 18 -6 21 -15 7z"/>
<path d="M3556 198 c-26 -36 -21 -100 10 -129 l26 -24 30 34 c26 29 29 40 25
73 -3 21 -11 45 -17 53 -18 22 -57 18 -74 -7z"/>
<path d="M2180 190 c-24 -24 -26 -63 -4 -84 18 -19 17 -19 48 -5 13 7 30 24
36 39 24 59 -35 95 -80 50z"/>
<path d="M2630 190 c0 -13 5 -20 13 -17 6 2 12 10 12 17 0 7 -6 15 -12 18 -8
2 -13 -5 -13 -18z"/>
<path d="M3180 194 c0 -9 5 -14 12 -12 18 6 21 28 4 28 -9 0 -16 -7 -16 -16z"/>
<path d="M374 189 c-8 -14 18 -31 30 -19 9 9 0 30 -14 30 -5 0 -12 -5 -16 -11z"/>
<path d="M2860 180 c0 -13 5 -20 13 -17 6 2 12 10 12 17 0 7 -6 15 -12 18 -8
2 -13 -5 -13 -18z"/>
<path d="M752 164 c4 -21 22 -23 26 -1 2 10 -3 17 -13 17 -10 0 -15 -6 -13
-16z"/>
<path d="M137 154 c-15 -15 -7 -45 11 -42 9 2 17 12 17 22 0 20 -16 31 -28 20z"/>
<path d="M1946 127 c-25 -33 -56 -97 -56 -117 0 -5 17 -10 39 -10 l38 0 -5 49
c-2 27 0 63 6 80 14 39 9 39 -22 -2z"/>
<path d="M2117 153 c-13 -12 -7 -43 8 -43 9 0 15 9 15 25 0 24 -10 32 -23 18z"/>
<path d="M5015 150 c-10 -16 16 -43 28 -31 11 11 2 41 -12 41 -5 0 -13 -5 -16
-10z"/>
<path d="M13 143 c-15 -6 -17 -59 -3 -68 13 -8 43 42 36 60 -6 15 -12 17 -33
8z"/>
<path d="M287 144 c-4 -4 -7 -16 -7 -26 0 -20 25 -25 36 -7 8 13 -19 43 -29
33z"/>
<path d="M3780 129 c0 -11 5 -17 10 -14 6 3 10 13 10 21 0 8 -4 14 -10 14 -5
0 -10 -9 -10 -21z"/>
<path d="M4694 136 c-4 -10 -2 -22 4 -28 8 -8 13 -7 18 6 4 10 2 22 -4 28 -8
8 -13 7 -18 -6z"/>
<path d="M5096 134 c-25 -25 -17 -134 10 -134 11 0 14 18 14 75 0 41 -2 75 -4
75 -3 0 -12 -7 -20 -16z"/>
<path d="M655 131 c-7 -12 12 -24 25 -16 11 7 4 25 -10 25 -5 0 -11 -4 -15 -9z"/>
<path d="M1582 128 c6 -18 28 -21 28 -4 0 9 -7 16 -16 16 -9 0 -14 -5 -12 -12z"/>
<path d="M3391 106 c-35 -57 -21 -107 20 -70 13 12 19 30 19 61 0 52 -11 55
-39 9z"/>
<path d="M2313 115 c-3 -9 -3 -19 1 -22 8 -9 37 18 30 28 -8 14 -24 11 -31 -6z"/>
<path d="M725 62 c-16 -26 -31 -50 -33 -54 -2 -5 12 -8 32 -8 l36 0 0 55 c0
30 -1 55 -2 55 -2 0 -16 -22 -33 -48z"/>
<path d="M2545 100 c-8 -13 4 -32 16 -25 12 8 12 35 0 35 -6 0 -13 -4 -16 -10z"/>
<path d="M342 76 c1 -10 8 -17 13 -17 15 1 12 24 -3 29 -9 3 -13 -2 -10 -12z"/>
<path d="M1846 83 c-11 -11 -6 -23 9 -23 8 0 15 4 15 9 0 13 -16 22 -24 14z"/>
<path d="M2241 55 c-39 -44 -39 -55 -2 -55 26 0 30 4 36 41 4 22 5 42 2 45 -2
3 -18 -11 -36 -31z"/>
<path d="M4022 64 c4 -21 22 -23 26 -1 2 10 -3 17 -13 17 -10 0 -15 -6 -13
-16z"/>
<path d="M407 41 c-23 -39 -22 -41 13 -41 28 0 30 2 24 28 -10 41 -18 44 -37
13z"/>
<path d="M1507 64 c-8 -8 1 -24 14 -24 5 0 9 7 9 15 0 15 -12 20 -23 9z"/>
<path d="M3180 55 c0 -8 5 -15 10 -15 6 0 10 7 10 15 0 8 -4 15 -10 15 -5 0
-10 -7 -10 -15z"/>
<path d="M4335 61 c-8 -15 3 -31 21 -31 9 0 14 7 12 17 -4 20 -24 28 -33 14z"/>
<path d="M62 29 l-24 -29 31 0 c26 0 31 4 31 24 0 36 -12 37 -38 5z"/>
<path d="M163 52 c-5 -4 -15 -17 -22 -29 -11 -22 -10 -23 29 -23 33 0 40 3 40
20 0 21 -30 42 -47 32z"/>
<path d="M4967 44 c-8 -8 1 -24 14 -24 5 0 9 7 9 15 0 15 -12 20 -23 9z"/>
<path d="M1384 26 c-8 -22 3 -33 18 -18 9 9 9 15 0 24 -9 9 -13 7 -18 -6z"/>
<path d="M1605 27 c-4 -10 -5 -21 -1 -24 10 -10 18 4 13 24 -4 17 -4 17 -12 0z"/>
<path d="M2010 15 c0 -8 5 -15 10 -15 6 0 10 7 10 15 0 8 -4 15 -10 15 -5 0
-10 -7 -10 -15z"/>
<path d="M3507 23 c-13 -12 -7 -23 13 -23 13 0 18 5 14 15 -7 16 -17 19 -27 8z"/>
<path d="M3716 23 c-11 -11 -6 -23 9 -23 8 0 15 4 15 9 0 13 -16 22 -24 14z"/>
</g>
</svg>